<?xml version="1.0" encoding="utf-8"?>
<!-- Generator: Adobe Illustrator 24.0.0, SVG Export Plug-In . SVG Version: 6.00 Build 0)  -->
<svg version="1.1" id="Layer_1" xmlns="http://www.w3.org/2000/svg" xmlns:xlink="http://www.w3.org/1999/xlink" x="0px" y="0px"
	 viewBox="0 0 15.54 18.02" style="enable-background:new 0 0 15.54 18.02;" xml:space="preserve">
<style type="text/css">
	.st0{fill:#FBB25C;}
</style>
<path id="Path_89" class="st0" d="M36.97-1.09c-0.59-0.05-1.32-0.09-2.04-0.19c-0.97-0.1-1.9-0.4-2.74-0.88
	c-0.25-0.16-0.47-0.35-0.66-0.58c-0.28-0.32-0.28-0.8,0-1.12c0.32-0.39,0.75-0.69,1.23-0.86c0.65-0.26,1.33-0.44,2.02-0.55
	c1.15-0.19,2.31-0.24,3.47-0.15c1.18,0.04,2.34,0.31,3.42,0.8c0.32,0.16,0.61,0.37,0.88,0.61c0.41,0.34,0.46,0.95,0.11,1.35
	c-0.04,0.05-0.08,0.09-0.13,0.13c-0.41,0.38-0.91,0.66-1.46,0.82c-0.54,0.17-1.09,0.29-1.64,0.42c-0.22,0.05-0.44,0.08-0.67,0.1
	C38.21-1.16,37.67-1.13,36.97-1.09z"/>
<path id="Path_90" class="st0" d="M32.86-9.35c0.58,0.04,1.15,0.05,1.72,0.13c1.14,0.09,2.26,0.42,3.25,0.99
	c0.22,0.14,0.41,0.31,0.58,0.51c0.32,0.39,0.28,0.95-0.08,1.3c-0.18,0.21-0.45,0.33-0.72,0.31c-0.44-0.03-0.89-0.03-1.33,0
	c-0.66,0.06-1.31,0.15-1.96,0.25c-0.83,0.13-1.62,0.4-2.36,0.79c-0.1,0.04-0.2,0.05-0.31,0.04c-0.53-0.06-1.06-0.09-1.58-0.2
	c-0.88-0.14-1.71-0.47-2.44-0.99c-0.39-0.24-0.59-0.7-0.5-1.15c0.09-0.32,0.31-0.6,0.6-0.76c0.51-0.34,1.08-0.6,1.68-0.75
	C30.54-9.18,31.7-9.34,32.86-9.35z"/>
<path id="Path_91" class="st0" d="M31.37,3.43c0.72,0.61,1.58,1.02,2.5,1.21c1.49,0.35,3.02,0.46,4.55,0.33
	c1.3-0.04,2.58-0.36,3.75-0.95c0.23-0.13,0.44-0.29,0.69-0.46c0.01,0.09,0.02,0.16,0.02,0.24c0,0.32-0.01,0.65,0,0.97
	c0.01,0.25-0.09,0.49-0.27,0.66c-0.45,0.49-1.03,0.84-1.67,1.03c-0.68,0.23-1.39,0.41-2.1,0.52c-0.96,0.16-1.94,0.18-2.9,0.05
	c-0.47-0.07-0.95-0.11-1.42-0.21c-1-0.15-1.93-0.58-2.7-1.23c-0.32-0.26-0.49-0.66-0.47-1.08C31.39,4.16,31.37,3.82,31.37,3.43z"/>
<path id="Path_92" class="st0" d="M31.38-1.92c0.56,0.57,1.27,0.97,2.04,1.16c0.85,0.24,1.72,0.39,2.6,0.46
	c0.86,0.08,1.73,0.07,2.6-0.03c1.24-0.08,2.46-0.41,3.56-0.99c0.23-0.14,0.45-0.31,0.71-0.49v0.35c0,0.32-0.01,0.64,0,0.95
	c0.01,0.22-0.08,0.44-0.24,0.58c-0.39,0.37-0.86,0.64-1.37,0.81c-0.49,0.16-0.99,0.3-1.49,0.44c-0.18,0.05-0.37,0.08-0.56,0.1
	c-1.12,0.14-2.25,0.17-3.38,0.08c-1.12-0.06-2.21-0.33-3.23-0.79c-0.49-0.18-0.91-0.52-1.18-0.97c-0.03-0.05-0.05-0.11-0.06-0.18
	C31.38-0.92,31.38-1.4,31.38-1.92z"/>
<path id="Path_93" class="st0" d="M42.89,0.96v0.7c-0.01,0.08-0.01,0.15,0,0.23c0.05,0.42-0.16,0.84-0.54,1.04
	c-0.57,0.4-1.21,0.68-1.9,0.83c-0.57,0.15-1.15,0.26-1.73,0.34C38,4.17,37.27,4.15,36.55,4.16c-0.2,0.01-0.41-0.01-0.61-0.03
	c-0.66-0.1-1.33-0.21-1.99-0.34c-0.59-0.12-1.16-0.34-1.67-0.65c-0.2-0.12-0.38-0.26-0.56-0.41c-0.24-0.2-0.37-0.51-0.35-0.82
	c0.02-0.35,0-0.7,0-1.05c0.3,0.2,0.57,0.39,0.86,0.56c0.55,0.29,1.14,0.5,1.76,0.63c1.32,0.3,2.67,0.41,4.02,0.33
	c0.6-0.04,1.2-0.12,1.79-0.24c0.59-0.11,1.17-0.27,1.74-0.47C42,1.44,42.45,1.22,42.89,0.96z"/>
<path id="Path_94" class="st0" d="M30.7,3.07C30.46,3.02,30.24,3,30.04,2.94c-0.67-0.17-1.32-0.44-1.91-0.8
	c-0.41-0.23-0.73-0.58-0.92-1.01c-0.03-0.09-0.05-0.19-0.06-0.28c-0.01-0.41,0-0.81,0-1.27c0.37,0.39,0.83,0.68,1.33,0.86
	c0.58,0.2,1.17,0.34,1.75,0.5c0.13,0.04,0.26,0.05,0.39,0.09c0.04,0.02,0.07,0.06,0.08,0.1C30.7,1.76,30.7,2.4,30.7,3.07z"/>
<path id="Path_95" class="st0" d="M27.15-5.72c1.08,0.9,2.42,1.44,3.82,1.55c-0.4,0.53-0.23,1.13-0.29,1.74
	c-0.21-0.02-0.43-0.06-0.64-0.11c-0.6-0.19-1.2-0.38-1.78-0.63c-0.47-0.17-0.85-0.52-1.08-0.97c-0.02-0.04-0.04-0.08-0.04-0.12
	C27.15-4.73,27.15-5.22,27.15-5.72z"/>
<path id="Path_96" class="st0" d="M30.7,0.12c-1.07-0.1-2.1-0.46-3-1.06c-0.39-0.24-0.6-0.68-0.56-1.13c0.03-0.31,0-0.63,0-0.94
	c0.28,0.21,0.57,0.41,0.88,0.57c0.54,0.23,1.11,0.41,1.68,0.59c0.29,0.09,0.59,0.12,0.88,0.19c0.05,0.01,0.11,0.07,0.11,0.11
	C30.7-1.01,30.7-0.47,30.7,0.12z"/>
<path id="Path_61" class="st0" d="M13.17-52.68c2.05,0,4.1,0,6.14,0c0.37-0.02,0.73,0.1,1.01,0.34c0.41,0.38,0.63,0.93,0.59,1.49
	c0,2.49,0,4.98,0,7.47c0,2.28,0,4.57,0,6.86c0.06,0.65-0.25,1.27-0.8,1.62c-0.25,0.13-0.52,0.2-0.8,0.2c-1.14,0.02-2.28,0-3.42,0.01
	c-1.27,0.01-2.53,0.04-3.8,0.04c-1.71,0-3.42-0.02-5.14-0.04C6-34.71,5.39-35.41,5.39-36.53c0-4.77,0-9.53,0-14.3
	c-0.09-0.79,0.37-1.53,1.12-1.79c0.18-0.04,0.36-0.06,0.54-0.05C9.1-52.68,11.13-52.68,13.17-52.68z M6.03-43.71
	c0,2.38,0,5.38,0,7.76c0,0.36,0.06,0.42,0.36,0.43c1.46,0,3.53,0,4.98,0.01c0.2,0,0.24-0.07,0.24-0.29c-0.01-1.67,0-3.96-0.01-5.63
	c0-0.19,0.05-0.25,0.21-0.25c0.94,0.01,1.88,0,2.82,0c0.25,0,0.25,0,0.25,0.29c0,1.67,0,3.95,0,5.61c0,0.2,0.04,0.26,0.22,0.26
	c1.4-0.01,3.42,0,4.81,0c0.3,0,0.36-0.07,0.36-0.43c0-4.72,0-10.68,0-15.41c0-0.06,0-0.12,0-0.17c-0.01-0.22-0.08-0.3-0.27-0.31
	c-0.06,0-0.11,0-0.17,0H6.41c-0.34,0-0.38,0.05-0.38,0.44C6.03-49.05,6.03-46.07,6.03-43.71L6.03-43.71z M12.09-41.13
	c0,0.07-0.01,0.11-0.01,0.16c0,1.85,0,3.71,0,5.56c0,0.17,0.06,0.2,0.19,0.2c0.64-0.01,1.29-0.01,1.93,0c0.17,0,0.23-0.05,0.23-0.25
	c-0.01-1.82,0-3.64,0-5.45c0-0.07-0.01-0.14-0.01-0.23L12.09-41.13z"/>
<path id="Path_62" class="st0" d="M15.87-39.48c0-0.38,0.01-0.77,0-1.15c0-0.14,0.04-0.18,0.18-0.18c0.76,0.01,1.52,0.01,2.28,0
	c0.16,0,0.2,0.06,0.2,0.21c-0.01,0.75-0.01,1.51,0,2.26c0,0.16-0.05,0.2-0.21,0.2c-0.75-0.01-1.51-0.01-2.26,0
	c-0.16,0-0.2-0.06-0.2-0.21C15.87-38.72,15.87-39.1,15.87-39.48z"/>
<path id="Path_63" class="st0" d="M18.53-43.93c0,0.38,0,0.76,0,1.13c0,0.14-0.03,0.2-0.19,0.2c-0.77-0.01-1.54-0.01-2.3,0
	c-0.14,0-0.17-0.05-0.17-0.18c0-0.77,0-1.55,0-2.32c0-0.14,0.05-0.17,0.18-0.17c0.77,0,1.54,0,2.3,0c0.14,0,0.19,0.04,0.18,0.18
	C18.52-44.7,18.53-44.32,18.53-43.93z"/>
<path id="Path_64" class="st0" d="M17.18-46.89c-0.38,0-0.76,0-1.13,0c-0.14,0-0.19-0.04-0.18-0.18c0.01-0.77,0.01-1.53,0-2.3
	c0-0.14,0.05-0.18,0.19-0.18c0.76,0.01,1.52,0.01,2.28,0c0.14,0,0.2,0.04,0.2,0.19c-0.01,0.76-0.01,1.52,0,2.28
	c0,0.15-0.06,0.2-0.2,0.19C17.95-46.9,17.56-46.89,17.18-46.89z"/>
<path id="Path_65" class="st0" d="M11.86-46.91v-2.63c0.06,0,0.11-0.01,0.17-0.01c0.76,0,1.52,0,2.29,0c0.14,0,0.2,0.03,0.2,0.19
	c-0.01,0.77,0,1.54,0,2.3c0,0.11-0.02,0.18-0.15,0.18c-0.8,0-1.6,0-2.4,0C11.92-46.9,11.89-46.9,11.86-46.91z"/>
<path id="Path_66" class="st0" d="M11.85-42.62v-2.64h2.63c0.01,0.06,0.02,0.11,0.02,0.15c0,0.77,0,1.55,0,2.32
	c0,0.11-0.01,0.18-0.15,0.18c-0.8,0-1.6,0-2.4,0C11.92-42.6,11.89-42.61,11.85-42.62z"/>
<path id="Path_67" class="st0" d="M9.27-40.81c0.38,0,0.76,0,1.13,0c0.13,0,0.19,0.03,0.19,0.18c-0.01,0.77-0.01,1.55,0,2.32
	c0,0.13-0.04,0.17-0.17,0.17c-0.77,0-1.53,0-2.3,0c-0.14,0-0.18-0.05-0.18-0.18c0.01-0.77,0.01-1.53,0-2.3
	c0-0.14,0.04-0.19,0.18-0.18C8.51-40.8,8.89-40.81,9.27-40.81z"/>
<path id="Path_68" class="st0" d="M9.26-46.89c-0.37,0-0.74-0.01-1.11,0c-0.15,0-0.21-0.04-0.21-0.2c0.01-0.76,0.01-1.51,0-2.27
	c0-0.16,0.06-0.2,0.21-0.2c0.75,0.01,1.5,0.01,2.25,0c0.15,0,0.21,0.04,0.21,0.2c-0.01,0.76-0.01,1.51,0,2.27
	c0,0.16-0.05,0.21-0.21,0.2C10.02-46.9,9.64-46.89,9.26-46.89z"/>
<path id="Path_69" class="st0" d="M9.26-42.6c-0.38,0-0.76,0-1.13,0c-0.14,0-0.19-0.03-0.19-0.18c0.01-0.77,0.01-1.55,0-2.32
	c0-0.13,0.05-0.16,0.17-0.16c0.78,0,1.55,0,2.33,0c0.12,0,0.17,0.03,0.17,0.16c0,0.78,0,1.56,0,2.34c0,0.12-0.04,0.17-0.17,0.16
	C10.04-42.61,9.65-42.6,9.26-42.6z"/>
<path id="Path_70" class="st0" d="M110.36,57.38V46.56h1.95c0-0.64,0-1.24,0-1.83c-0.07-0.55,0.33-1.05,0.87-1.11
	c0.08-0.01,0.16-0.01,0.24,0c1.24,0,2.48,0,3.72,0c0.55-0.06,1.04,0.34,1.1,0.89c0.01,0.07,0.01,0.14,0,0.21c0,0.6,0,1.2,0,1.84
	h1.94v10.83H110.36z M113.35,44.64v1.9h3.85v-1.9L113.35,44.64z"/>
<path id="Path_71" class="st0" d="M109.36,46.56v10.81c-0.99,0.02-1.84-0.7-1.97-1.69c-0.01-0.11-0.02-0.22-0.02-0.33
	c0-2.25,0-4.49,0-6.74c-0.03-0.97,0.65-1.83,1.61-2.01C109.11,46.58,109.24,46.57,109.36,46.56z"/>
<path id="Path_72" class="st0" d="M121.19,57.38V46.6c0.81-0.03,1.55,0.46,1.83,1.21c0.09,0.24,0.13,0.49,0.13,0.74
	c0.01,2.29,0.01,4.58,0,6.87c0.01,1.07-0.84,1.94-1.91,1.96C121.23,57.38,121.21,57.38,121.19,57.38z"/>
<g id="Group_270" transform="translate(0 0)">
	<path id="Path_97" class="st0" d="M29.35-13.31h-7.29c-0.52,0.03-0.99-0.33-1.1-0.84c-0.03-0.16-0.04-0.32-0.03-0.47
		c0-1.35,0-2.7,0-4.05c0-2,0-4,0-6c0-1.42,0.01-2.84,0-4.26c-0.03-0.5,0.29-0.95,0.76-1.1c0.14-0.03,0.28-0.05,0.43-0.05
		c3.34,0,6.67,0,10.01,0c0.61-0.05,1.14,0.4,1.19,1.01c0,0.06,0.01,0.12,0,0.18c0,1.55,0,3.1,0,4.64c0,1.13,0,2.25,0,3.38
		c0,0.08,0.03,0.16,0.1,0.22c0.54,0.45,0.9,1.09,1,1.79c0.17,0.97-0.14,1.96-0.84,2.66c-0.04,0.06-0.07,0.13-0.07,0.2
		c-0.01,0.99-0.01,1.99-0.01,2.98c0,0.14-0.01,0.27-0.02,0.41c-0.01,0.31-0.26,0.55-0.57,0.54c-0.13,0-0.26-0.05-0.35-0.14
		c-0.21-0.16-0.41-0.34-0.62-0.51c-0.14-0.12-0.28-0.23-0.42-0.36c-0.07-0.06-0.11-0.06-0.17,0c-0.27,0.24-0.55,0.47-0.83,0.69
		c-0.09,0.07-0.18,0.13-0.27,0.2c-0.16,0.14-0.39,0.17-0.58,0.07c-0.2-0.1-0.32-0.31-0.31-0.53C29.35-12.87,29.35-13.07,29.35-13.31
		z M32.48-21.1v-7.82c0-0.27-0.09-0.36-0.37-0.36H22.1c-0.27,0-0.35,0.08-0.35,0.35c0,1.21,0,2.41,0,3.62c0,3.6,0,7.21,0,10.81
		c0,0.22,0.09,0.31,0.3,0.31h7.15c0.05,0,0.1,0,0.15-0.01v-1.53c-0.05,0-0.09-0.01-0.12-0.01H26.6h-2.9
		c-0.16,0.01-0.3-0.08-0.36-0.23c-0.06-0.14-0.04-0.31,0.06-0.42c0.11-0.1,0.25-0.15,0.4-0.13h5.07c0.04,0,0.08-0.01,0.12-0.02
		c-0.28-0.35-0.47-0.77-0.55-1.21c-0.03-0.12-0.06-0.16-0.19-0.16c-1.27,0-2.54,0-3.81,0c-0.28,0-0.55,0-0.83-0.02
		c-0.16-0.02-0.28-0.14-0.29-0.3c-0.04-0.14,0.01-0.29,0.14-0.37c0.11-0.06,0.23-0.09,0.36-0.1c1.48-0.01,2.96-0.01,4.45,0
		c0.09,0,0.16-0.01,0.17-0.13c0.06-0.39,0.2-0.76,0.43-1.09c0.03-0.04,0.05-0.09,0.09-0.15c-0.03-0.01-0.05-0.01-0.08-0.01h-3.32
		c-0.61,0-1.23,0-1.84-0.01c-0.21,0-0.39-0.16-0.39-0.37c0,0,0,0,0-0.01c0-0.21,0.17-0.39,0.38-0.39c0.01,0,0.02,0,0.02,0
		c0.18,0,0.36-0.01,0.53-0.01c1.83,0,3.66,0,5.48,0c0.05,0,0.11-0.01,0.16-0.04c0.62-0.36,1.35-0.48,2.05-0.35
		C32.12-21.2,32.29-21.15,32.48-21.1L32.48-21.1z M29.23-18.37c-0.01,1.23,0.98,2.22,2.21,2.23c0.02,0,0.03,0,0.05,0
		c1.2-0.02,2.16-0.99,2.16-2.19c0.02-1.22-0.95-2.23-2.18-2.26c-0.01,0-0.03,0-0.04,0c-1.21,0-2.2,0.98-2.2,2.2
		C29.23-18.38,29.23-18.37,29.23-18.37z M30.2-13.23c0.32-0.27,0.61-0.51,0.91-0.77c0.18-0.17,0.46-0.18,0.65-0.01
		c0.12,0.1,0.23,0.19,0.34,0.29c0.19,0.16,0.38,0.31,0.59,0.49v-2.35c-0.79,0.35-1.7,0.34-2.49-0.03L30.2-13.23z"/>
	<path id="Path_98" class="st0" d="M27-24.54h-3.09c-0.37,0.04-0.71-0.23-0.75-0.6c-0.01-0.05-0.01-0.1,0-0.15c0-0.54,0-1.09,0-1.63
		c-0.03-0.37,0.25-0.7,0.62-0.73c0.03,0,0.06,0,0.09,0c1.11,0,2.22,0,3.34,0c0.96,0,1.92,0,2.88,0c0.2-0.01,0.4,0.06,0.55,0.2
		c0.14,0.14,0.21,0.33,0.2,0.53c0,0.55,0.01,1.11,0,1.66c0.03,0.37-0.25,0.7-0.62,0.73c-0.04,0-0.09,0-0.13,0L27-24.54z
		 M27.01-25.36L27.01-25.36c0.96,0,1.92,0,2.88,0c0.11,0,0.15-0.03,0.15-0.14c-0.01-0.39-0.01-0.79,0-1.18
		c0-0.12-0.04-0.15-0.15-0.15c-0.62,0-1.24,0-1.86,0c-1.29,0-2.58,0-3.87-0.01c-0.14,0-0.17,0.04-0.17,0.17
		c0.01,0.38,0.01,0.76,0,1.14c0,0.13,0.04,0.17,0.16,0.17C25.1-25.36,26.05-25.36,27.01-25.36L27.01-25.36z"/>
	<path id="Path_99" class="st0" d="M27.06-22.35c-1.1,0-2.19,0-3.29,0c-0.26,0-0.38-0.09-0.44-0.31c-0.06-0.19,0.05-0.39,0.25-0.45
		c0.02-0.01,0.04-0.01,0.06-0.01c0.16-0.02,0.32-0.02,0.48-0.02h6.26c0.21-0.02,0.4,0.13,0.43,0.34c0,0.01,0,0.03,0,0.04
		c0.01,0.22-0.16,0.4-0.38,0.41c-0.02,0-0.04,0-0.05,0L27.06-22.35L27.06-22.35z"/>
</g>
<path id="Path_80" class="st0" d="M-5.24-2.47h-6.23c-0.75,0.03-1.39-0.56-1.42-1.31c0-0.03,0-0.06,0-0.1c0-0.9,0-1.79,0-2.69
	c0-0.75,0.61-1.36,1.37-1.36H1.01c0.75-0.02,1.38,0.58,1.4,1.33c0,0.02,0,0.04,0,0.06c0,0.89,0,1.78,0,2.68
	c0.02,0.76-0.58,1.38-1.34,1.4c-0.02,0-0.04,0-0.06,0L-5.24-2.47z M-5.24-6.84h-6.21c-0.23,0-0.33,0.1-0.33,0.32
	c0,0.88,0,1.76,0,2.64c0,0.22,0.11,0.32,0.33,0.32h12.4c0.28,0,0.37-0.09,0.37-0.37c0-0.86,0-1.71,0-2.57c0-0.24-0.1-0.34-0.34-0.34
	L-5.24-6.84z"/>
<path id="Path_81" class="st0" d="M-5.24-19.95h6.23c0.76-0.03,1.39,0.57,1.42,1.33c0,0.03,0,0.07,0,0.1c0,0.88,0,1.77,0,2.65
	c0.01,0.76-0.59,1.38-1.35,1.39c-0.02,0-0.03,0-0.05,0h-12.45c-0.75,0.04-1.4-0.54-1.44-1.3c0-0.04,0-0.09,0-0.13
	c0-0.87,0-1.75,0-2.62c-0.02-0.69,0.47-1.28,1.14-1.39c0.09-0.01,0.18-0.02,0.27-0.02L-5.24-19.95z M-5.25-15.58h6.21
	c0.26,0,0.35-0.1,0.35-0.36v-2.54c0-0.29-0.09-0.38-0.38-0.38h-12.37c-0.22,0-0.34,0.1-0.34,0.3c0,0.9,0,1.79,0,2.69
	c-0.01,0.15,0.11,0.28,0.26,0.29c0.01,0,0.02,0,0.04,0c0.06,0,0.13,0,0.19,0L-5.25-15.58z"/>
<path id="Path_82" class="st0" d="M-5.24-13.94h6.21c0.75-0.04,1.39,0.54,1.43,1.3c0,0.04,0,0.08,0,0.12c0,0.89,0,1.78,0,2.66
	c0,0.76-0.6,1.37-1.36,1.38c-0.01,0-0.01,0-0.02,0h-12.49c-0.75,0.02-1.39-0.57-1.41-1.32c0-0.03,0-0.05,0-0.08
	c0-0.89,0-1.77,0-2.66c-0.02-0.75,0.58-1.38,1.33-1.4c0.02,0,0.04,0,0.07,0L-5.24-13.94z M-5.24-12.85h-6.2
	c-0.25,0-0.35,0.1-0.35,0.35c0,0.87,0,1.73,0,2.59c0,0.24,0.1,0.34,0.34,0.34h12.4c0.26,0,0.36-0.09,0.36-0.35c0-0.86,0-1.71,0-2.57
	c0-0.27-0.1-0.36-0.36-0.36L-5.24-12.85z"/>
<path id="Path_83" class="st0" d="M-7.97-5.74c0.3,0,0.54,0.25,0.54,0.55c0,0.3-0.25,0.54-0.55,0.54c-0.3,0-0.54-0.25-0.54-0.55
	c0,0,0,0,0,0C-8.51-5.5-8.27-5.75-7.97-5.74C-7.97-5.74-7.97-5.74-7.97-5.74z"/>
<path id="Path_84" class="st0" d="M27.01-37.93c0-0.3,0.24-0.54,0.53-0.54c0,0,0.01,0,0.01,0c0.3,0,0.54,0.25,0.54,0.55
	c-0.01,0.3-0.25,0.54-0.55,0.54C27.25-37.38,27.01-37.63,27.01-37.93C27.01-37.93,27.01-37.93,27.01-37.93z"/>
<path id="Path_85" class="st0" d="M-7.42-17.22c0,0.3-0.23,0.55-0.54,0.55c0,0,0,0,0,0c-0.3,0-0.55-0.24-0.56-0.54
	c0-0.3,0.24-0.55,0.54-0.55C-7.68-17.77-7.43-17.53-7.42-17.22C-7.42-17.22-7.42-17.22-7.42-17.22z"/>
<path id="Path_86" class="st0" d="M27.01-49.95c0-0.3,0.24-0.54,0.54-0.54c0,0,0,0,0.01,0c0.3,0,0.54,0.25,0.54,0.55
	c0,0.3-0.25,0.54-0.55,0.54C27.25-49.4,27.01-49.64,27.01-49.95C27.01-49.94,27.01-49.95,27.01-49.95z"/>
<path id="Path_87" class="st0" d="M-7.96-11.75c0.3,0,0.54,0.25,0.54,0.55c0,0.3-0.25,0.54-0.55,0.54c-0.3,0-0.54-0.25-0.54-0.55
	C-8.51-11.51-8.27-11.76-7.96-11.75C-7.97-11.75-7.97-11.75-7.96-11.75z"/>
<path id="Path_88" class="st0" d="M27.54-43.39c-0.3-0.01-0.54-0.25-0.53-0.55c0,0,0,0,0,0c0-0.3,0.25-0.54,0.55-0.53c0,0,0,0,0,0
	c0.3,0.01,0.53,0.25,0.54,0.54C28.1-43.63,27.86-43.39,27.54-43.39C27.55-43.39,27.55-43.39,27.54-43.39z"/>
<g id="Group_262" transform="translate(-36.346 -159.702)">
	<g id="Group_261" transform="translate(36.346 159.702)">
		<path id="Path_73" class="st0" d="M59.22-88.05h-6.91c-0.32,0-0.42-0.1-0.42-0.42c-0.02-1.66,0.52-3.28,1.54-4.6
			c0.8-1.03,1.89-1.79,3.13-2.19c1.9-0.66,3.97-0.59,5.82,0.2c1.94,0.8,3.38,2.48,3.88,4.52c0.19,0.68,0.28,1.39,0.28,2.1
			c0,0.3-0.11,0.41-0.4,0.41h-6.93L59.22-88.05z M52.54-88.69c0.07,0,0.13,0.01,0.19,0.01h2.67c0.71,0,1.42,0,2.12-0.01
			c0.06,0,0.12-0.03,0.16-0.08c0.13-0.25,0.25-0.5,0.38-0.78l-0.91-1.17c-0.25-0.32-0.49-0.63-0.74-0.94
			c-0.09-0.1-0.11-0.24-0.05-0.36c0.04-0.12,0.16-0.19,0.28-0.17c0.12,0.03,0.22,0.09,0.3,0.18c0.54,0.67,1.06,1.36,1.59,2.04
			c0.04,0.08,0.14,0.11,0.23,0.08c0.83-0.26,1.71,0.2,1.98,1.03c0,0.01,0.01,0.02,0.01,0.03c0.01,0.09,0.1,0.16,0.19,0.15
			c0,0,0.01,0,0.01,0c1.6,0,3.19,0,4.79,0c0.06,0,0.11-0.01,0.17-0.01c0-0.04,0.01-0.06,0-0.08c-0.03-0.73-0.16-1.45-0.4-2.14
			c-0.49-1.47-1.55-2.69-2.94-3.39c-1.53-0.75-3.26-0.96-4.93-0.6c-1.22,0.21-2.34,0.79-3.22,1.65
			C53.23-92.03,52.55-90.4,52.54-88.69L52.54-88.69z M60.09-88.69c-0.12-0.38-0.47-0.63-0.87-0.63c-0.4,0-0.75,0.25-0.87,0.63H60.09
			z"/>
		<path id="Path_74" class="st0" d="M53.63-89.93c0.19,0.04,0.44,0.09,0.68,0.16c0.15,0.05,0.23,0.21,0.19,0.36
			c-0.03,0.16-0.18,0.26-0.34,0.25c-0.24-0.04-0.47-0.09-0.7-0.16c-0.16-0.05-0.25-0.21-0.21-0.37
			C53.3-89.85,53.46-89.95,53.63-89.93z"/>
		<path id="Path_75" class="st0" d="M64.63-91.02c-0.06,0.09-0.12,0.16-0.2,0.23c-0.19,0.11-0.38,0.22-0.57,0.31
			c-0.15,0.08-0.33,0.03-0.42-0.12c0,0,0-0.01-0.01-0.01c-0.08-0.15-0.03-0.34,0.13-0.42c0,0,0,0,0,0c0.19-0.11,0.38-0.21,0.57-0.31
			c0.17-0.08,0.38,0,0.46,0.17C64.63-91.13,64.64-91.08,64.63-91.02z"/>
		<path id="Path_76" class="st0" d="M60.13-94c-0.02,0.17-0.04,0.37-0.07,0.57c-0.02,0.17-0.17,0.3-0.34,0.28c0,0,0,0,0,0
			c-0.17-0.01-0.3-0.17-0.29-0.34c0,0,0-0.01,0-0.01c0.02-0.2,0.04-0.39,0.06-0.59c0-0.18,0.14-0.32,0.32-0.32c0.01,0,0.03,0,0.04,0
			C60.03-94.39,60.14-94.24,60.13-94z"/>
		<path id="Path_77" class="st0" d="M57.62-93.19c-0.01,0.22-0.09,0.32-0.23,0.36c-0.14,0.05-0.29-0.01-0.36-0.13
			c-0.11-0.23-0.2-0.47-0.28-0.71c-0.04-0.14,0.03-0.28,0.16-0.33c0.12-0.08,0.28-0.06,0.36,0.06
			C57.42-93.69,57.52-93.41,57.62-93.19z"/>
		<path id="Path_78" class="st0" d="M62.37-93.45c0.28,0,0.46,0.25,0.34,0.45c-0.12,0.21-0.26,0.41-0.41,0.6
			c-0.1,0.12-0.29,0.15-0.42,0.05c-0.14-0.1-0.17-0.28-0.08-0.42c0.11-0.19,0.24-0.37,0.37-0.54C62.23-93.37,62.3-93.42,62.37-93.45
			z"/>
		<path id="Path_79" class="st0" d="M55.64-91.65c-0.07,0.08-0.12,0.2-0.2,0.24c-0.1,0.04-0.22,0.04-0.32-0.01
			c-0.19-0.13-0.37-0.28-0.54-0.45c-0.12-0.11-0.12-0.3-0.01-0.42c0.1-0.13,0.28-0.15,0.42-0.06c0.19,0.14,0.37,0.3,0.54,0.46
			C55.58-91.82,55.61-91.74,55.64-91.65z"/>
	</g>
</g>
<g id="Group_266" transform="translate(4429.819 876.774)">
	<path id="Path_100" class="st0" d="M-4429.42-867.79c0.02-4.07,3.34-7.36,7.41-7.35c4.06,0.04,7.33,3.33,7.33,7.39
		c-0.03,4.06-3.32,7.34-7.38,7.35C-4426.13-860.42-4429.42-863.72-4429.42-867.79z M-4415.67-867.77c-0.02-3.52-2.88-6.36-6.4-6.36
		c-3.51,0.02-6.34,2.86-6.35,6.37c0,3.52,2.85,6.37,6.37,6.38C-4418.52-861.4-4415.68-864.25-4415.67-867.77L-4415.67-867.77z"/>
	<path id="Path_101" class="st0" d="M-4419.97-869.25c-0.23,0.72-0.46,1.45-0.69,2.17c-0.25,0.8-0.5,1.6-0.75,2.4
		c-0.04,0.24-0.23,0.41-0.47,0.43c-0.28,0.02-0.41-0.16-0.5-0.38c-0.51-1.15-1.02-2.29-1.53-3.44c-0.04-0.1-0.09-0.2-0.17-0.36
		c-0.18,0.22-0.33,0.45-0.47,0.69c-0.22,0.57-0.83,0.89-1.43,0.74c-0.3-0.02-0.61-0.02-0.91-0.01c-0.33-0.01-0.53-0.18-0.54-0.45
		c-0.01-0.27,0.19-0.48,0.53-0.49c0.36-0.01,0.72,0.02,1.08-0.01c0.16-0.02,0.31-0.1,0.42-0.23c0.33-0.46,0.64-0.94,0.94-1.41
		c0.12-0.2,0.29-0.38,0.53-0.29c0.18,0.07,0.34,0.21,0.43,0.39c0.47,1.01,0.91,2.03,1.36,3.04c0.04,0.1,0.09,0.19,0.17,0.37
		c0.07-0.2,0.13-0.32,0.16-0.45c0.46-1.45,0.92-2.91,1.38-4.36c0.08-0.25,0.19-0.45,0.48-0.46c0.31-0.01,0.43,0.21,0.52,0.46
		c0.32,0.9,0.65,1.8,0.97,2.71c0.03,0.17,0.19,0.28,0.35,0.25c0.29-0.01,0.59-0.01,0.88,0c0.25-0.02,0.47,0.16,0.49,0.41
		c0,0.02,0,0.03,0,0.05c0,0.26-0.21,0.46-0.46,0.46c-0.01,0-0.02,0-0.03,0c-0.48,0.01-0.96,0-1.44,0c-0.24,0.02-0.46-0.14-0.52-0.37
		c-0.18-0.51-0.38-1.02-0.56-1.54c-0.04-0.11-0.08-0.22-0.13-0.32L-4419.97-869.25z"/>
</g>
</svg>
