<?xml version="1.0" encoding="utf-8"?>
<!-- Generator: Adobe Illustrator 24.0.0, SVG Export Plug-In . SVG Version: 6.00 Build 0)  -->
<svg version="1.1" id="Capa_1" xmlns="http://www.w3.org/2000/svg" xmlns:xlink="http://www.w3.org/1999/xlink" x="0px" y="0px"
	 viewBox="0 0 20.8 19.9" style="enable-background:new 0 0 20.8 19.9;" xml:space="preserve">
<style type="text/css">
	.st0{fill:#FDB25B;}
</style>
<g id="Group_340" transform="translate(-57 -450.407)">
	<path id="Path_190" class="st0" d="M99.2,452h3.2v0.5h1.2v-0.6c0-0.6-0.5-1.1-1.1-1.1h-3.4c-0.6,0-1.1,0.5-1.1,1.1v0.6h1.2
		C99.2,452.5,99.2,452,99.2,452z"/>
	<path id="Path_191" class="st0" d="M106.3,457.1h-11c-0.3,0-0.5,0.2-0.5,0.5l0,0l0.9,11.3c0.1,0.6,0.6,1.1,1.2,1.1h7.7
		c0.6,0,1.2-0.5,1.2-1.1l0.9-11.3C106.8,457.4,106.6,457.2,106.3,457.1L106.3,457.1z M98,468.9L98,468.9c-0.3,0-0.6-0.2-0.6-0.5
		l-0.6-9.3c0-0.3,0.2-0.6,0.5-0.6c0.3,0,0.6,0.2,0.6,0.5l0.6,9.3C98.6,468.6,98.3,468.9,98,468.9L98,468.9z M101.4,468.3
		c0,0.3-0.3,0.6-0.6,0.6c-0.3,0-0.6-0.3-0.6-0.6V459c0-0.3,0.3-0.6,0.6-0.6c0.3,0,0.6,0.3,0.6,0.6V468.3z M104.8,459.1l-0.5,9.3
		c0,0.3-0.3,0.5-0.6,0.5l0,0c-0.3,0-0.6-0.3-0.6-0.6l0,0l0.5-9.3c0-0.3,0.3-0.6,0.6-0.5C104.6,458.5,104.8,458.8,104.8,459.1
		L104.8,459.1z"/>
	<path id="Path_192" class="st0" d="M108.3,455.3l-0.4-1.1c-0.1-0.3-0.4-0.5-0.7-0.5H94.4c-0.3,0-0.6,0.2-0.7,0.5l-0.4,1.1
		c-0.1,0.3,0.1,0.5,0.3,0.6c0,0,0.1,0,0.2,0h14c0.3,0,0.5-0.2,0.5-0.5C108.3,455.4,108.3,455.4,108.3,455.3L108.3,455.3z"/>
</g>
<g>
	<path class="st0" d="M9.9,0.8c0.4,0,0.7,0,1.1,0c0,0,0.1,0,0.1,0c1.3,0.1,2.5,0.4,3.6,1.1c3,1.7,4.6,4.3,4.9,7.7
		c0.1,1.7-0.3,3.2-1.1,4.7c-1.7,3-4.3,4.6-7.7,4.9c-1.7,0.1-3.2-0.3-4.7-1.1c-2.6-1.4-4.2-3.6-4.7-6.5c-0.1-0.3-0.1-0.7-0.1-1.1
		c0-0.4,0-0.7,0-1.1c0-0.1,0-0.1,0-0.2c0.1-1.3,0.4-2.5,1-3.6c1.4-2.6,3.6-4.2,6.5-4.7C9.1,0.8,9.5,0.8,9.9,0.8z M9.1,11.3
		c0,0.1,0,0.2,0,0.2c0,0.6,0,1.3,0,1.9c0,0.5,0.3,0.8,0.8,0.8c0.3,0,0.7,0,1,0c0.6,0,0.9-0.3,0.9-0.9c0-0.6,0-1.2,0-1.9
		c0-0.1,0-0.1,0-0.2c0.1,0,0.1,0,0.2,0c0.6,0,1.3,0,1.9,0c0.5,0,0.8-0.3,0.8-0.8c0-0.3,0-0.7,0-1c0-0.6-0.3-0.8-0.8-0.8
		c-0.6,0-1.3,0-1.9,0c-0.1,0-0.1,0-0.2,0c0-0.1,0-0.1,0-0.2c0-0.6,0-1.3,0-1.9c0-0.5-0.3-0.8-0.8-0.8c-0.3,0-0.7,0-1,0
		c-0.6,0-0.9,0.3-0.9,0.9c0,0.6,0,1.2,0,1.9c0,0.1,0,0.1,0,0.2c-0.1,0-0.2,0-0.2,0c-0.6,0-1.3,0-1.9,0c-0.5,0-0.8,0.3-0.8,0.8
		c0,0.4,0,0.7,0,1.1c0,0.5,0.3,0.8,0.8,0.8c0.5,0,1,0,1.5,0C8.6,11.3,8.8,11.3,9.1,11.3z"/>
</g>
</svg>
