<?xml version="1.0" encoding="utf-8"?>
<!-- Generator: Adobe Illustrator 24.0.0, SVG Export Plug-In . SVG Version: 6.00 Build 0)  -->
<svg version="1.1" id="Layer_1" xmlns="http://www.w3.org/2000/svg" xmlns:xlink="http://www.w3.org/1999/xlink" x="0px" y="0px"
	 viewBox="0 0 14.7 13.7" style="enable-background:new 0 0 14.7 13.7;" xml:space="preserve">
<style type="text/css">
	.st0{fill:#FA9351;}
</style>
<g>
	<g>
		<path class="st0" d="M11.7,2.5c-1.4-1.4-3.7-1.4-5.1,0L2.2,6.9c-1,1-1,2.6,0,3.7c0.5,0.5,1.2,0.8,1.8,0.8c0.7,0,1.3-0.3,1.8-0.8
			l4-4c0.3-0.3,0.5-0.7,0.5-1.1c0-0.4-0.2-0.8-0.5-1.1c-0.6-0.6-1.6-0.6-2.2,0L5,7C4.8,7.2,4.8,7.5,5,7.7c0.2,0.2,0.5,0.2,0.7,0
			l2.6-2.6c0.2-0.2,0.5-0.2,0.7,0c0.1,0.1,0.2,0.2,0.2,0.4c0,0.1-0.1,0.3-0.2,0.4l-4,4c-0.6,0.6-1.6,0.6-2.2,0
			c-0.6-0.6-0.6-1.6,0-2.2l4.4-4.4c1-1,2.6-1,3.7,0c0.5,0.5,0.8,1.1,0.8,1.8s-0.3,1.3-0.8,1.8l-4.4,4.4c-0.2,0.2-0.2,0.5,0,0.7
			c0.1,0.1,0.2,0.2,0.4,0.2c0.1,0,0.3-0.1,0.4-0.2l4.4-4.4c0.7-0.7,1.1-1.6,1.1-2.6C12.7,4.1,12.3,3.2,11.7,2.5z"/>
	</g>
</g>
</svg>
