<svg id="Capa_1" data-name="Capa 1" xmlns="http://www.w3.org/2000/svg" viewBox="0 0 19.8 19.62"><defs><style>.cls-1{fill:#fff;}</style></defs><title>calendar-and-clock-time-administration-and-organization-tools-symbol</title><g id="Group_1341" data-name="Group 1341"><g id="Group_1340" data-name="Group 1340"><path id="Path_688" data-name="Path 688" class="cls-1" d="M36.43,20.2a4.8,4.8,0,0,0-4.8-4.8h-.31a4.81,4.81,0,0,0-4.46,4.24,4.89,4.89,0,0,0,0,.54,4.8,4.8,0,0,0,9.6,0Zm-4.8,3.17A3.17,3.17,0,1,1,34.8,20.2a3.17,3.17,0,0,1-3.17,3.17Z" transform="translate(-16.63 -5.19)"/><path id="Path_689" data-name="Path 689" class="cls-1" d="M32.26,18H31.17v1.7h-1.7v1.08h2.79V19.73h0Z" transform="translate(-16.63 -5.19)"/><path id="Path_690" data-name="Path 690" class="cls-1" d="M20.19,5.19a.55.55,0,0,0-.55.54V8.28a.55.55,0,0,0,.55.54h.46a.54.54,0,0,0,.54-.54V5.73a.54.54,0,0,0-.54-.54Z" transform="translate(-16.63 -5.19)"/><path id="Path_691" data-name="Path 691" class="cls-1" d="M28.7,5.19a.55.55,0,0,0-.55.54V8.28a.55.55,0,0,0,.55.54h.46a.54.54,0,0,0,.54-.54V5.73a.54.54,0,0,0-.54-.54Z" transform="translate(-16.63 -5.19)"/><path id="Path_692" data-name="Path 692" class="cls-1" d="M17.87,21.2h7.66A5.64,5.64,0,0,1,25.41,20c0-.13,0-.26,0-.38H19a.93.93,0,0,1-.93-.93V11.3H31.33v2.87h.31a6.57,6.57,0,0,1,1.08.1V8.2A1.23,1.23,0,0,0,31.48,7h-1V8.28A1.32,1.32,0,0,1,29.16,9.6H28.7a1.32,1.32,0,0,1-1.32-1.32V7H22V8.28A1.32,1.32,0,0,1,20.65,9.6h-.46a1.32,1.32,0,0,1-1.31-1.32V7h-1A1.23,1.23,0,0,0,16.63,8.2h0V20A1.23,1.23,0,0,0,17.87,21.2Z" transform="translate(-16.63 -5.19)"/><circle id="Ellipse_37" data-name="Ellipse 37" class="cls-1" cx="4.36" cy="8.43" r="1.23"/><circle id="Ellipse_38" data-name="Ellipse 38" class="cls-1" cx="8.05" cy="8.43" r="1.23"/><circle id="Ellipse_39" data-name="Ellipse 39" class="cls-1" cx="11.73" cy="8.43" r="1.23"/><circle id="Ellipse_40" data-name="Ellipse 40" class="cls-1" cx="8.05" cy="12.15" r="1.23"/><circle id="Ellipse_41" data-name="Ellipse 41" class="cls-1" cx="4.36" cy="12.15" r="1.23"/></g></g></svg>