<?xml version="1.0" encoding="utf-8"?>
<!-- Generator: Adobe Illustrator 24.0.0, SVG Export Plug-In . SVG Version: 6.00 Build 0)  -->
<svg version="1.1" id="Layer_1" xmlns="http://www.w3.org/2000/svg" xmlns:xlink="http://www.w3.org/1999/xlink" x="0px" y="0px"
	 viewBox="0 0 15.54 8.24" style="enable-background:new 0 0 15.54 8.24;" xml:space="preserve">
<style type="text/css">
	.st0{fill:#FBB25C;}
</style>
<path id="Path_89" class="st0" d="M36.97-4.29c-0.59-0.05-1.32-0.09-2.04-0.19c-0.97-0.1-1.9-0.4-2.74-0.88
	c-0.25-0.16-0.47-0.35-0.66-0.58c-0.28-0.32-0.28-0.8,0-1.12c0.32-0.39,0.75-0.69,1.23-0.86c0.65-0.26,1.33-0.44,2.02-0.55
	c1.15-0.19,2.31-0.24,3.47-0.15c1.18,0.04,2.34,0.31,3.42,0.8c0.32,0.16,0.61,0.37,0.88,0.61c0.41,0.34,0.46,0.95,0.11,1.35
	c-0.04,0.05-0.08,0.09-0.13,0.13c-0.41,0.38-0.91,0.66-1.46,0.82c-0.54,0.17-1.09,0.29-1.64,0.42c-0.22,0.05-0.44,0.08-0.67,0.1
	C38.21-4.35,37.67-4.33,36.97-4.29z"/>
<path id="Path_90" class="st0" d="M32.86-12.54c0.58,0.04,1.15,0.05,1.72,0.13c1.14,0.09,2.26,0.42,3.25,0.99
	c0.22,0.14,0.41,0.31,0.58,0.51c0.32,0.39,0.28,0.95-0.08,1.3c-0.18,0.21-0.45,0.33-0.72,0.31c-0.44-0.03-0.89-0.03-1.33,0
	c-0.66,0.06-1.31,0.15-1.96,0.25c-0.83,0.13-1.62,0.4-2.36,0.79c-0.1,0.04-0.2,0.05-0.31,0.04c-0.53-0.06-1.06-0.09-1.58-0.2
	c-0.88-0.14-1.71-0.47-2.44-0.99c-0.39-0.24-0.59-0.7-0.5-1.15c0.09-0.32,0.31-0.6,0.6-0.76c0.51-0.34,1.08-0.6,1.68-0.75
	C30.54-12.37,31.7-12.53,32.86-12.54z"/>
<path id="Path_91" class="st0" d="M31.37,0.23c0.72,0.61,1.58,1.02,2.5,1.21c1.49,0.35,3.02,0.46,4.55,0.33
	c1.3-0.04,2.58-0.36,3.75-0.95c0.23-0.13,0.44-0.29,0.69-0.46c0.01,0.09,0.02,0.16,0.02,0.24c0,0.32-0.01,0.65,0,0.97
	c0.01,0.25-0.09,0.49-0.27,0.66c-0.45,0.49-1.03,0.84-1.67,1.03c-0.68,0.23-1.39,0.41-2.1,0.52c-0.96,0.16-1.94,0.18-2.9,0.05
	c-0.47-0.07-0.95-0.11-1.42-0.21c-1-0.15-1.93-0.58-2.7-1.23c-0.32-0.26-0.49-0.66-0.47-1.08C31.39,0.97,31.37,0.63,31.37,0.23z"/>
<path id="Path_92" class="st0" d="M31.38-5.11c0.56,0.57,1.27,0.97,2.04,1.16c0.85,0.24,1.72,0.39,2.6,0.46
	c0.86,0.08,1.73,0.07,2.6-0.03c1.24-0.08,2.46-0.41,3.56-0.99c0.23-0.14,0.45-0.31,0.71-0.49v0.35c0,0.32-0.01,0.64,0,0.95
	c0.01,0.22-0.08,0.44-0.24,0.58c-0.39,0.37-0.86,0.64-1.37,0.81c-0.49,0.16-0.99,0.3-1.49,0.44c-0.18,0.05-0.37,0.08-0.56,0.1
	c-1.12,0.14-2.25,0.17-3.38,0.08c-1.12-0.06-2.21-0.33-3.23-0.79C32.12-2.66,31.7-3,31.43-3.45c-0.03-0.05-0.05-0.11-0.06-0.18
	C31.38-4.11,31.38-4.59,31.38-5.11z"/>
<path id="Path_93" class="st0" d="M42.89-2.23v0.7c-0.01,0.08-0.01,0.15,0,0.23c0.05,0.42-0.16,0.84-0.54,1.04
	c-0.57,0.4-1.21,0.68-1.9,0.83c-0.57,0.15-1.15,0.26-1.73,0.34C38,0.98,37.27,0.95,36.55,0.96c-0.2,0.01-0.41-0.01-0.61-0.03
	c-0.66-0.1-1.33-0.21-1.99-0.34c-0.59-0.12-1.16-0.34-1.67-0.65c-0.2-0.12-0.38-0.26-0.56-0.41c-0.24-0.2-0.37-0.51-0.35-0.82
	c0.02-0.35,0-0.7,0-1.05c0.3,0.2,0.57,0.39,0.86,0.56c0.55,0.29,1.14,0.5,1.76,0.63c1.32,0.3,2.67,0.41,4.02,0.33
	c0.6-0.04,1.2-0.12,1.79-0.24c0.59-0.11,1.17-0.27,1.74-0.47C42-1.75,42.45-1.98,42.89-2.23z"/>
<path id="Path_94" class="st0" d="M30.7-0.13c-0.24-0.04-0.46-0.07-0.66-0.13c-0.67-0.17-1.32-0.44-1.91-0.8
	c-0.41-0.23-0.73-0.58-0.92-1.01c-0.03-0.09-0.05-0.19-0.06-0.28c-0.01-0.41,0-0.81,0-1.27c0.37,0.39,0.83,0.68,1.33,0.86
	c0.58,0.2,1.17,0.34,1.75,0.5c0.13,0.04,0.26,0.05,0.39,0.09c0.04,0.02,0.07,0.06,0.08,0.1C30.7-1.43,30.7-0.8,30.7-0.13z"/>
<path id="Path_95" class="st0" d="M27.15-8.91c1.08,0.9,2.42,1.44,3.82,1.55c-0.4,0.53-0.23,1.13-0.29,1.74
	c-0.21-0.02-0.43-0.06-0.64-0.11c-0.6-0.19-1.2-0.38-1.78-0.63c-0.47-0.17-0.85-0.52-1.08-0.97c-0.02-0.04-0.04-0.08-0.04-0.12
	C27.15-7.93,27.15-8.41,27.15-8.91z"/>
<path id="Path_96" class="st0" d="M30.7-3.07c-1.07-0.1-2.1-0.46-3-1.06c-0.39-0.24-0.6-0.68-0.56-1.13c0.03-0.31,0-0.63,0-0.94
	c0.28,0.21,0.57,0.41,0.88,0.57c0.54,0.23,1.11,0.41,1.68,0.59c0.29,0.09,0.59,0.12,0.88,0.19c0.05,0.01,0.11,0.07,0.11,0.11
	C30.7-4.2,30.7-3.66,30.7-3.07z"/>
<path id="Path_61" class="st0" d="M13.17-55.87c2.05,0,4.1,0,6.14,0c0.37-0.02,0.73,0.1,1.01,0.34c0.41,0.38,0.63,0.93,0.59,1.49
	c0,2.49,0,4.98,0,7.47c0,2.28,0,4.57,0,6.86c0.06,0.65-0.25,1.27-0.8,1.62c-0.25,0.13-0.52,0.2-0.8,0.2c-1.14,0.02-2.28,0-3.42,0.01
	c-1.27,0.01-2.53,0.04-3.8,0.04c-1.71,0-3.42-0.02-5.14-0.04C6-37.9,5.39-38.61,5.39-39.72c0-4.77,0-9.53,0-14.3
	c-0.09-0.79,0.37-1.53,1.12-1.79c0.18-0.04,0.36-0.06,0.54-0.05C9.1-55.87,11.13-55.87,13.17-55.87z M6.03-46.9
	c0,2.38,0,5.38,0,7.76c0,0.36,0.06,0.42,0.36,0.43c1.46,0,3.53,0,4.98,0.01c0.2,0,0.24-0.07,0.24-0.29c-0.01-1.67,0-3.96-0.01-5.63
	c0-0.19,0.05-0.25,0.21-0.25c0.94,0.01,1.88,0,2.82,0c0.25,0,0.25,0,0.25,0.29c0,1.67,0,3.95,0,5.61c0,0.2,0.04,0.26,0.22,0.26
	c1.4-0.01,3.42,0,4.81,0c0.3,0,0.36-0.07,0.36-0.43c0-4.72,0-10.68,0-15.41c0-0.06,0-0.12,0-0.17c-0.01-0.22-0.08-0.3-0.27-0.31
	c-0.06,0-0.11,0-0.17,0H6.41c-0.34,0-0.38,0.05-0.38,0.44C6.03-52.24,6.03-49.26,6.03-46.9L6.03-46.9z M12.09-44.32
	c0,0.07-0.01,0.11-0.01,0.16c0,1.85,0,3.71,0,5.56c0,0.17,0.06,0.2,0.19,0.2c0.64-0.01,1.29-0.01,1.93,0c0.17,0,0.23-0.05,0.23-0.25
	c-0.01-1.82,0-3.64,0-5.45c0-0.07-0.01-0.14-0.01-0.23L12.09-44.32z"/>
<path id="Path_62" class="st0" d="M15.87-42.67c0-0.38,0.01-0.77,0-1.15c0-0.14,0.04-0.18,0.18-0.18c0.76,0.01,1.52,0.01,2.28,0
	c0.16,0,0.2,0.06,0.2,0.21c-0.01,0.75-0.01,1.51,0,2.26c0,0.16-0.05,0.2-0.21,0.2c-0.75-0.01-1.51-0.01-2.26,0
	c-0.16,0-0.2-0.06-0.2-0.21C15.87-41.91,15.87-42.29,15.87-42.67z"/>
<path id="Path_63" class="st0" d="M18.53-47.12c0,0.38,0,0.76,0,1.13c0,0.14-0.03,0.2-0.19,0.2c-0.77-0.01-1.54-0.01-2.3,0
	c-0.14,0-0.17-0.05-0.17-0.18c0-0.77,0-1.55,0-2.32c0-0.14,0.05-0.17,0.18-0.17c0.77,0,1.54,0,2.3,0c0.14,0,0.19,0.04,0.18,0.18
	C18.52-47.89,18.53-47.51,18.53-47.12z"/>
<path id="Path_64" class="st0" d="M17.18-50.09c-0.38,0-0.76,0-1.13,0c-0.14,0-0.19-0.04-0.18-0.18c0.01-0.77,0.01-1.53,0-2.3
	c0-0.14,0.05-0.18,0.19-0.18c0.76,0.01,1.52,0.01,2.28,0c0.14,0,0.2,0.04,0.2,0.19c-0.01,0.76-0.01,1.52,0,2.28
	c0,0.15-0.06,0.2-0.2,0.19C17.95-50.09,17.56-50.09,17.18-50.09z"/>
<path id="Path_65" class="st0" d="M11.86-50.1v-2.63c0.06,0,0.11-0.01,0.17-0.01c0.76,0,1.52,0,2.29,0c0.14,0,0.2,0.03,0.2,0.19
	c-0.01,0.77,0,1.54,0,2.3c0,0.11-0.02,0.18-0.15,0.18c-0.8,0-1.6,0-2.4,0C11.92-50.09,11.89-50.09,11.86-50.1z"/>
<path id="Path_66" class="st0" d="M11.85-45.81v-2.64h2.63c0.01,0.06,0.02,0.11,0.02,0.15c0,0.77,0,1.55,0,2.32
	c0,0.11-0.01,0.18-0.15,0.18c-0.8,0-1.6,0-2.4,0C11.92-45.79,11.89-45.8,11.85-45.81z"/>
<path id="Path_67" class="st0" d="M9.27-44c0.38,0,0.76,0,1.13,0c0.13,0,0.19,0.03,0.19,0.18c-0.01,0.77-0.01,1.55,0,2.32
	c0,0.13-0.04,0.17-0.17,0.17c-0.77,0-1.53,0-2.3,0c-0.14,0-0.18-0.05-0.18-0.18c0.01-0.77,0.01-1.53,0-2.3
	c0-0.14,0.04-0.19,0.18-0.18C8.51-43.99,8.89-44,9.27-44z"/>
<path id="Path_68" class="st0" d="M9.26-50.09c-0.37,0-0.74-0.01-1.11,0c-0.15,0-0.21-0.04-0.21-0.2c0.01-0.76,0.01-1.51,0-2.27
	c0-0.16,0.06-0.2,0.21-0.2c0.75,0.01,1.5,0.01,2.25,0c0.15,0,0.21,0.04,0.21,0.2c-0.01,0.76-0.01,1.51,0,2.27
	c0,0.16-0.05,0.21-0.21,0.2C10.02-50.09,9.64-50.09,9.26-50.09z"/>
<path id="Path_69" class="st0" d="M9.26-45.79c-0.38,0-0.76,0-1.13,0c-0.14,0-0.19-0.03-0.19-0.18c0.01-0.77,0.01-1.55,0-2.32
	c0-0.13,0.05-0.16,0.17-0.16c0.78,0,1.55,0,2.33,0c0.12,0,0.17,0.03,0.17,0.16c0,0.78,0,1.56,0,2.34c0,0.12-0.04,0.17-0.17,0.16
	C10.04-45.8,9.65-45.79,9.26-45.79z"/>
<path id="Path_70" class="st0" d="M110.36,54.19V43.37h1.95c0-0.64,0-1.24,0-1.83c-0.07-0.55,0.33-1.05,0.87-1.11
	c0.08-0.01,0.16-0.01,0.24,0c1.24,0,2.48,0,3.72,0c0.55-0.06,1.04,0.34,1.1,0.89c0.01,0.07,0.01,0.14,0,0.21c0,0.6,0,1.2,0,1.84
	h1.94v10.83H110.36z M113.35,41.45v1.9h3.85v-1.9L113.35,41.45z"/>
<path id="Path_71" class="st0" d="M109.36,43.37v10.81c-0.99,0.02-1.84-0.7-1.97-1.69c-0.01-0.11-0.02-0.22-0.02-0.33
	c0-2.25,0-4.49,0-6.74c-0.03-0.97,0.65-1.83,1.61-2.01C109.11,43.39,109.24,43.37,109.36,43.37z"/>
<path id="Path_72" class="st0" d="M121.19,54.19V43.41c0.81-0.03,1.55,0.46,1.83,1.21c0.09,0.24,0.13,0.49,0.13,0.74
	c0.01,2.29,0.01,4.58,0,6.87c0.01,1.07-0.84,1.94-1.91,1.96C121.23,54.19,121.21,54.19,121.19,54.19z"/>
<g id="Group_270" transform="translate(0 0)">
	<path id="Path_97" class="st0" d="M29.35-16.5h-7.29c-0.52,0.03-0.99-0.33-1.1-0.84c-0.03-0.16-0.04-0.32-0.03-0.47
		c0-1.35,0-2.7,0-4.05c0-2,0-4,0-6c0-1.42,0.01-2.84,0-4.26c-0.03-0.5,0.29-0.95,0.76-1.1c0.14-0.03,0.28-0.05,0.43-0.05
		c3.34,0,6.67,0,10.01,0c0.61-0.05,1.14,0.4,1.19,1.01c0,0.06,0.01,0.12,0,0.18c0,1.55,0,3.1,0,4.64c0,1.13,0,2.25,0,3.38
		c0,0.08,0.03,0.16,0.1,0.22c0.54,0.45,0.9,1.09,1,1.79c0.17,0.97-0.14,1.96-0.84,2.66c-0.04,0.06-0.07,0.13-0.07,0.2
		c-0.01,0.99-0.01,1.99-0.01,2.98c0,0.14-0.01,0.27-0.02,0.41c-0.01,0.31-0.26,0.55-0.57,0.54c-0.13,0-0.26-0.05-0.35-0.14
		c-0.21-0.16-0.41-0.34-0.62-0.51c-0.14-0.12-0.28-0.23-0.42-0.36c-0.07-0.06-0.11-0.06-0.17,0c-0.27,0.24-0.55,0.47-0.83,0.69
		c-0.09,0.07-0.18,0.13-0.27,0.2c-0.16,0.14-0.39,0.17-0.58,0.07c-0.2-0.1-0.32-0.31-0.31-0.53C29.35-16.06,29.35-16.27,29.35-16.5z
		 M32.48-24.3v-7.82c0-0.27-0.09-0.36-0.37-0.36H22.1c-0.27,0-0.35,0.08-0.35,0.35c0,1.21,0,2.41,0,3.62c0,3.6,0,7.21,0,10.81
		c0,0.22,0.09,0.31,0.3,0.31h7.15c0.05,0,0.1,0,0.15-0.01v-1.53c-0.05,0-0.09-0.01-0.12-0.01H26.6h-2.9
		c-0.16,0.01-0.3-0.08-0.36-0.23c-0.06-0.14-0.04-0.31,0.06-0.42c0.11-0.1,0.25-0.15,0.4-0.13h5.07c0.04,0,0.08-0.01,0.12-0.02
		c-0.28-0.35-0.47-0.77-0.55-1.21c-0.03-0.12-0.06-0.16-0.19-0.16c-1.27,0-2.54,0-3.81,0c-0.28,0-0.55,0-0.83-0.02
		c-0.16-0.02-0.28-0.14-0.29-0.3c-0.04-0.14,0.01-0.29,0.14-0.37c0.11-0.06,0.23-0.09,0.36-0.1c1.48-0.01,2.96-0.01,4.45,0
		c0.09,0,0.16-0.01,0.17-0.13c0.06-0.39,0.2-0.76,0.43-1.09c0.03-0.04,0.05-0.09,0.09-0.15c-0.03-0.01-0.05-0.01-0.08-0.01h-3.32
		c-0.61,0-1.23,0-1.84-0.01c-0.21,0-0.39-0.16-0.39-0.37c0,0,0,0,0-0.01c0-0.21,0.17-0.39,0.38-0.39c0.01,0,0.02,0,0.02,0
		c0.18,0,0.36-0.01,0.53-0.01c1.83,0,3.66,0,5.48,0c0.05,0,0.11-0.01,0.16-0.04c0.62-0.36,1.35-0.48,2.05-0.35
		C32.12-24.39,32.29-24.34,32.48-24.3L32.48-24.3z M29.23-21.56c-0.01,1.23,0.98,2.22,2.21,2.23c0.02,0,0.03,0,0.05,0
		c1.2-0.02,2.16-0.99,2.16-2.19c0.02-1.22-0.95-2.23-2.18-2.26c-0.01,0-0.03,0-0.04,0c-1.21,0-2.2,0.98-2.2,2.2
		C29.23-21.57,29.23-21.57,29.23-21.56z M30.2-16.42c0.32-0.27,0.61-0.51,0.91-0.77c0.18-0.17,0.46-0.18,0.65-0.01
		c0.12,0.1,0.23,0.19,0.34,0.29c0.19,0.16,0.38,0.31,0.59,0.49v-2.35c-0.79,0.35-1.7,0.34-2.49-0.03L30.2-16.42z"/>
	<path id="Path_98" class="st0" d="M27-27.73h-3.09c-0.37,0.04-0.71-0.23-0.75-0.6c-0.01-0.05-0.01-0.1,0-0.15c0-0.54,0-1.09,0-1.63
		c-0.03-0.37,0.25-0.7,0.62-0.73c0.03,0,0.06,0,0.09,0c1.11,0,2.22,0,3.34,0c0.96,0,1.92,0,2.88,0c0.2-0.01,0.4,0.06,0.55,0.2
		c0.14,0.14,0.21,0.33,0.2,0.53c0,0.55,0.01,1.11,0,1.66c0.03,0.37-0.25,0.7-0.62,0.73c-0.04,0-0.09,0-0.13,0L27-27.73z
		 M27.01-28.55L27.01-28.55c0.96,0,1.92,0,2.88,0c0.11,0,0.15-0.03,0.15-0.14c-0.01-0.39-0.01-0.79,0-1.18
		c0-0.12-0.04-0.15-0.15-0.15c-0.62,0-1.24,0-1.86,0c-1.29,0-2.58,0-3.87-0.01c-0.14,0-0.17,0.04-0.17,0.17
		c0.01,0.38,0.01,0.76,0,1.14c0,0.13,0.04,0.17,0.16,0.17C25.1-28.55,26.05-28.55,27.01-28.55L27.01-28.55z"/>
	<path id="Path_99" class="st0" d="M27.06-25.54c-1.1,0-2.19,0-3.29,0c-0.26,0-0.38-0.09-0.44-0.31c-0.06-0.19,0.05-0.39,0.25-0.45
		c0.02-0.01,0.04-0.01,0.06-0.01c0.16-0.02,0.32-0.02,0.48-0.02h6.26c0.21-0.02,0.4,0.13,0.43,0.34c0,0.01,0,0.03,0,0.04
		c0.01,0.22-0.16,0.4-0.38,0.41c-0.02,0-0.04,0-0.05,0L27.06-25.54L27.06-25.54z"/>
</g>
<path id="Path_80" class="st0" d="M-7.35-9.48h-6.23c-0.75,0.03-1.39-0.56-1.42-1.31c0-0.03,0-0.06,0-0.1c0-0.9,0-1.79,0-2.69
	c0-0.75,0.61-1.36,1.37-1.36H-1.1c0.75-0.02,1.38,0.58,1.4,1.33c0,0.02,0,0.04,0,0.06c0,0.89,0,1.78,0,2.68
	c0.02,0.76-0.58,1.38-1.34,1.4c-0.02,0-0.04,0-0.06,0L-7.35-9.48z M-7.35-13.85h-6.21c-0.23,0-0.33,0.1-0.33,0.32
	c0,0.88,0,1.76,0,2.64c0,0.22,0.11,0.32,0.33,0.32h12.4c0.28,0,0.37-0.09,0.37-0.37c0-0.86,0-1.71,0-2.57c0-0.24-0.1-0.34-0.34-0.34
	L-7.35-13.85z"/>
<path id="Path_81" class="st0" d="M-7.35-26.96h6.23c0.76-0.03,1.39,0.57,1.42,1.33c0,0.03,0,0.07,0,0.1c0,0.88,0,1.77,0,2.65
	c0.01,0.76-0.59,1.38-1.35,1.39c-0.02,0-0.03,0-0.05,0h-12.45c-0.75,0.04-1.4-0.54-1.44-1.3c0-0.04,0-0.09,0-0.13
	c0-0.87,0-1.75,0-2.62c-0.02-0.69,0.47-1.28,1.14-1.39c0.09-0.01,0.18-0.02,0.27-0.02L-7.35-26.96z M-7.37-22.59h6.21
	c0.26,0,0.35-0.1,0.35-0.36v-2.54c0-0.29-0.09-0.38-0.38-0.38h-12.37c-0.22,0-0.34,0.1-0.34,0.3c0,0.9,0,1.79,0,2.69
	c-0.01,0.15,0.11,0.28,0.26,0.29c0.01,0,0.02,0,0.04,0c0.06,0,0.13,0,0.19,0L-7.37-22.59z"/>
<path id="Path_82" class="st0" d="M-7.35-20.95h6.21c0.75-0.04,1.39,0.54,1.43,1.3c0,0.04,0,0.08,0,0.12c0,0.89,0,1.78,0,2.66
	c0,0.76-0.6,1.37-1.36,1.38c-0.01,0-0.01,0-0.02,0h-12.49c-0.75,0.02-1.39-0.57-1.41-1.32c0-0.03,0-0.05,0-0.08
	c0-0.89,0-1.77,0-2.66c-0.02-0.75,0.58-1.38,1.33-1.4c0.02,0,0.04,0,0.07,0L-7.35-20.95z M-7.35-19.86h-6.2
	c-0.25,0-0.35,0.1-0.35,0.35c0,0.87,0,1.73,0,2.59c0,0.24,0.1,0.34,0.34,0.34h12.4c0.26,0,0.36-0.09,0.36-0.35c0-0.86,0-1.71,0-2.57
	c0-0.27-0.1-0.36-0.36-0.36L-7.35-19.86z"/>
<path id="Path_83" class="st0" d="M-10.08-12.76c0.3,0,0.54,0.25,0.54,0.55c0,0.3-0.25,0.54-0.55,0.54c-0.3,0-0.54-0.25-0.54-0.55
	c0,0,0,0,0,0C-10.63-12.52-10.38-12.76-10.08-12.76C-10.08-12.76-10.08-12.76-10.08-12.76z"/>
<path id="Path_84" class="st0" d="M-12.82-12.22c0-0.3,0.24-0.54,0.53-0.54c0,0,0.01,0,0.01,0c0.3,0,0.54,0.25,0.54,0.55
	c-0.01,0.3-0.25,0.54-0.55,0.54C-12.58-11.67-12.82-11.91-12.82-12.22C-12.82-12.21-12.82-12.22-12.82-12.22z"/>
<path id="Path_85" class="st0" d="M-9.53-24.24c0,0.3-0.23,0.55-0.54,0.55c0,0,0,0,0,0c-0.3,0-0.55-0.24-0.56-0.54
	c0-0.3,0.24-0.55,0.54-0.55C-9.79-24.78-9.54-24.54-9.53-24.24C-9.53-24.24-9.53-24.24-9.53-24.24z"/>
<path id="Path_86" class="st0" d="M-12.82-24.23c0-0.3,0.24-0.54,0.54-0.54c0,0,0,0,0.01,0c0.3,0,0.54,0.25,0.54,0.55
	c0,0.3-0.25,0.54-0.55,0.54C-12.58-23.69-12.82-23.93-12.82-24.23C-12.82-24.23-12.82-24.23-12.82-24.23z"/>
<path id="Path_87" class="st0" d="M-10.08-18.77c0.3,0,0.54,0.25,0.54,0.55c0,0.3-0.25,0.54-0.55,0.54c-0.3,0-0.54-0.25-0.54-0.55
	C-10.63-18.53-10.38-18.77-10.08-18.77C-10.08-18.77-10.08-18.77-10.08-18.77z"/>
<path id="Path_88" class="st0" d="M-12.29-17.68c-0.3-0.01-0.54-0.25-0.53-0.55c0,0,0,0,0,0c0-0.3,0.25-0.54,0.55-0.53c0,0,0,0,0,0
	c0.3,0.01,0.53,0.25,0.54,0.54C-11.73-17.92-11.98-17.67-12.29-17.68C-12.28-17.68-12.29-17.68-12.29-17.68z"/>
<g id="Group_262" transform="translate(-36.346 -159.702)">
	<g id="Group_261" transform="translate(36.346 159.702)">
		<path id="Path_73" class="st0" d="M7.82,8.23h-7.1c-0.33,0-0.43-0.1-0.43-0.43C0.27,6.09,0.83,4.43,1.87,3.07
			c0.82-1.06,1.94-1.84,3.22-2.25c1.95-0.68,4.08-0.6,5.97,0.21c1.99,0.82,3.48,2.54,3.99,4.64c0.19,0.7,0.29,1.43,0.29,2.16
			c0,0.31-0.11,0.42-0.41,0.42H7.82L7.82,8.23z M0.95,7.57c0.08,0,0.13,0.01,0.19,0.01h2.74c0.73,0,1.45,0,2.18-0.01
			c0.06,0,0.12-0.03,0.17-0.08c0.13-0.25,0.25-0.51,0.39-0.8L5.68,5.5C5.43,5.18,5.18,4.85,4.93,4.53c-0.09-0.1-0.11-0.25-0.05-0.37
			c0.04-0.12,0.16-0.19,0.29-0.18C5.29,4.01,5.4,4.08,5.48,4.17c0.55,0.69,1.09,1.39,1.63,2.09c0.04,0.08,0.15,0.12,0.23,0.08
			C8.2,6.07,9.1,6.55,9.37,7.4c0,0.01,0.01,0.02,0.01,0.03c0.01,0.1,0.1,0.17,0.2,0.15c0,0,0.01,0,0.01,0c1.64,0,3.28,0,4.92,0
			c0.06,0,0.12-0.01,0.18-0.01c0-0.04,0.01-0.06,0.01-0.08c-0.03-0.75-0.17-1.49-0.41-2.2c-0.5-1.51-1.59-2.76-3.01-3.48
			C9.69,1.04,7.91,0.83,6.2,1.2c-1.25,0.22-2.4,0.81-3.3,1.7C1.66,4.14,0.97,5.82,0.95,7.57L0.95,7.57z M8.71,7.57
			C8.58,7.18,8.22,6.92,7.82,6.92c-0.41,0-0.77,0.26-0.89,0.65H8.71z"/>
		<path id="Path_74" class="st0" d="M2.08,6.31c0.2,0.05,0.45,0.09,0.7,0.17c0.15,0.06,0.24,0.21,0.2,0.37
			C2.94,7,2.78,7.11,2.62,7.1C2.38,7.05,2.14,7,1.9,6.94C1.74,6.89,1.65,6.72,1.69,6.56C1.73,6.39,1.9,6.28,2.08,6.31z"/>
		<path id="Path_75" class="st0" d="M13.37,5.18c-0.06,0.09-0.13,0.17-0.21,0.23c-0.19,0.12-0.39,0.22-0.59,0.32
			c-0.15,0.08-0.34,0.03-0.43-0.12c0,0,0-0.01-0.01-0.01c-0.08-0.16-0.03-0.35,0.13-0.43c0,0,0,0,0,0c0.19-0.11,0.39-0.22,0.59-0.31
			c0.18-0.08,0.39,0,0.47,0.17C13.37,5.07,13.38,5.12,13.37,5.18z"/>
		<path id="Path_76" class="st0" d="M8.75,2.12C8.73,2.29,8.71,2.5,8.68,2.71C8.66,2.88,8.51,3.01,8.33,3c0,0,0,0,0,0
			c-0.18-0.01-0.31-0.17-0.3-0.35c0,0,0-0.01,0-0.01c0.02-0.21,0.04-0.4,0.07-0.6c0-0.18,0.14-0.33,0.33-0.33c0.01,0,0.03,0,0.04,0
			C8.65,1.72,8.76,1.87,8.75,2.12z"/>
		<path id="Path_77" class="st0" d="M6.17,2.95C6.16,3.17,6.08,3.28,5.94,3.33C5.8,3.38,5.64,3.32,5.57,3.19
			C5.46,2.95,5.36,2.71,5.28,2.46C5.24,2.32,5.32,2.17,5.45,2.12c0.12-0.08,0.28-0.06,0.37,0.06C5.97,2.44,6.07,2.73,6.17,2.95z"/>
		<path id="Path_78" class="st0" d="M11.05,2.68c0.29,0,0.47,0.26,0.35,0.46c-0.13,0.22-0.27,0.42-0.42,0.62
			c-0.11,0.13-0.29,0.15-0.43,0.05c-0.14-0.1-0.18-0.29-0.09-0.44c0.12-0.19,0.24-0.38,0.38-0.55C10.91,2.77,10.98,2.72,11.05,2.68z
			"/>
		<path id="Path_79" class="st0" d="M4.14,4.53C4.07,4.62,4.01,4.74,3.93,4.77C3.82,4.82,3.7,4.81,3.6,4.76
			C3.4,4.62,3.22,4.47,3.05,4.3C2.93,4.18,2.92,3.99,3.03,3.87c0.1-0.13,0.29-0.16,0.43-0.06c0.19,0.15,0.38,0.31,0.56,0.48
			C4.07,4.36,4.11,4.44,4.14,4.53z"/>
	</g>
</g>
<g id="Group_266" transform="translate(4429.819 876.774)">
	<path id="Path_100" class="st0" d="M-4375.86-873.8c0.02-3.25,2.67-5.88,5.92-5.87c3.24,0.03,5.86,2.67,5.86,5.91
		c-0.02,3.25-2.65,5.87-5.9,5.87C-4373.23-867.91-4375.85-870.55-4375.86-873.8z M-4364.87-873.78c-0.02-2.81-2.3-5.08-5.11-5.09
		c-2.8,0.01-5.07,2.29-5.08,5.09c0,2.81,2.28,5.1,5.09,5.1C-4367.15-868.69-4364.87-870.97-4364.87-873.78L-4364.87-873.78z"/>
	<path id="Path_101" class="st0" d="M-4368.3-874.96c-0.18,0.58-0.37,1.16-0.55,1.74c-0.2,0.64-0.4,1.28-0.6,1.92
		c-0.03,0.19-0.19,0.33-0.38,0.34c-0.22,0.01-0.33-0.12-0.4-0.3c-0.41-0.92-0.81-1.83-1.22-2.75c-0.04-0.08-0.07-0.16-0.14-0.29
		c-0.14,0.17-0.27,0.36-0.38,0.55c-0.18,0.46-0.67,0.71-1.14,0.59c-0.24-0.02-0.49-0.02-0.73-0.01c-0.26-0.01-0.42-0.15-0.43-0.36
		s0.15-0.39,0.42-0.39c0.29-0.01,0.58,0.02,0.86-0.01c0.13-0.02,0.25-0.08,0.33-0.18c0.27-0.37,0.51-0.75,0.75-1.13
		c0.1-0.16,0.24-0.3,0.42-0.23c0.15,0.06,0.27,0.17,0.34,0.31c0.38,0.8,0.73,1.62,1.09,2.43c0.03,0.08,0.07,0.15,0.14,0.29
		c0.06-0.16,0.1-0.26,0.13-0.36c0.37-1.16,0.73-2.33,1.1-3.49c0.06-0.2,0.15-0.36,0.38-0.36c0.25-0.01,0.34,0.17,0.42,0.37
		c0.26,0.72,0.52,1.44,0.77,2.17c0.02,0.13,0.15,0.22,0.28,0.2c0.23-0.01,0.47-0.01,0.71,0c0.2-0.02,0.37,0.13,0.39,0.33
		c0,0.01,0,0.02,0,0.04c0,0.2-0.17,0.37-0.37,0.37c-0.01,0-0.02,0-0.02,0c-0.38,0.01-0.77,0-1.15,0c-0.19,0.02-0.36-0.11-0.41-0.29
		c-0.15-0.41-0.3-0.82-0.45-1.23c-0.03-0.09-0.07-0.17-0.1-0.26L-4368.3-874.96z"/>
</g>
</svg>
