<?xml version="1.0" encoding="utf-8"?>
<!-- Generator: Adobe Illustrator 24.0.0, SVG Export Plug-In . SVG Version: 6.00 Build 0)  -->
<svg version="1.1" id="Capa_1" xmlns="http://www.w3.org/2000/svg" xmlns:xlink="http://www.w3.org/1999/xlink" x="0px" y="0px"
	 viewBox="0 0 20.8 19.9" style="enable-background:new 0 0 20.8 19.9;" xml:space="preserve">
<style type="text/css">
	.st0{fill:#FDB25B;}
</style>
<g id="Group_340" transform="translate(-57 -450.407)">
	<path id="Path_190" class="st0" d="M65.8,451.9H69v0.5h1.2v-0.6c0-0.6-0.5-1.1-1.1-1.1h-3.4c-0.6,0-1.1,0.5-1.1,1.1v0.6h1.2V451.9z
		"/>
	<path id="Path_191" class="st0" d="M72.9,457H61.9c-0.3,0-0.5,0.2-0.5,0.5c0,0,0,0,0,0l0.9,11.3c0.1,0.6,0.6,1.1,1.2,1.1h7.7
		c0.6,0,1.2-0.5,1.2-1.1l0.9-11.3C73.4,457.3,73.2,457.1,72.9,457C72.9,457,72.9,457,72.9,457z M64.6,468.8L64.6,468.8
		c-0.3,0-0.6-0.2-0.6-0.5l-0.6-9.3c0-0.3,0.2-0.6,0.5-0.6c0.3,0,0.6,0.2,0.6,0.5l0.6,9.3C65.2,468.5,64.9,468.8,64.6,468.8
		C64.6,468.8,64.6,468.8,64.6,468.8z M68,468.2c0,0.3-0.3,0.6-0.6,0.6c-0.3,0-0.6-0.3-0.6-0.6v-9.3c0-0.3,0.3-0.6,0.6-0.6
		c0.3,0,0.6,0.3,0.6,0.6V468.2z M71.4,459l-0.5,9.3c0,0.3-0.3,0.5-0.6,0.5h0c-0.3,0-0.6-0.3-0.6-0.6c0,0,0,0,0,0l0.5-9.3
		c0-0.3,0.3-0.6,0.6-0.5C71.2,458.4,71.4,458.7,71.4,459L71.4,459z"/>
	<path id="Path_192" class="st0" d="M74.9,455.2l-0.4-1.1c-0.1-0.3-0.4-0.5-0.7-0.5H61c-0.3,0-0.6,0.2-0.7,0.5l-0.4,1.1
		c-0.1,0.3,0.1,0.5,0.3,0.6c0,0,0.1,0,0.2,0h14c0.3,0,0.5-0.2,0.5-0.5C74.9,455.3,74.9,455.3,74.9,455.2L74.9,455.2z"/>
</g>
</svg>
