<svg xmlns="http://www.w3.org/2000/svg" width="16.904" height="16.904" viewBox="0 0 16.904 16.904">
  <g id="Group_345" data-name="Group 345" transform="translate(0 0)">
    <path id="Path_198" data-name="Path 198" d="M15.671,490.89H1.232A1.233,1.233,0,0,0,0,492.122v1.761a1.233,1.233,0,0,0,1.232,1.232H15.671a1.233,1.233,0,0,0,1.232-1.232v-1.761A1.233,1.233,0,0,0,15.671,490.89Z" transform="translate(0 -490.89)" fill="#fdb25b"/>
    <path id="Path_199" data-name="Path 199" d="M15.671,506.722H1.232A1.234,1.234,0,0,0,0,507.955v1.761a1.233,1.233,0,0,0,1.232,1.232H15.671a1.233,1.233,0,0,0,1.232-1.232v-1.761A1.234,1.234,0,0,0,15.671,506.722Z" transform="translate(0 -494.045)" fill="#fdb25b"/>
    <path id="Path_200" data-name="Path 200" d="M.528,500.742H10.741a.528.528,0,0,0,0-1.056H.528a.528.528,0,1,0,0,1.056Z" transform="translate(0 -492.643)" fill="#fdb25b"/>
    <path id="Path_201" data-name="Path 201" d="M.528,503.381H10.741a.529.529,0,0,0,0-1.057H.528a.529.529,0,0,0,0,1.057Z" transform="translate(0 -493.168)" fill="#fdb25b"/>
    <ellipse id="Ellipse_36" data-name="Ellipse 36" cx="2.113" cy="2.113" rx="2.113" ry="2.113" transform="translate(12.678 6.339)" fill="#fdb25b"/>
  </g>
</svg>
