<?xml version="1.0" encoding="utf-8"?>
<!-- Generator: Adobe Illustrator 24.0.0, SVG Export Plug-In . SVG Version: 6.00 Build 0)  -->
<svg version="1.1" id="bold" xmlns="http://www.w3.org/2000/svg" xmlns:xlink="http://www.w3.org/1999/xlink" x="0px" y="0px"
	 viewBox="0 0 39 41" style="enable-background:new 0 0 39 41;" xml:space="preserve">
<style type="text/css">
	.st0{fill:#FBB25C;}
</style>
<g>
	<path class="st0" d="M26.6,38.1c-0.2-0.1-0.5-0.2-0.7-0.3c-0.7-0.4-1.1-1.1-1.1-1.9c0-1.5,0-2.9,0-4.4c-6.5,0-13,0-19.5,0
		c0-8.6,0-17.2,0-25.9c3.3,0,6.7,0,10,0c-0.1,0.4-0.2,0.9-0.2,1.3c-0.4,3.9,2,7.7,5.7,9c2,0.7,4,0.7,6-0.1c0.2-0.1,0.3-0.1,0.4,0.1
		c0.5,0.6,1.1,1.1,1.7,1.7c0.1,0.1,0.2,0.3,0.2,0.5c0,6,0,11.9,0,17.9c0,1.1-0.6,1.9-1.7,2.2c0,0-0.1,0-0.1,0.1
		C27.1,38.1,26.8,38.1,26.6,38.1z M24.8,20.7c0-0.7,0-1.4,0-2.1c-5.1,0-10.1,0-15.1,0c0,0.7,0,1.4,0,2.1
		C14.7,20.7,19.7,20.7,24.8,20.7z M24.8,22.9c-5.1,0-10.1,0-15.1,0c0,0.7,0,1.4,0,2.1c5.1,0,10.1,0,15.1,0
		C24.8,24.3,24.8,23.6,24.8,22.9z M24.8,29.3c0-0.7,0-1.4,0-2.1c-5.1,0-10.1,0-15.1,0c0,0.7,0,1.4,0,2.1
		C14.7,29.3,19.7,29.3,24.8,29.3z M16.2,14.3c-2.2,0-4.3,0-6.5,0c0,0.7,0,1.4,0,2.1c2.2,0,4.3,0,6.5,0C16.2,15.7,16.2,15,16.2,14.3z
		 M9.7,12c1.5,0,2.9,0,4.3,0c0-0.7,0-1.4,0-2.1c-1.5,0-2.9,0-4.3,0C9.7,10.6,9.7,11.3,9.7,12z"/>
	<path class="st0" d="M0.9,33.6c7.2,0,14.4,0,21.7,0c0.1,1.5-0.2,3.1,0.6,4.5c-6.5,0-13,0-19.5,0c-0.1,0-0.2-0.1-0.3-0.1
		c-1.2-0.3-2-1-2.4-2.2C1,35.7,1,35.5,0.9,35.3C0.9,34.7,0.9,34.2,0.9,33.6z"/>
	<path class="st0" d="M30.2,7.8c0,3.6-2.9,6.5-6.5,6.5c-3.6,0-6.5-2.9-6.5-6.5c0-3.6,2.9-6.5,6.5-6.4C27.3,1.3,30.2,4.2,30.2,7.8z"
		/>
	<path class="st0" d="M29.1,14.6c0.5-0.5,1-1,1.4-1.4c2.3,2.3,4.7,4.7,7.1,7.1c-0.5,0.5-1,1-1.4,1.4C33.9,19.3,31.5,16.9,29.1,14.6z
		"/>
</g>
</svg>
