<?xml version="1.0" encoding="utf-8"?>
<!-- Generator: Adobe Illustrator 24.0.0, SVG Export Plug-In . SVG Version: 6.00 Build 0)  -->
<svg version="1.1" id="bold" xmlns="http://www.w3.org/2000/svg" xmlns:xlink="http://www.w3.org/1999/xlink" x="0px" y="0px"
	 viewBox="0 0 39 41" style="enable-background:new 0 0 39 41;" xml:space="preserve">
<style type="text/css">
	.st0{fill:#FBB25C;}
</style>
<g>
	<path class="st0" d="M27.6,27.9c-1.1,0.4-2.1,0.8-3,1.1c-4.9,1.4-9.6,0.7-14.1-1.6c-3.8-1.9-7-4.4-9.8-7.5c-0.7-0.8-0.7-1.4,0-2.2
		c3.7-4,8-7.2,13.3-8.9c4.8-1.6,9.4-1.1,13.9,1c4.1,1.9,7.7,4.6,10.8,8c0.6,0.6,0.6,1.3,0.1,1.9c-1.8,2.1-3.9,3.8-6.1,5.4
		c-0.7-0.5-1.4-1-2-1.4c1.9-1.6,3.8-3.1,5.8-4.8c-0.4-0.3-0.6-0.4-0.9-0.6c-3.3-3.2-7-5.6-11.4-7c-3-1-6-1-9-0.1
		c-4.8,1.5-8.8,4.1-12.3,7.7C3.4,19.4,4,20,4.6,20.5c3.5,3.2,7.6,5.4,12.2,6.4c2.6,0.6,5.2,0.2,7.7-0.7c0.4-0.1,0.7-0.1,1,0.1
		C26.1,26.9,26.8,27.4,27.6,27.9z"/>
	<path class="st0" d="M25.8,22.3c0.4,0.3,0.8,0.6,1.2,0.8c0.1,0.1,0.2,0.1,0.3,0.1c0.5-0.3,0.8,0,1.2,0.3c1.9,1.4,3.9,2.8,5.9,4.2
		c0.5,0.4,0.6,0.7,0.3,1.2c-0.2,0.3-0.4,0.6-0.6,0.9c-0.6,0.6-0.9,0.7-1.6,0.2c-2-1.4-4-2.8-5.9-4.2c-0.3-0.2-0.5-0.4-0.4-0.8
		c0-0.1-0.1-0.3-0.1-0.4c-0.4-0.3-0.7-0.5-1.1-0.8c-3.4,3.3-7.9,2.6-10.4,0.1c-2.6-2.6-2.8-6.7-0.6-9.5c2.3-2.9,6.3-3.6,9.4-1.7
		C26,14.3,27.9,18.5,25.8,22.3z M19.5,24.1c2.9,0,5.2-2.4,5.2-5.2c0-2.9-2.3-5.2-5.2-5.2c-2.9,0-5.3,2.3-5.3,5.1
		C14.3,21.7,16.6,24,19.5,24.1z"/>
	<path class="st0" d="M22,18.9c0,1.5-1.1,2.6-2.6,2.5c-1.4,0-2.5-1.3-2.5-2.7c0-1.4,1.2-2.5,2.5-2.5C20.9,16.3,22.1,17.4,22,18.9z"
		/>
</g>
</svg>
