<?xml version="1.0" encoding="utf-8"?>
<!-- Generator: Adobe Illustrator 24.0.0, SVG Export Plug-In . SVG Version: 6.00 Build 0)  -->
<svg version="1.1" id="Layer_1" xmlns="http://www.w3.org/2000/svg" xmlns:xlink="http://www.w3.org/1999/xlink" x="0px" y="0px"
	 viewBox="0 0 14.7 13.7" style="enable-background:new 0 0 14.7 13.7;" xml:space="preserve">
<style type="text/css">
	.st0{fill:#FA9351;}
</style>
<g id="Group_1387" transform="translate(-14.669 6.319)">
	<path id="Path_757" class="st0" d="M15.7,0.9V0.1c0,0,0-0.1,0-0.1c0-0.3,0.1-0.6,0.1-0.9c0.8-3.4,4.2-5.6,7.6-4.9
		c0.1,0,0.1,0,0.2,0.1c3.3,0.8,5.3,4.1,4.7,7.4c-0.5,2.6-2.6,4.6-5.2,5c-0.2,0-0.5,0.1-0.7,0.1h-0.8c0,0-0.1,0-0.1,0
		c-0.5,0-1.1-0.1-1.6-0.3c-2.2-0.7-3.8-2.6-4.2-4.9C15.7,1.4,15.7,1.1,15.7,0.9z M22.6,1L22.6,1l0-2.9c0-0.6,0-1.2,0-1.8
		c0-0.3-0.2-0.5-0.5-0.5c0,0,0,0,0,0c-0.3,0-0.5,0.2-0.5,0.5c0,0,0,0,0,0.1c0,1.5,0,3,0,4.4v0.2C21.5,1,21.4,1,21.4,0.9
		c-0.4-0.3-0.7-0.7-1-1c-0.2-0.2-0.5-0.2-0.7-0.1c0,0,0,0,0,0c-0.2,0.2-0.2,0.5,0,0.8c0,0,0,0,0,0c0.7,0.7,1.4,1.4,2,2
		c0.2,0.2,0.5,0.3,0.7,0.1c0,0,0,0,0.1-0.1c0.7-0.7,1.4-1.3,2-2c0.2-0.2,0.2-0.5,0-0.8c0,0,0,0,0,0c-0.2-0.2-0.5-0.2-0.8,0
		c0,0,0,0,0,0c-0.3,0.3-0.5,0.5-0.8,0.8C22.8,0.8,22.7,0.9,22.6,1z M22,4.6c0.7,0,1.4,0,2.1,0c0.3,0,0.5-0.2,0.6-0.5
		c0-0.3-0.2-0.5-0.5-0.6c0,0,0,0,0,0c-1.4,0-2.8,0-4.2,0c-0.1,0-0.3,0.1-0.4,0.1c-0.2,0.1-0.2,0.4-0.1,0.6c0.1,0.2,0.3,0.4,0.5,0.4
		C20.6,4.6,21.3,4.6,22,4.6L22,4.6z"/>
</g>
</svg>
