<?xml version="1.0" encoding="utf-8"?>
<!-- Generator: Adobe Illustrator 24.0.0, SVG Export Plug-In . SVG Version: 6.00 Build 0)  -->
<svg version="1.1" id="Capa_1" xmlns="http://www.w3.org/2000/svg" xmlns:xlink="http://www.w3.org/1999/xlink" x="0px" y="0px"
	 viewBox="0 0 20.8 19.9" style="enable-background:new 0 0 20.8 19.9;" xml:space="preserve">
<style type="text/css">
	.st0{fill:#FDB25B;}
</style>
<g>
	<path class="st0" d="M4.9,19.1c0-0.2,0-0.4,0-0.7c0.2,0,0.5,0,0.7,0c0,0.2,0,0.4,0,0.7C5.4,19.1,5.1,19.1,4.9,19.1z"/>
	<path class="st0" d="M9,19.1c0-0.2,0-0.4,0-0.7c0.2,0,0.5,0,0.7,0c0,0.2,0,0.4,0,0.7C9.5,19.1,9.2,19.1,9,19.1z"/>
	<path class="st0" d="M6.3,19.1c0-0.2,0-0.4,0-0.7c0.2,0,0.4,0,0.7,0c0,0.2,0,0.4,0,0.7C6.7,19.1,6.5,19.1,6.3,19.1z"/>
	<path class="st0" d="M7.7,19.1c0-0.2,0-0.4,0-0.7c0.2,0,0.4,0,0.7,0c0,0.2,0,0.4,0,0.7C8.1,19.1,7.9,19.1,7.7,19.1z"/>
	<path class="st0" d="M10.4,19.1c0-0.2,0-0.4,0-0.7c0.2,0,0.4,0,0.7,0c0,0.2,0,0.4,0,0.7C10.8,19.1,10.6,19.1,10.4,19.1z"/>
	<path class="st0" d="M11.7,19.1c0-0.2,0-0.4,0-0.7c0.2,0,0.4,0,0.7,0c0,0.2,0,0.4,0,0.7C12.2,19.1,12,19.1,11.7,19.1z"/>
	<path class="st0" d="M13.1,19.1c0-0.2,0-0.4,0-0.7c0.2,0,0.5,0,0.7,0c0.1,0.4,0,0.5-0.2,0.7C13.4,19.1,13.2,19.1,13.1,19.1z"/>
	<path class="st0" d="M3.8,19.1c-0.3-0.2-0.3-0.3-0.2-0.7c0.2,0,0.4,0,0.7,0c0,0.2,0,0.4,0,0.7C4.1,19.1,3.9,19.1,3.8,19.1z"/>
	<path class="st0" d="M8.3,1.1c1.7,0,3.4,0,5.1,0c0,0.1,0,0.1,0,0.2c0,1,0,2.1,0,3.1c0,0.4,0.1,0.5,0.5,0.5c1,0,2,0,3.1,0
		c0.1,0,0.1,0,0.2,0c0,3.2,0,6.4,0,9.5c-2.9,0-5.9,0-8.8,0C8.3,9.9,8.3,5.5,8.3,1.1z M15.1,8.6c0-1.3-1.1-2.4-2.4-2.4
		c-1.3,0-2.4,1.1-2.4,2.4c0,1.3,1.1,2.4,2.4,2.4C14.1,10.9,15.1,9.9,15.1,8.6z"/>
	<path class="st0" d="M6.3,3.1c0.5,0,0.9,0,1.4,0c0,0.1,0,0.2,0,0.2c0,3.7,0,7.5,0,11.2c0,0.4,0.1,0.5,0.5,0.5c2.3,0,4.5,0,6.8,0
		c0.1,0,0.1,0,0.2,0c0,0.5,0,0.9,0,1.4c-2.9,0-5.9,0-8.8,0C6.3,12,6.3,7.5,6.3,3.1z"/>
	<path class="st0" d="M14.2,1.6c0.8,0.8,1.7,1.7,2.5,2.6c-0.9,0-1.7,0-2.6,0C14.1,3.3,14.1,2.4,14.2,1.6C14.1,1.6,14.2,1.6,14.2,1.6
		z"/>
	<path class="st0" d="M3.6,6.5c0-0.2,0-0.4,0-0.7c0.2,0,0.4,0,0.7,0c0,0.2,0,0.4,0,0.7C4,6.5,3.8,6.5,3.6,6.5z"/>
	<path class="st0" d="M4.2,7.3c0,0.2,0,0.4,0,0.7c-0.2,0-0.4,0-0.7,0c0-0.2,0-0.4,0-0.7C3.8,7.3,4,7.3,4.2,7.3z"/>
	<path class="st0" d="M3.6,8.7c0.2,0,0.4,0,0.7,0c0,0.2,0,0.4,0,0.7c-0.2,0-0.4,0-0.7,0C3.6,9.1,3.6,8.9,3.6,8.7z"/>
	<path class="st0" d="M4.2,10.1c0,0.2,0,0.4,0,0.7c-0.2,0-0.4,0-0.7,0c0-0.2,0-0.4,0-0.7C3.8,10.1,4,10.1,4.2,10.1z"/>
	<path class="st0" d="M3.6,12.1c0-0.2,0-0.4,0-0.7c0.2,0,0.4,0,0.7,0c0,0.2,0,0.4,0,0.7C4,12.1,3.8,12.1,3.6,12.1z"/>
	<path class="st0" d="M3.6,12.9c0.2,0,0.4,0,0.7,0c0,0.2,0,0.4,0,0.7c-0.2,0-0.4,0-0.7,0C3.6,13.3,3.6,13.1,3.6,12.9z"/>
	<path class="st0" d="M4.2,14.3c0,0.2,0,0.4,0,0.7c-0.2,0-0.4,0-0.7,0c0-0.2,0-0.4,0-0.7C3.8,14.3,4,14.3,4.2,14.3z"/>
	<path class="st0" d="M3.6,15.7c0.2,0,0.4,0,0.7,0c0,0.2,0,0.4,0,0.7c-0.2,0-0.4,0-0.7,0C3.6,16.1,3.6,15.9,3.6,15.7z"/>
	<path class="st0" d="M3.6,17.7c0-0.2,0-0.4,0-0.7c0.2,0,0.4,0,0.7,0c0,0.2,0,0.4,0,0.7C4,17.7,3.8,17.7,3.6,17.7z"/>
	<path class="st0" d="M13.8,18.1c-0.2,0-0.4,0-0.7,0c0-0.2,0-0.4,0-0.7c0.2,0,0.4,0,0.7,0C13.8,17.7,13.8,17.9,13.8,18.1z"/>
	<path class="st0" d="M5.2,5.1c-0.2,0-0.4,0-0.6,0c0-0.2,0-0.4,0-0.7c0.2,0,0.4,0,0.6,0C5.2,4.7,5.2,4.9,5.2,5.1z"/>
	<path class="st0" d="M4.2,5.1c-0.2,0-0.4,0-0.6,0C3.4,4.6,3.7,4.4,4.2,4.5c0,0,0,0.1,0,0.1C4.2,4.8,4.2,4.9,4.2,5.1z"/>
	<path class="st0" d="M14.5,8.6c0,0.9-0.8,1.7-1.7,1.7c-0.9,0-1.7-0.8-1.7-1.7c0-0.9,0.8-1.7,1.7-1.7C13.7,6.8,14.5,7.6,14.5,8.6z
		 M12.4,7.5c0,0.2,0,0.4,0,0.7c-0.2,0-0.4,0-0.7,0c0,0.2,0,0.4,0,0.7c0.2,0,0.4,0,0.7,0c0,0.2,0,0.4,0,0.7c0.2,0,0.4,0,0.7,0
		c0-0.2,0-0.4,0-0.7c0.2,0,0.4,0,0.7,0c0-0.2,0-0.4,0-0.7c-0.2,0-0.4,0-0.7,0c0-0.2,0-0.4,0-0.7C12.9,7.5,12.7,7.5,12.4,7.5z"/>
</g>
</svg>
