<svg xmlns="http://www.w3.org/2000/svg" width="17.642" height="17.639" viewBox="0 0 17.642 17.639">
  <g id="Group_344" data-name="Group 344" transform="translate(0 0)">
    <path id="Path_195" data-name="Path 195" d="M-654.205,695.71c.039-.143.07-.287.117-.427a2.2,2.2,0,0,1,2.146-1.5q3.255,0,6.51,0h3.339c-.054.059-.087.1-.125.138q-.974.975-1.947,1.951a.365.365,0,0,1-.285.119q-3.66,0-7.319,0H-652v.187q0,5.916,0,11.832a1.117,1.117,0,0,0,1.214,1.209h10.781a1.123,1.123,0,0,0,1.233-1.243q0-3.134,0-6.269a.458.458,0,0,1,.152-.358c.677-.67,1.349-1.345,2.046-2.042,0,.08.01.133.01.186,0,2.848-.01,5.695,0,8.542a3.323,3.323,0,0,1-2.889,3.358.325.325,0,0,0-.077.031h-11.713a.611.611,0,0,0-.094-.032,3.243,3.243,0,0,1-2.67-2.172,6.926,6.926,0,0,1-.2-.758Z" transform="translate(654.205 -693.78)" fill="#fdb25b"/>
    <path id="Path_196" data-name="Path 196" d="M-628.918,704.757l-3.112-3.112c.033-.035.069-.077.109-.116l7.427-7.426a2.09,2.09,0,0,1,.2-.185.568.568,0,0,1,.792.048q1.13,1.123,2.254,2.251a.584.584,0,0,1,.041.821,1.617,1.617,0,0,1-.128.139l-7.475,7.476C-628.843,704.688-628.881,704.723-628.918,704.757Z" transform="translate(638.667 -693.779)" fill="#fdb25b"/>
    <path id="Path_197" data-name="Path 197" d="M-634.316,725.8l-4.364,1.091,1.09-4.365Z" transform="translate(643.326 -713.92)" fill="#fdb25b"/>
  </g>
</svg>
