<?xml version="1.0" encoding="utf-8"?>
<!-- Generator: Adobe Illustrator 24.0.0, SVG Export Plug-In . SVG Version: 6.00 Build 0)  -->
<svg version="1.1" id="Layer_1" xmlns="http://www.w3.org/2000/svg" xmlns:xlink="http://www.w3.org/1999/xlink" x="0px" y="0px"
	 viewBox="0 0 13 13.3" style="enable-background:new 0 0 13 13.3;" xml:space="preserve">
<style type="text/css">
	.st0{fill:#FDB25B;}
</style>
<g>
	<g id="Group_1342" transform="translate(-783.881 -684.006)">
		<path id="Path_697" class="st0" d="M784.5,690.6c0-3.2,2.6-5.8,5.8-5.8s5.8,2.6,5.8,5.8c0,3.2-2.6,5.8-5.8,5.8c0,0,0,0-0.1,0
			C787.1,696.4,784.5,693.8,784.5,690.6z M790.4,685.9c-2.6,0-4.8,2.1-4.8,4.8c0,2.6,2.1,4.8,4.8,4.8c2.6,0,4.8-2.1,4.8-4.7
			C795.1,688,793,685.9,790.4,685.9C790.4,685.9,790.4,685.9,790.4,685.9L790.4,685.9z"/>
		<path id="Path_698" class="st0" d="M789.9,691.5l0.5-0.5c0.8-0.7,1.5-1.4,2.3-2.1c0.1-0.1,0.3-0.2,0.4-0.2c0.3,0,0.5,0.3,0.5,0.6
			c0,0.1-0.1,0.3-0.2,0.3c-0.5,0.4-1,0.9-1.5,1.3c-0.6,0.5-1.1,1-1.7,1.5c-0.1,0.1-0.2,0.1-0.3,0.2c-0.2,0-0.3,0-0.5-0.1
			c-0.5-0.5-1.1-1.1-1.6-1.6c-0.2-0.2-0.2-0.5,0-0.7s0.5-0.2,0.7,0C789,690.7,789.4,691,789.9,691.5
			C789.8,691.4,789.8,691.5,789.9,691.5z"/>
	</g>
</g>
</svg>
