<?xml version="1.0" encoding="utf-8"?>
<!-- Generator: Adobe Illustrator 24.0.0, SVG Export Plug-In . SVG Version: 6.00 Build 0)  -->
<svg version="1.1" xmlns="http://www.w3.org/2000/svg" xmlns:xlink="http://www.w3.org/1999/xlink" x="0px" y="0px"
	 viewBox="0 0 14 19.3" style="enable-background:new 0 0 14 19.3;" xml:space="preserve">
<style type="text/css">
	.st0{fill:#FDB25B;}
	.st1{display:none;}
	.st2{display:inline;}
</style>
<g id="Layer_1">
	<g>
		<g>
			<path class="st0" d="M14.1,4.7c0-0.1,0-0.2-0.1-0.2l-3.7-4.2c0,0,0,0,0,0c0,0,0,0-0.1-0.1c0,0,0,0,0,0c0,0,0,0-0.1,0c0,0,0,0,0,0
				c0,0-0.1,0-0.1,0H1c-0.4,0-0.8,0.3-0.8,0.8v17.7c0,0.4,0.3,0.8,0.8,0.8h12.4c0.4,0,0.8-0.3,0.8-0.8L14.1,4.7
				C14.1,4.7,14.1,4.7,14.1,4.7z M4.6,18.3l-0.4-0.8c-0.2-0.3-0.3-0.6-0.4-0.8h0c-0.1,0.3-0.2,0.5-0.4,0.8L3,18.3H1.8l1.3-2.4
				l-1.3-2.3H3l0.4,0.9c0.1,0.3,0.2,0.5,0.4,0.8h0c0.1-0.3,0.2-0.5,0.3-0.8l0.4-0.9h1.2l-1.3,2.3l1.4,2.4H4.6z M9.3,18.3H6.4v-4.7
				h1.1v3.8h1.9L9.3,18.3L9.3,18.3z M11,18.3c-0.5,0-1.1-0.1-1.3-0.3l0.2-0.9c0.3,0.1,0.7,0.3,1.2,0.3c0.5,0,0.7-0.2,0.7-0.5
				c0-0.3-0.2-0.5-0.8-0.7c-0.8-0.3-1.3-0.7-1.3-1.4c0-0.8,0.7-1.4,1.8-1.4c0.5,0,0.9,0.1,1.2,0.2l-0.2,0.9c-0.2-0.1-0.5-0.2-1-0.2
				c-0.5,0-0.7,0.2-0.7,0.4c0,0.3,0.3,0.4,0.9,0.7c0.8,0.3,1.2,0.7,1.2,1.4C12.9,17.7,12.3,18.3,11,18.3z M1,12.8v-12h8.7v3.8
				C9.7,4.9,9.8,5,10.1,5h3.3l0,7.8H1z"/>
			<path class="st0" d="M8.3,4.9H5.4H2.1v1.4v0.2v1.2v0.2v1.2v0.2v1.4h3.1h0.2h2.9h0.2h3.1V9.1V7.9V6.5V6.3V4.9H8.3z M8.3,7.7H5.4
				V6.5h2.9V7.7z M2.2,5.1h2.9v1.2H2.2V5.1z M2.2,6.5h2.9v1.2H2.2V6.5z M2.2,7.9h2.9v1.2H2.2V7.9z M2.2,10.5V9.3h2.9v1.2H2.2z
				 M5.4,10.5V9.3h2.9v1.2H5.4z M11.4,10.5H8.5V9.3h2.9V10.5z M11.4,7.7H8.5V6.5h2.9V7.7z M8.5,6.3V5.1h2.9v1.2H8.5z"/>
		</g>
	</g>
</g>
<g id="Layer_2" class="st1">
	<g class="st2">
		<g>
			<path class="st0" d="M6.7,14.5c-0.2,0-0.4,0-0.5,0v3c0.1,0,0.2,0,0.4,0c0.9,0,1.6-0.5,1.6-1.6C8.2,15,7.6,14.5,6.7,14.5z"/>
			<path class="st0" d="M2.7,14.5c-0.2,0-0.4,0-0.4,0v1.4c0.1,0,0.2,0,0.3,0c0.6,0,0.9-0.3,0.9-0.7C3.5,14.8,3.2,14.5,2.7,14.5z"/>
			<path class="st0" d="M14,4.6c0-0.1,0-0.2-0.1-0.2l-3.7-4.3c0,0,0,0,0,0c0,0,0,0-0.1-0.1c0,0,0,0,0,0c0,0,0,0-0.1,0c0,0,0,0,0,0
				c0,0-0.1,0-0.1,0H0.8C0.3,0,0,0.3,0,0.8v17.8c0,0.4,0.3,0.8,0.8,0.8h12.5c0.4,0,0.8-0.3,0.8-0.8L14,4.6C14,4.7,14,4.6,14,4.6z
				 M4.1,16.3c-0.4,0.3-0.9,0.5-1.5,0.5c-0.1,0-0.3,0-0.4,0v1.6h-1v-4.5c0.3-0.1,0.8-0.1,1.4-0.1c0.6,0,1.1,0.1,1.4,0.4
				c0.3,0.2,0.5,0.6,0.5,1.1C4.5,15.6,4.4,16,4.1,16.3z M8.5,17.8c-0.5,0.4-1.2,0.6-2.1,0.6c-0.5,0-0.9,0-1.2-0.1v-4.5
				c0.4-0.1,0.9-0.1,1.4-0.1c0.9,0,1.4,0.2,1.9,0.5C9,14.6,9.3,15.1,9.3,16C9.3,16.8,8.9,17.4,8.5,17.8z M12.8,14.6H11v1h1.6v0.8H11
				v1.8h-1v-4.6h2.8V14.6z M0.8,12.9V0.8h8.8v3.9C9.5,4.8,9.7,5,9.9,5h3.3l0,7.8H0.8z"/>
			<path class="st0" d="M10.9,8.1c0,0-0.6-0.1-1.4-0.1c-0.3,0-0.5,0-0.8,0C7.1,6.9,5.8,5.7,5.1,5c0-0.1,0-0.1,0-0.2
				c0.1-1,0-1.7-0.3-2C4.6,2.6,4.3,2.5,4,2.6c-0.2,0-0.5,0.2-0.6,0.6C3.3,3.6,3.5,4.1,4,4.7c0,0,0.2,0.2,0.5,0.5
				c-0.2,1-0.7,3.1-1,4.1C2.9,9.6,2.4,10,2,10.5l0,0l0,0c0,0.1-0.2,0.5-0.1,0.9c0.1,0.2,0.2,0.3,0.4,0.3l0,0c0,0,0,0,0.1,0
				c0.3,0,1.1-0.2,1.5-1.7L4,9.7c1.5-0.7,3.3-0.9,4.6-1c0.7,0.5,1.4,1,2,1.4l0,0c0,0,0.3,0.2,0.7,0.2l0,0c0.5,0,0.8-0.3,1-0.8l0,0
				c0-0.3,0-0.6-0.2-0.8C11.6,8.2,10.9,8.1,10.9,8.1z M2.4,11.2C2.4,11.2,2.4,11.2,2.4,11.2c0-0.1,0-0.3,0.1-0.4
				c0.2-0.3,0.5-0.5,0.9-0.7C2.9,11.1,2.5,11.2,2.4,11.2z M4.4,4.3L4.4,4.3C3.9,3.8,3.9,3.5,3.9,3.4c0-0.2,0.2-0.2,0.2-0.2
				c0.1,0,0.2,0,0.2,0c0.1,0.1,0.2,0.5,0.2,1.3C4.5,4.4,4.4,4.3,4.4,4.3z M4.1,9L4.1,9L4.1,9C4.4,8,4.7,6.6,5,5.6l0,0l0,0
				c0.7,0.6,1.7,1.5,2.9,2.5l0,0l0,0C6.7,8.2,5.3,8.5,4.1,9z M11.7,9.3c-0.1,0.3-0.3,0.4-0.4,0.4l0,0c-0.2,0-0.4-0.1-0.4-0.1
				C10.4,9.3,10,9,9.5,8.7c0,0,0,0,0,0c0.8,0,1.3,0,1.3,0c0.1,0,0.5,0.1,0.7,0.3C11.6,9.1,11.7,9.2,11.7,9.3z"/>
		</g>
	</g>
</g>
</svg>
