<?xml version="1.0" encoding="utf-8"?>
<!-- Generator: Adobe Illustrator 24.0.0, SVG Export Plug-In . SVG Version: 6.00 Build 0)  -->
<svg version="1.1" xmlns="http://www.w3.org/2000/svg" xmlns:xlink="http://www.w3.org/1999/xlink" x="0px" y="0px"
	 viewBox="0 0 14 19.3" style="enable-background:new 0 0 14 19.3;" xml:space="preserve">
<style type="text/css">
	.st0{display:none;}
	.st1{display:inline;}
	.st2{fill:#FDB25B;}
</style>
<g id="Layer_1" class="st0">
	<g class="st1">
		<g id="Layer_1_1_">
			<g>
				<g>
					<path class="st2" d="M14,4.6c0-0.1,0-0.2-0.1-0.2l-3.7-4.2l0,0c0,0,0,0-0.1-0.1l0,0c0,0,0,0-0.1,0l0,0H9.9h-9
						c-0.4,0-0.8,0.3-0.8,0.8v17.7c0,0.4,0.3,0.8,0.8,0.8h12.4c0.4,0,0.8-0.3,0.8-0.8L14,4.6L14,4.6z M4.5,18.2l-0.4-0.8
						c-0.2-0.3-0.3-0.6-0.4-0.8l0,0c-0.1,0.3-0.2,0.5-0.4,0.8l-0.4,0.8H1.7L3,15.8l-1.3-2.3h1.2l0.4,0.9c0.1,0.3,0.2,0.5,0.4,0.8
						l0,0c0.1-0.3,0.2-0.5,0.3-0.8l0.4-0.9h1.2l-1.3,2.3l1.4,2.4H4.5z M9.2,18.2H6.3v-4.7h1.1v3.8h1.9L9.2,18.2L9.2,18.2z
						 M10.9,18.2c-0.5,0-1.1-0.1-1.3-0.3L9.8,17c0.3,0.1,0.7,0.3,1.2,0.3s0.7-0.2,0.7-0.5s-0.2-0.5-0.8-0.7
						c-0.8-0.3-1.3-0.7-1.3-1.4c0-0.8,0.7-1.4,1.8-1.4c0.5,0,0.9,0.1,1.2,0.2l-0.2,0.9c-0.2-0.1-0.5-0.2-1-0.2s-0.7,0.2-0.7,0.4
						c0,0.3,0.3,0.4,0.9,0.7c0.8,0.3,1.2,0.7,1.2,1.4C12.8,17.6,12.2,18.2,10.9,18.2z M0.9,12.7v-12h8.7v3.8c0,0.3,0.1,0.4,0.4,0.4
						h3.3v7.8H0.9z"/>
					<path class="st2" d="M8.2,4.8H5.3H2v1.4v0.2v1.2v0.2V9v0.2v1.4h3.1h0.2h2.9h0.2h3.1V9V7.8V6.4V6.2V4.8H8.2z M8.2,7.6H5.3V6.4
						h2.9V7.6z M2.1,5H5v1.2H2.1V5z M2.1,6.4H5v1.2H2.1V6.4z M2.1,7.8H5V9H2.1V7.8z M2.1,10.4V9.2H5v1.2H2.1z M5.3,10.4V9.2h2.9v1.2
						H5.3z M11.3,10.4H8.4V9.2h2.9V10.4z M11.3,7.6H8.4V6.4h2.9V7.6z M8.4,6.2V5h2.9v1.2H8.4z"/>
				</g>
			</g>
		</g>
		<g id="Layer_2_1_" class="st0">
			<g class="st1">
				<g>
					<path class="st2" d="M6.6,14.4c-0.2,0-0.4,0-0.5,0v3c0.1,0,0.2,0,0.4,0c0.9,0,1.6-0.5,1.6-1.6C8.1,14.9,7.5,14.4,6.6,14.4z"/>
					<path class="st2" d="M2.6,14.4c-0.2,0-0.4,0-0.4,0v1.4c0.1,0,0.2,0,0.3,0c0.6,0,0.9-0.3,0.9-0.7S3.1,14.4,2.6,14.4z"/>
					<path class="st2" d="M13.9,4.5c0-0.1,0-0.2-0.1-0.2L10.1,0l0,0c0,0,0,0-0.1-0.1l0,0c0,0,0,0-0.1,0l0,0H9.8H0.7
						c-0.5,0-0.8,0.3-0.8,0.8v17.8c0,0.4,0.3,0.8,0.8,0.8h12.5c0.4,0,0.8-0.3,0.8-0.8L13.9,4.5C13.9,4.6,13.9,4.5,13.9,4.5z M4,16.2
						c-0.4,0.3-0.9,0.5-1.5,0.5c-0.1,0-0.3,0-0.4,0v1.6h-1v-4.5c0.3-0.1,0.8-0.1,1.4-0.1s1.1,0.1,1.4,0.4c0.3,0.2,0.5,0.6,0.5,1.1
						C4.4,15.5,4.3,15.9,4,16.2z M8.4,17.7c-0.5,0.4-1.2,0.6-2.1,0.6c-0.5,0-0.9,0-1.2-0.1v-4.5c0.4-0.1,0.9-0.1,1.4-0.1
						c0.9,0,1.4,0.2,1.9,0.5c0.5,0.4,0.8,0.9,0.8,1.8C9.2,16.7,8.8,17.3,8.4,17.7z M12.7,14.5h-1.8v1h1.6v0.8h-1.6v1.8h-1v-4.6h2.8
						V14.5z M0.7,12.8V0.7h8.8v3.9C9.4,4.7,9.6,4.9,9.8,4.9h3.3v7.8L0.7,12.8L0.7,12.8z"/>
					<path class="st2" d="M10.8,8c0,0-0.6-0.1-1.4-0.1c-0.3,0-0.5,0-0.8,0C7,6.8,5.7,5.6,5,4.9c0-0.1,0-0.1,0-0.2c0.1-1,0-1.7-0.3-2
						C4.5,2.5,4.2,2.4,3.9,2.5c-0.2,0-0.5,0.2-0.6,0.6C3.2,3.5,3.4,4,3.9,4.6c0,0,0.2,0.2,0.5,0.5c-0.2,1-0.7,3.1-1,4.1
						c-0.6,0.3-1.1,0.7-1.5,1.2l0,0l0,0c0,0.1-0.2,0.5-0.1,0.9c0.1,0.2,0.2,0.3,0.4,0.3l0,0c0,0,0,0,0.1,0c0.3,0,1.1-0.2,1.5-1.7
						l0.1-0.3c1.5-0.7,3.3-0.9,4.6-1c0.7,0.5,1.4,1,2,1.4l0,0c0,0,0.3,0.2,0.7,0.2l0,0c0.5,0,0.8-0.3,1-0.8l0,0c0-0.3,0-0.6-0.2-0.8
						C11.5,8.1,10.8,8,10.8,8z M2.3,11.1L2.3,11.1c0-0.1,0-0.3,0.1-0.4c0.2-0.3,0.5-0.5,0.9-0.7C2.8,11,2.4,11.1,2.3,11.1z M4.3,4.2
						L4.3,4.2C3.8,3.7,3.8,3.4,3.8,3.3C3.8,3.1,4,3.1,4,3.1c0.1,0,0.2,0,0.2,0c0.1,0.1,0.2,0.5,0.2,1.3C4.4,4.3,4.3,4.2,4.3,4.2z
						 M4,8.9L4,8.9L4,8.9c0.3-1,0.6-2.4,0.9-3.4l0,0l0,0C5.6,6.1,6.6,7,7.8,8l0,0l0,0C6.6,8.1,5.2,8.4,4,8.9z M11.6,9.2
						c-0.1,0.3-0.3,0.4-0.4,0.4l0,0c-0.2,0-0.4-0.1-0.4-0.1c-0.5-0.3-0.9-0.6-1.4-0.9l0,0c0.8,0,1.3,0,1.3,0c0.1,0,0.5,0.1,0.7,0.3
						C11.5,9,11.6,9.1,11.6,9.2z"/>
				</g>
			</g>
		</g>
	</g>
</g>
<g id="Layer_2">
	<g>
		<g>
			<path class="st2" d="M13.9,4.7c0-0.1,0-0.2-0.1-0.2l-3.7-4.2c0,0,0,0,0,0c0,0,0,0-0.1-0.1c0,0,0,0,0,0c0,0,0,0-0.1,0c0,0,0,0,0,0
				c0,0-0.1,0-0.1,0h-9c-0.4,0-0.7,0.3-0.7,0.7v17.6c0,0.4,0.3,0.7,0.7,0.7h12.3c0.4,0,0.7-0.3,0.7-0.7L13.9,4.7
				C13.9,4.7,13.9,4.7,13.9,4.7z M3.7,17.3c0.3,0,0.7-0.1,0.9-0.1l0.2,0.8c-0.2,0.1-0.6,0.2-1.2,0.2c-1.6,0-2.4-1-2.4-2.3
				c0-1.5,1.1-2.4,2.5-2.4c0.5,0,0.9,0.1,1.1,0.2l-0.2,0.8c-0.2-0.1-0.5-0.2-0.9-0.2c-0.8,0-1.4,0.5-1.4,1.5
				C2.3,16.7,2.8,17.3,3.7,17.3z M6.5,18.1c-0.5,0-1-0.1-1.3-0.3L5.5,17c0.3,0.1,0.7,0.3,1.1,0.3c0.5,0,0.7-0.2,0.7-0.5
				c0-0.3-0.2-0.4-0.8-0.6c-0.8-0.3-1.2-0.7-1.2-1.3C5.3,14,6,13.4,7,13.4c0.5,0,0.9,0.1,1.2,0.2l-0.2,0.8c-0.2-0.1-0.5-0.2-0.9-0.2
				c-0.4,0-0.7,0.2-0.7,0.4c0,0.3,0.3,0.4,0.8,0.6c0.8,0.3,1.2,0.7,1.2,1.4C8.4,17.5,7.8,18.1,6.5,18.1z M11.3,18.1h-1.2l-1.5-4.5
				h1.1l0.6,1.9c0.2,0.5,0.3,1.1,0.4,1.6h0c0.1-0.5,0.3-1.1,0.4-1.6l0.6-1.9h1.1L11.3,18.1z M0.8,12.8V0.9h8.7v3.8
				c0,0.2,0.2,0.4,0.4,0.4h3.3v7.7L0.8,12.8L0.8,12.8z"/>
			<path class="st2" d="M10.5,6H8.2H8.2H5.9l0,0H3.6v1v0.1V8v0.1V9v0.1v1H6l0,0h4.5V6.9h0L10.5,6L10.5,6z M5.9,10.1H3.7V9.1h2.2
				L5.9,10.1L5.9,10.1z M5.9,9H3.7V8.1h2.2L5.9,9L5.9,9z M5.9,8H3.7V7.1h2.2h0L5.9,8L5.9,8z M5.9,7V6.1h2.2V7H5.9L5.9,7z M10.4,10
				H9.6V7.4H9V10H8.5V7.9H7.9V10H7.4V8.5H6.8V10H6V9.1V9V8.1V8V7.1h2.2h0.1h2.2L10.4,10L10.4,10z M10.4,6.9L10.4,6.9L10.4,6.9L8.2,7
				V6.1h2.2L10.4,6.9L10.4,6.9z"/>
		</g>
	</g>
</g>
</svg>
