<?xml version="1.0" encoding="utf-8"?>
<!-- Generator: Adobe Illustrator 24.0.0, SVG Export Plug-In . SVG Version: 6.00 Build 0)  -->
<svg version="1.1" id="Capa_1" xmlns="http://www.w3.org/2000/svg" xmlns:xlink="http://www.w3.org/1999/xlink" x="0px" y="0px"
	 viewBox="0 0 20.8 19.9" style="enable-background:new 0 0 20.8 19.9;" xml:space="preserve">
<style type="text/css">
	.st0{fill:#FDB25B;}
</style>
<g>
	<path class="st0" d="M15.6,19.1c-3.5,0-7,0-10.5,0c0,0,0,0,0,0c-0.8-0.1-1.7-0.9-1.7-2c0-4.7,0-9.4,0-14.1c0-1.2,0.8-2.1,2.1-2.1
		c2,0,4,0,6,0c0.1,0,0.1,0,0.2,0c0,0.1,0,0.2,0,0.2c0,1.3,0,2.5,0,3.8c0,0.8,0.5,1.3,1.3,1.3c1.3,0,2.7,0,4,0c0.1,0,0.1,0,0.2,0
		c0,0.1,0,0.2,0,0.2c0,3.4,0,6.8,0,10.2c0,0.2,0,0.4,0,0.6c0,0.8-0.6,1.6-1.4,1.8C15.8,19,15.7,19,15.6,19.1z M10.3,8
		c-0.1,0-0.2,0-0.4,0C8.8,8,7.6,8,6.4,8C6.1,8,5.9,8.2,5.8,8.4C5.8,8.7,6,9,6.3,9c0.1,0,0.2,0,0.2,0c2.2,0,4.4,0,6.7,0
		c0.3,0,0.7,0,1,0c0.2,0,0.4-0.1,0.5-0.3C14.9,8.3,14.6,8,14.2,8C12.9,8,11.6,8,10.3,8z M10.3,11.9c0.1,0,0.1,0,0.2,0
		c1.2,0,2.5,0,3.7,0c0.2,0,0.4-0.1,0.5-0.3c0.2-0.4-0.1-0.7-0.5-0.7c-2,0-3.9,0-5.9,0c-0.6,0-1.2,0-1.9,0c-0.2,0-0.4,0.1-0.5,0.3
		c-0.2,0.4,0.1,0.8,0.5,0.8C7.7,11.9,9,11.9,10.3,11.9z M7.7,13.7c-0.4,0-0.8,0-1.3,0c-0.3,0-0.6,0.2-0.6,0.5c0,0.3,0.2,0.5,0.6,0.5
		c0.8,0,1.7,0,2.5,0c0.3,0,0.6-0.2,0.6-0.5c0-0.3-0.2-0.5-0.6-0.5C8.5,13.7,8.1,13.7,7.7,13.7z"/>
	<path class="st0" d="M12.9,1.1c0.1,0.1,0.3,0.2,0.4,0.3c1.1,1,2.2,2.1,3.3,3.2c0.2,0.2,0.3,0.3,0.4,0.5c0,0,0,0,0,0
		c-0.1,0-0.1,0-0.2,0c-1.3,0-2.5,0-3.8,0c-0.3,0-0.3,0-0.3-0.3c0-1.2,0-2.4,0-3.5C12.9,1.2,12.9,1.2,12.9,1.1
		C12.9,1.1,12.9,1.1,12.9,1.1z"/>
</g>
</svg>
