<?xml version="1.0" encoding="utf-8"?>
<!-- Generator: Adobe Illustrator 24.0.0, SVG Export Plug-In . SVG Version: 6.00 Build 0)  -->
<svg version="1.1" id="bold" xmlns="http://www.w3.org/2000/svg" xmlns:xlink="http://www.w3.org/1999/xlink" x="0px" y="0px"
	 viewBox="0 0 39 41" style="enable-background:new 0 0 39 41;" xml:space="preserve">
<style type="text/css">
	.st0{fill:#FBB25C;}
</style>
<g>
	<path class="st0" d="M33.8,9.3c-0.1,0-0.1,0-0.2,0c-0.1,0-0.1,0-0.2,0h-1.5V4.8c0-0.8-0.7-1.5-1.5-1.5H8.1c-2.2,0-4,1.6-4.4,3.7
		c0,0.1-0.1,0.2-0.1,0.4v27.5c0,2.3,1.8,4.1,4.1,4.1h26c0.6,0,1.1-0.5,1.1-1.1V10.4C34.9,9.8,34.4,9.3,33.8,9.3z M19.3,33.8
		c-5.3,0-9.7-4.3-9.7-9.7s4.3-9.7,9.7-9.7s9.7,4.3,9.7,9.7S24.6,33.8,19.3,33.8z M29,9.3H8.1c-0.8,0-1.5-0.7-1.5-1.5
		c0-0.8,0.7-1.5,1.5-1.5H29V9.3z"/>
	<g>
		<path class="st0" d="M21.5,27.9c-0.4,0-0.8-0.1-1.1-0.4l-2.2-2.2c-0.3-0.3-0.4-0.7-0.4-1.1v-4.5c0-0.8,0.7-1.5,1.5-1.5
			s1.5,0.7,1.5,1.5v3.8l1.8,1.8c0.6,0.6,0.6,1.5,0,2.1C22.3,27.7,21.9,27.9,21.5,27.9z"/>
	</g>
</g>
</svg>
