<?xml version="1.0" encoding="utf-8"?>
<!-- Generator: Adobe Illustrator 24.0.0, SVG Export Plug-In . SVG Version: 6.00 Build 0)  -->
<svg version="1.1" id="Layer_1" xmlns="http://www.w3.org/2000/svg" xmlns:xlink="http://www.w3.org/1999/xlink" x="0px" y="0px"
	 viewBox="0 0 14.7 13.7" style="enable-background:new 0 0 14.7 13.7;" xml:space="preserve">
<style type="text/css">
	.st0{display:none;}
	.st1{display:inline;fill:#FA9351;}
	.st2{display:inline;}
	.st3{fill:#FA9351;}
</style>
<g id="Group_1387" transform="translate(-14.669 6.319)" class="st0">
	<path id="Path_757" class="st1" d="M15.7,0.9V0.1V0c0-0.3,0.1-0.6,0.1-0.9c0.8-3.4,4.2-5.6,7.6-4.9c0.1,0,0.1,0,0.2,0.1
		c3.3,0.8,5.3,4.1,4.7,7.4c-0.5,2.6-2.6,4.6-5.2,5c-0.2,0-0.5,0.1-0.7,0.1h-0.8h-0.1c-0.5,0-1.1-0.1-1.6-0.3
		c-2.2-0.7-3.8-2.6-4.2-4.9C15.7,1.4,15.7,1.1,15.7,0.9z M22.6,1L22.6,1v-2.9c0-0.6,0-1.2,0-1.8c0-0.3-0.2-0.5-0.5-0.5l0,0
		c-0.3,0-0.5,0.2-0.5,0.5c0,0,0,0,0,0.1c0,1.5,0,3,0,4.4V1c-0.1,0-0.2,0-0.2-0.1c-0.4-0.3-0.7-0.7-1-1c-0.2-0.2-0.5-0.2-0.7-0.1l0,0
		c-0.2,0.2-0.2,0.5,0,0.8l0,0c0.7,0.7,1.4,1.4,2,2c0.2,0.2,0.5,0.3,0.7,0.1c0,0,0,0,0.1-0.1c0.7-0.7,1.4-1.3,2-2
		c0.2-0.2,0.2-0.5,0-0.8l0,0c-0.2-0.2-0.5-0.2-0.8,0l0,0c-0.3,0.3-0.5,0.5-0.8,0.8C22.8,0.8,22.7,0.9,22.6,1z M22,4.6
		c0.7,0,1.4,0,2.1,0c0.3,0,0.5-0.2,0.6-0.5c0-0.3-0.2-0.5-0.5-0.6l0,0c-1.4,0-2.8,0-4.2,0c-0.1,0-0.3,0.1-0.4,0.1
		c-0.2,0.1-0.2,0.4-0.1,0.6c0.1,0.2,0.3,0.4,0.5,0.4C20.6,4.6,21.3,4.6,22,4.6L22,4.6z"/>
</g>
<g class="st0">
	<g class="st2">
		<path class="st3" d="M11.7,2.5c-1.4-1.4-3.7-1.4-5.1,0L2.2,6.9c-1,1-1,2.6,0,3.7c0.5,0.5,1.2,0.8,1.8,0.8c0.7,0,1.3-0.3,1.8-0.8
			l4-4c0.3-0.3,0.5-0.7,0.5-1.1c0-0.4-0.2-0.8-0.5-1.1c-0.6-0.6-1.6-0.6-2.2,0L5,7C4.8,7.2,4.8,7.5,5,7.7c0.2,0.2,0.5,0.2,0.7,0
			l2.6-2.6c0.2-0.2,0.5-0.2,0.7,0c0.1,0.1,0.2,0.2,0.2,0.4c0,0.1-0.1,0.3-0.2,0.4l-4,4c-0.6,0.6-1.6,0.6-2.2,0
			c-0.6-0.6-0.6-1.6,0-2.2l4.4-4.4c1-1,2.6-1,3.7,0c0.5,0.5,0.8,1.1,0.8,1.8s-0.3,1.3-0.8,1.8l-4.4,4.4c-0.2,0.2-0.2,0.5,0,0.7
			c0.1,0.1,0.2,0.2,0.4,0.2c0.1,0,0.3-0.1,0.4-0.2l4.4-4.4c0.7-0.7,1.1-1.6,1.1-2.6C12.7,4.1,12.3,3.2,11.7,2.5z"/>
	</g>
</g>
<g class="st0">
	<path class="st1" d="M7.3,13.1c-3.1,0-5.6-2.5-5.6-5.7c0-3,2.6-5.5,5.6-5.5c3.2,0,5.7,2.5,5.7,5.6C13,10.6,10.4,13.1,7.3,13.1z
		 M6.7,6.5C6.5,7.4,6.9,8.2,7.8,8.9C7.9,8.9,8,9.1,8.1,9.2c0.3,0.3,0.7,0.3,0.9,0C9.3,8.9,9.3,8.6,9,8.3C8.7,8,8.4,7.7,8.2,7.5
		C8.1,7.3,8,7.1,8,7c0-0.6,0-1.3,0-1.9c0-0.4-0.2-0.7-0.6-0.7C7,4.4,6.7,4.7,6.7,5.1C6.7,5.5,6.7,5.9,6.7,6.5z"/>
	<path class="st1" d="M5.5,1.4C5.5,1.5,5.4,1.7,5.2,1.8C4.6,2.2,4,2.6,3.4,3C3,3.3,2.7,3.2,2.5,2.9C2.3,2.6,2.3,2.2,2.7,2
		c0.6-0.4,1.2-0.8,1.9-1.3C5,0.5,5.5,0.8,5.5,1.4z"/>
	<path class="st1" d="M9.7,0.6c0.2,0.1,0.4,0.2,0.5,0.2C10.8,1.2,11.4,1.6,12,2c0.4,0.2,0.4,0.6,0.2,0.9C12,3.2,11.7,3.3,11.3,3
		c-0.6-0.4-1.2-0.8-1.9-1.2C9.2,1.6,9.1,1.3,9.2,1.1C9.3,0.9,9.6,0.7,9.7,0.6z"/>
</g>
<g>
	<path class="st3" d="M5.4,9.1C4.7,8.5,4.7,7.7,4.6,6.9C4.5,5.6,4.3,4.3,4.2,3C4.1,1.8,5.1,0.6,6.4,0.5c0.6,0,1.3,0,1.9,0
		c1.3,0.1,2.3,1.2,2.2,2.5c-0.1,1.5-0.3,3-0.5,4.5C9.9,8.1,9.7,8.5,9.5,8.9c-0.1,0.2-0.1,0.3,0,0.5c0.6,0.9,0.5,2-0.1,2.8
		c-0.6,0.8-1.6,1.2-2.6,0.9C5.7,12.8,5,12,4.9,11C4.8,10.3,5,9.7,5.4,9.1z M7.4,1C7.4,1,7.4,1,7.4,1C7.1,1,6.9,1,6.6,1
		c-1.2,0-2,0.9-1.9,2.1c0.1,1.5,0.3,3,0.5,4.5C5.2,8,5.5,8.4,5.7,8.8C6,9.1,6,9.2,5.8,9.5c-0.5,0.6-0.6,1.3-0.2,2
		c0.3,0.8,1,1.2,1.8,1.2c0.8,0,1.5-0.4,1.8-1.1c0.4-0.8,0.3-1.5-0.2-2.1C8.7,9.2,8.8,9,8.9,8.8c0.3-0.3,0.5-0.7,0.6-1.1
		C9.7,6.1,9.9,4.5,10,3C10.1,2,9.3,1.1,8.3,1C8,1,7.7,1,7.4,1z"/>
	<path class="st3" d="M7.4,1C7.7,1,8,1,8.3,1c1,0,1.8,0.9,1.7,1.9C9.9,4.5,9.7,6.1,9.5,7.7c0,0.4-0.3,0.8-0.6,1.1
		C8.8,9,8.7,9.2,8.9,9.4c0.5,0.6,0.6,1.4,0.2,2.1c-0.4,0.7-1,1.1-1.8,1.1c-0.8,0-1.5-0.4-1.8-1.2c-0.3-0.7-0.2-1.4,0.2-2
		C6,9.2,6,9.1,5.7,8.8C5.5,8.4,5.2,8,5.2,7.6C5,6.1,4.9,4.6,4.7,3.1C4.6,1.9,5.4,1,6.6,1C6.9,1,7.1,1,7.4,1C7.4,1,7.4,1,7.4,1z
		 M7.4,1.7C7.4,1.7,7.4,1.7,7.4,1.7c-0.2,0-0.4,0-0.6,0c-1,0-1.5,0.5-1.4,1.5C5.5,4.6,5.7,6,5.8,7.5c0.1,0.7,0.5,1.1,1.2,1.2
		c0.2,0,0.4,0,0.6,0c0.7,0,1.1-0.4,1.2-1C9,6,9.2,4.5,9.3,2.9c0.1-0.7-0.5-1.2-1.1-1.2C7.9,1.7,7.7,1.7,7.4,1.7z M7.3,12
		c0.7,0,1.3-0.6,1.3-1.3c0-0.7-0.6-1.3-1.4-1.3C6.6,9.4,6,9.9,6,10.7C6,11.4,6.6,12,7.3,12z"/>
	<path class="st3" d="M7.4,1.7c0.3,0,0.5,0,0.8,0c0.7,0,1.2,0.6,1.1,1.2C9.2,4.5,9,6,8.9,7.6c-0.1,0.7-0.5,1-1.2,1
		c-0.2,0-0.4,0-0.6,0c-0.7,0-1.2-0.4-1.2-1.2C5.7,6,5.5,4.6,5.4,3.1c-0.1-1,0.4-1.5,1.4-1.5C7,1.7,7.2,1.7,7.4,1.7
		C7.4,1.7,7.4,1.7,7.4,1.7z M7.4,2.2C7.4,2.2,7.4,2.2,7.4,2.2c-0.2,0-0.5,0-0.7,0C6.1,2.2,5.8,2.5,5.9,3C6,4.5,6.2,6,6.3,7.5
		c0,0.3,0.2,0.6,0.6,0.6c1,0.1,1.5,0.1,1.5-1.1c0-0.1,0-0.1,0-0.2C8.6,5.6,8.7,4.3,8.8,3c0-0.6-0.2-0.8-0.8-0.8
		C7.8,2.2,7.6,2.2,7.4,2.2z"/>
</g>
</svg>
