<?xml version="1.0" encoding="utf-8"?>
<!-- Generator: Adobe Illustrator 24.0.0, SVG Export Plug-In . SVG Version: 6.00 Build 0)  -->
<svg version="1.1" id="Layer_1" xmlns="http://www.w3.org/2000/svg" xmlns:xlink="http://www.w3.org/1999/xlink" x="0px" y="0px"
	 viewBox="0 0 21.7 22.9" style="enable-background:new 0 0 21.7 22.9;" xml:space="preserve">
<style type="text/css">
	.st0{fill:none;stroke:#666666;stroke-miterlimit:10;}
</style>
<g>
	<path class="st0" d="M10.8,1.5c0.7,0,1.3,0.1,2,0.2c0.6,0.1,1.3,0.3,1.9,0.6c0.6,0.3,1.2,0.6,1.7,0.9c0.5,0.4,1.1,0.8,1.5,1.2
		c0.5,0.5,0.9,1,1.2,1.5C19.5,6.4,19.8,7,20,7.6c0.3,0.6,0.5,1.3,0.7,1.9c0.1,0.6,0.2,1.3,0.2,2s-0.1,1.3-0.2,2
		c-0.1,0.6-0.3,1.3-0.6,1.9c-0.3,0.5-0.6,1.1-0.9,1.6c-0.4,0.5-0.8,1.1-1.2,1.5c-0.4,0.4-1,0.9-1.5,1.2c-0.6,0.4-1.2,0.7-1.8,1
		c-0.6,0.2-1.3,0.4-1.9,0.6c-0.6,0.1-1.3,0.2-2,0.2s-1.3-0.1-2-0.2c-0.6-0.1-1.3-0.3-1.9-0.6c-0.6-0.3-1.2-0.6-1.7-0.9
		c-0.5-0.4-1.1-0.8-1.5-1.2s-0.9-1-1.2-1.5c-0.4-0.5-0.7-1.1-0.9-1.7c-0.3-0.6-0.4-1.2-0.6-1.9c-0.1-0.6-0.2-1.3-0.2-2
		s0.1-1.3,0.2-2c0.1-0.6,0.3-1.3,0.6-1.9c0.3-0.6,0.6-1.2,0.9-1.7c0.4-0.5,0.8-1.1,1.2-1.5c0.5-0.5,1-0.9,1.5-1.2
		c0.5-0.4,1.1-0.7,1.7-0.9C7.5,2,8.1,1.8,8.8,1.6C9.5,1.5,10.2,1.5,10.8,1.5z"/>
	<line class="st0" x1="6.3" y1="11.4" x2="14.8" y2="11.4"/>
	<polyline class="st0" points="11.3,8.1 15,11.6 11.3,14.8 	"/>
</g>
</svg>
