<?xml version="1.0" encoding="utf-8"?>
<!-- Generator: Adobe Illustrator 24.0.0, SVG Export Plug-In . SVG Version: 6.00 Build 0)  -->
<svg version="1.1" id="Capa_1" xmlns="http://www.w3.org/2000/svg" xmlns:xlink="http://www.w3.org/1999/xlink" x="0px" y="0px"
	 viewBox="0 0 9.9 11.9" style="enable-background:new 0 0 9.9 11.9;" xml:space="preserve">
<style type="text/css">
	.st0{fill:#FA9351;}
</style>
<g id="Group_1386" transform="translate(-42.675 -410.89)">
	<g id="Group_1383" transform="translate(42.675 410.89)">
		<g id="Group_1382" transform="translate(0 0)">
			<path id="Path_755" class="st0" d="M9.6,9.9L8.8,8.5C8.4,7.9,8.2,7.2,8.2,6.4V5.3c0-1.5-1-2.8-2.4-3.2V1.2c0-0.5-0.4-0.9-0.9-0.9
				S4,0.7,4,1.2v0.8C2.6,2.5,1.6,3.8,1.6,5.3v1.2c0,0.7-0.2,1.4-0.6,2.1L0.2,9.9c-0.1,0.1,0,0.3,0.1,0.3c0,0,0.1,0,0.1,0h9
				c0.1,0,0.2-0.1,0.2-0.2C9.7,9.9,9.6,9.9,9.6,9.9L9.6,9.9z"/>
		</g>
	</g>
	<g id="Group_1385" transform="translate(45.914 421.29)">
		<g id="Group_1384" transform="translate(0 0)">
			<path id="Path_756" class="st0" d="M0.2,0.3c0.4,0.8,1.4,1.2,2.2,0.8C2.7,0.9,3,0.6,3.2,0.3H0.2z"/>
		</g>
	</g>
</g>
</svg>
