<svg xmlns="http://www.w3.org/2000/svg" width="21.785" height="13.957" viewBox="0 0 21.785 13.957">
  <g id="STYLE_COLOR" data-name="STYLE COLOR" transform="translate(-95.368 -204.773)">
    <path id="Path_693" data-name="Path 693" d="M120.015,214.192l4.5-4.3a6.808,6.808,0,0,0-12.282-2.052C112.3,207.839,120.015,214.192,120.015,214.192Z" transform="translate(-11.486)" fill="#0364b8"/>
    <path id="Path_694" data-name="Path 694" d="M103.675,215.2h0a5.418,5.418,0,0,0-2.861-.812l-.07,0a5.444,5.444,0,0,0-4.4,8.557l6.737-.844,5.165-4.165Z" transform="translate(0 -6.548)" fill="#0078d4"/>
    <path id="Path_695" data-name="Path 695" d="M140.542,220.8c-.1-.007-.2-.011-.3-.011a4.407,4.407,0,0,0-1.754.362h0l-2.725,1.147,3,3.711,5.371,1.306a4.425,4.425,0,0,0-3.6-6.514Z" transform="translate(-27.516 -10.911)" fill="#1490df"/>
    <path id="Path_696" data-name="Path 696" d="M98.436,230.53a5.439,5.439,0,0,0,4.468,2.333h11.913a4.424,4.424,0,0,0,3.9-2.325l-8.375-5.017Z" transform="translate(-2.09 -14.133)" fill="#28a8ea"/>
  </g>
</svg>
