<?xml version="1.0" encoding="utf-8"?>
<!-- Generator: Adobe Illustrator 24.0.0, SVG Export Plug-In . SVG Version: 6.00 Build 0)  -->
<svg version="1.1" id="Layer_1" xmlns="http://www.w3.org/2000/svg" xmlns:xlink="http://www.w3.org/1999/xlink" x="0px" y="0px"
	 viewBox="0 0 15.54 18.02" style="enable-background:new 0 0 15.54 18.02;" xml:space="preserve">
<style type="text/css">
	.st0{fill:#FBB25C;}
</style>
<path id="Path_89" class="st0" d="M115.11,21.8c-0.59-0.05-1.32-0.09-2.04-0.19c-0.97-0.1-1.9-0.4-2.74-0.88
	c-0.25-0.16-0.47-0.35-0.66-0.58c-0.28-0.32-0.28-0.8,0-1.12c0.32-0.39,0.75-0.69,1.23-0.86c0.65-0.26,1.33-0.44,2.02-0.55
	c1.15-0.19,2.31-0.24,3.47-0.15c1.18,0.04,2.34,0.31,3.42,0.8c0.32,0.16,0.61,0.37,0.88,0.61c0.41,0.34,0.46,0.95,0.11,1.35
	c-0.04,0.05-0.08,0.09-0.13,0.13c-0.41,0.38-0.91,0.66-1.46,0.82c-0.54,0.17-1.09,0.29-1.64,0.42c-0.22,0.05-0.44,0.08-0.67,0.1
	C116.35,21.73,115.81,21.76,115.11,21.8z"/>
<path id="Path_90" class="st0" d="M111,13.54c0.58,0.04,1.15,0.05,1.72,0.13c1.14,0.09,2.26,0.42,3.25,0.99
	c0.22,0.14,0.41,0.31,0.58,0.51c0.32,0.39,0.28,0.95-0.08,1.3c-0.18,0.21-0.45,0.33-0.72,0.31c-0.44-0.03-0.89-0.03-1.33,0
	c-0.66,0.06-1.31,0.15-1.96,0.25c-0.83,0.13-1.62,0.4-2.36,0.79c-0.1,0.04-0.2,0.05-0.31,0.04c-0.53-0.06-1.06-0.09-1.58-0.2
	c-0.88-0.14-1.71-0.47-2.44-0.99c-0.39-0.24-0.59-0.7-0.5-1.15c0.09-0.32,0.31-0.6,0.6-0.76c0.51-0.34,1.08-0.6,1.68-0.75
	C108.68,13.71,109.84,13.55,111,13.54z"/>
<path id="Path_91" class="st0" d="M109.51,26.31c0.72,0.61,1.58,1.02,2.5,1.21c1.49,0.35,3.02,0.46,4.55,0.33
	c1.3-0.04,2.58-0.36,3.75-0.95c0.23-0.13,0.44-0.29,0.69-0.46c0.01,0.09,0.02,0.16,0.02,0.24c0,0.32-0.01,0.65,0,0.97
	c0.01,0.25-0.09,0.49-0.27,0.66c-0.45,0.49-1.03,0.84-1.67,1.03c-0.68,0.23-1.39,0.41-2.1,0.52c-0.96,0.16-1.94,0.18-2.9,0.05
	c-0.47-0.07-0.95-0.11-1.42-0.21c-1-0.15-1.93-0.58-2.7-1.23c-0.32-0.26-0.49-0.66-0.47-1.08
	C109.53,27.05,109.51,26.71,109.51,26.31z"/>
<path id="Path_92" class="st0" d="M109.52,20.97c0.56,0.57,1.27,0.97,2.04,1.16c0.85,0.24,1.72,0.39,2.6,0.46
	c0.86,0.08,1.73,0.07,2.6-0.03c1.24-0.08,2.46-0.41,3.56-0.99c0.23-0.14,0.45-0.31,0.71-0.49v0.35c0,0.32-0.01,0.64,0,0.95
	c0.01,0.22-0.08,0.44-0.24,0.58c-0.39,0.37-0.86,0.64-1.37,0.81c-0.49,0.16-0.99,0.3-1.49,0.44c-0.18,0.05-0.37,0.08-0.56,0.1
	c-1.12,0.14-2.25,0.17-3.38,0.08c-1.12-0.06-2.21-0.33-3.23-0.79c-0.49-0.18-0.91-0.52-1.18-0.97c-0.03-0.05-0.05-0.11-0.06-0.18
	C109.52,21.97,109.52,21.49,109.52,20.97z"/>
<path id="Path_93" class="st0" d="M121.03,23.85v0.7c-0.01,0.08-0.01,0.15,0,0.23c0.05,0.42-0.16,0.84-0.54,1.04
	c-0.57,0.4-1.21,0.68-1.9,0.83c-0.57,0.15-1.15,0.26-1.73,0.34c-0.72,0.07-1.45,0.04-2.17,0.05c-0.2,0.01-0.41-0.01-0.61-0.03
	c-0.66-0.1-1.33-0.21-1.99-0.34c-0.59-0.12-1.16-0.34-1.67-0.65c-0.2-0.12-0.38-0.26-0.56-0.41c-0.24-0.2-0.37-0.51-0.35-0.82
	c0.02-0.35,0-0.7,0-1.05c0.3,0.2,0.57,0.39,0.86,0.56c0.55,0.29,1.14,0.5,1.76,0.63c1.32,0.3,2.67,0.41,4.02,0.33
	c0.6-0.04,1.2-0.12,1.79-0.24c0.59-0.11,1.17-0.27,1.74-0.47C120.14,24.33,120.59,24.11,121.03,23.85z"/>
<path id="Path_94" class="st0" d="M108.84,25.96c-0.24-0.04-0.46-0.07-0.66-0.13c-0.67-0.17-1.32-0.44-1.91-0.8
	c-0.41-0.23-0.73-0.58-0.92-1.01c-0.03-0.09-0.05-0.19-0.06-0.28c-0.01-0.41,0-0.81,0-1.27c0.37,0.39,0.83,0.68,1.33,0.86
	c0.58,0.2,1.17,0.34,1.75,0.5c0.13,0.04,0.26,0.05,0.39,0.09c0.04,0.02,0.07,0.06,0.08,0.1C108.84,24.65,108.84,25.29,108.84,25.96z
	"/>
<path id="Path_95" class="st0" d="M105.29,17.17c1.08,0.9,2.42,1.44,3.82,1.55c-0.4,0.53-0.23,1.13-0.29,1.74
	c-0.21-0.02-0.43-0.06-0.64-0.11c-0.6-0.19-1.2-0.38-1.78-0.63c-0.47-0.17-0.85-0.52-1.08-0.97c-0.02-0.04-0.04-0.08-0.04-0.12
	C105.29,18.16,105.29,17.67,105.29,17.17z"/>
<path id="Path_96" class="st0" d="M108.84,23.01c-1.07-0.1-2.1-0.46-3-1.06c-0.39-0.24-0.6-0.68-0.56-1.13c0.03-0.31,0-0.63,0-0.94
	c0.28,0.21,0.57,0.41,0.88,0.57c0.54,0.23,1.11,0.41,1.68,0.59c0.29,0.09,0.59,0.12,0.88,0.19c0.05,0.01,0.11,0.07,0.11,0.11
	C108.84,21.88,108.84,22.42,108.84,23.01z"/>
<path id="Path_61" class="st0" d="M7.79,0c2.05,0,4.1,0,6.14,0c0.37-0.02,0.73,0.1,1.01,0.34c0.41,0.38,0.63,0.93,0.59,1.49
	c0,2.49,0,4.98,0,7.47c0,2.28,0,4.57,0,6.86c0.06,0.65-0.25,1.27-0.8,1.62c-0.25,0.13-0.52,0.2-0.8,0.2c-1.14,0.02-2.28,0-3.42,0.01
	c-1.27,0.01-2.53,0.04-3.8,0.04c-1.71,0-3.42-0.02-5.14-0.04c-0.96-0.01-1.57-0.72-1.57-1.83c0-4.77,0-9.53,0-14.3
	c-0.09-0.79,0.37-1.53,1.12-1.79C1.31,0.02,1.5,0,1.68,0.01C3.72,0,5.75,0,7.79,0z M0.65,8.96c0,2.38,0,5.38,0,7.76
	c0,0.36,0.06,0.42,0.36,0.43c1.46,0,3.53,0,4.98,0.01c0.2,0,0.24-0.07,0.24-0.29c-0.01-1.67,0-3.96-0.01-5.63
	c0-0.19,0.05-0.25,0.21-0.25c0.94,0.01,1.88,0,2.82,0c0.25,0,0.25,0,0.25,0.29c0,1.67,0,3.95,0,5.61c0,0.2,0.04,0.26,0.22,0.26
	c1.4-0.01,3.42,0,4.81,0c0.3,0,0.36-0.07,0.36-0.43c0-4.72,0-10.68,0-15.41c0-0.06,0-0.12,0-0.17c-0.01-0.22-0.08-0.3-0.27-0.31
	c-0.06,0-0.11,0-0.17,0H1.03c-0.34,0-0.38,0.05-0.38,0.44C0.65,3.63,0.65,6.61,0.65,8.96L0.65,8.96z M6.72,11.55
	c0,0.07-0.01,0.11-0.01,0.16c0,1.85,0,3.71,0,5.56c0,0.17,0.06,0.2,0.19,0.2c0.64-0.01,1.29-0.01,1.93,0c0.17,0,0.23-0.05,0.23-0.25
	c-0.01-1.82,0-3.64,0-5.45c0-0.07-0.01-0.14-0.01-0.23L6.72,11.55z"/>
<path id="Path_62" class="st0" d="M10.49,13.2c0-0.38,0.01-0.77,0-1.15c0-0.14,0.04-0.18,0.18-0.18c0.76,0.01,1.52,0.01,2.28,0
	c0.16,0,0.2,0.06,0.2,0.21c-0.01,0.75-0.01,1.51,0,2.26c0,0.16-0.05,0.2-0.21,0.2c-0.75-0.01-1.51-0.01-2.26,0
	c-0.16,0-0.2-0.06-0.2-0.21C10.49,13.95,10.49,13.58,10.49,13.2z"/>
<path id="Path_63" class="st0" d="M13.15,8.74c0,0.38,0,0.76,0,1.13c0,0.14-0.03,0.2-0.19,0.2c-0.77-0.01-1.54-0.01-2.3,0
	c-0.14,0-0.17-0.05-0.17-0.18c0-0.77,0-1.55,0-2.32c0-0.14,0.05-0.17,0.18-0.17c0.77,0,1.54,0,2.3,0c0.14,0,0.19,0.04,0.18,0.18
	C13.14,7.98,13.15,8.36,13.15,8.74z"/>
<path id="Path_64" class="st0" d="M11.8,5.78c-0.38,0-0.76,0-1.13,0c-0.14,0-0.19-0.04-0.18-0.18c0.01-0.77,0.01-1.53,0-2.3
	c0-0.14,0.05-0.18,0.19-0.18c0.76,0.01,1.52,0.01,2.28,0c0.14,0,0.2,0.04,0.2,0.19c-0.01,0.76-0.01,1.52,0,2.28
	c0,0.15-0.06,0.2-0.2,0.19C12.57,5.78,12.19,5.78,11.8,5.78z"/>
<path id="Path_65" class="st0" d="M6.48,5.77V3.13c0.06,0,0.11-0.01,0.17-0.01c0.76,0,1.52,0,2.29,0c0.14,0,0.2,0.03,0.2,0.19
	c-0.01,0.77,0,1.54,0,2.3c0,0.11-0.02,0.18-0.15,0.18c-0.8,0-1.6,0-2.4,0C6.54,5.78,6.51,5.77,6.48,5.77z"/>
<path id="Path_66" class="st0" d="M6.48,10.06V7.43h2.63c0.01,0.06,0.02,0.11,0.02,0.15c0,0.77,0,1.55,0,2.32
	c0,0.11-0.01,0.18-0.15,0.18c-0.8,0-1.6,0-2.4,0C6.54,10.07,6.51,10.07,6.48,10.06z"/>
<path id="Path_67" class="st0" d="M3.9,11.87c0.38,0,0.76,0,1.13,0c0.13,0,0.19,0.03,0.19,0.18c-0.01,0.77-0.01,1.55,0,2.32
	c0,0.13-0.04,0.17-0.17,0.17c-0.77,0-1.53,0-2.3,0c-0.14,0-0.18-0.05-0.18-0.18c0.01-0.77,0.01-1.53,0-2.3
	c0-0.14,0.04-0.19,0.18-0.18C3.13,11.87,3.51,11.87,3.9,11.87z"/>
<path id="Path_68" class="st0" d="M3.88,5.78c-0.37,0-0.74-0.01-1.11,0c-0.15,0-0.21-0.04-0.21-0.2c0.01-0.76,0.01-1.51,0-2.27
	c0-0.16,0.06-0.2,0.21-0.2c0.75,0.01,1.5,0.01,2.25,0c0.15,0,0.21,0.04,0.21,0.2c-0.01,0.76-0.01,1.51,0,2.27
	c0,0.16-0.05,0.21-0.21,0.2C4.64,5.78,4.26,5.78,3.88,5.78z"/>
<path id="Path_69" class="st0" d="M3.88,10.07c-0.38,0-0.76,0-1.13,0c-0.14,0-0.19-0.03-0.19-0.18c0.01-0.77,0.01-1.55,0-2.32
	c0-0.13,0.05-0.16,0.17-0.16c0.78,0,1.55,0,2.33,0c0.12,0,0.17,0.03,0.17,0.16c0,0.78,0,1.56,0,2.34c0,0.12-0.04,0.17-0.17,0.16
	C4.66,10.07,4.27,10.07,3.88,10.07z"/>
<path id="Path_70" class="st0" d="M110.36,57.38V46.56h1.95c0-0.64,0-1.24,0-1.83c-0.07-0.55,0.33-1.05,0.87-1.11
	c0.08-0.01,0.16-0.01,0.24,0c1.24,0,2.48,0,3.72,0c0.55-0.06,1.04,0.34,1.1,0.89c0.01,0.07,0.01,0.14,0,0.21c0,0.6,0,1.2,0,1.84
	h1.94v10.83H110.36z M113.35,44.64v1.9h3.85v-1.9L113.35,44.64z"/>
<path id="Path_71" class="st0" d="M109.36,46.56v10.81c-0.99,0.02-1.84-0.7-1.97-1.69c-0.01-0.11-0.02-0.22-0.02-0.33
	c0-2.25,0-4.49,0-6.74c-0.03-0.97,0.65-1.83,1.61-2.01C109.11,46.58,109.24,46.57,109.36,46.56z"/>
<path id="Path_72" class="st0" d="M121.19,57.38V46.6c0.81-0.03,1.55,0.46,1.83,1.21c0.09,0.24,0.13,0.49,0.13,0.74
	c0.01,2.29,0.01,4.58,0,6.87c0.01,1.07-0.84,1.94-1.91,1.96C121.23,57.38,121.21,57.38,121.19,57.38z"/>
<g id="Group_270" transform="translate(0 0)">
	<path id="Path_97" class="st0" d="M95.75-35.13h-8.51c-0.61,0.03-1.16-0.38-1.28-0.98c-0.03-0.18-0.05-0.37-0.04-0.55
		c0-1.58,0-3.15,0-4.73c0-2.33,0-4.67,0-7c0-1.66,0.01-3.32,0-4.98c-0.03-0.58,0.34-1.11,0.89-1.29c0.16-0.04,0.33-0.06,0.5-0.06
		c3.89,0,7.79,0,11.68,0c0.71-0.06,1.33,0.47,1.39,1.17c0.01,0.07,0.01,0.14,0,0.21c0,1.81,0,3.61,0,5.42c0,1.31,0,2.63,0,3.94
		c0,0.1,0.04,0.19,0.12,0.25c0.63,0.53,1.05,1.27,1.17,2.09c0.2,1.13-0.17,2.29-0.98,3.1c-0.05,0.07-0.08,0.15-0.08,0.23
		c-0.01,1.16-0.01,2.32-0.02,3.48c0,0.16-0.01,0.32-0.03,0.47c-0.01,0.36-0.31,0.64-0.66,0.63c-0.15,0-0.3-0.06-0.41-0.16
		c-0.25-0.19-0.48-0.4-0.72-0.6c-0.16-0.14-0.33-0.27-0.49-0.42c-0.08-0.07-0.12-0.07-0.2,0c-0.32,0.28-0.65,0.54-0.97,0.81
		c-0.1,0.08-0.21,0.16-0.31,0.23c-0.19,0.16-0.45,0.2-0.67,0.09c-0.23-0.12-0.37-0.36-0.36-0.62
		C95.75-34.62,95.75-34.86,95.75-35.13z M99.41-44.23v-9.12c0-0.31-0.11-0.42-0.43-0.42H87.29c-0.31,0-0.41,0.09-0.41,0.41
		c0,1.41,0,2.81,0,4.22c0,4.2,0,8.41,0,12.61c0,0.26,0.1,0.37,0.35,0.37h8.34c0.06,0,0.12,0,0.17-0.01v-1.79
		c-0.06,0-0.1-0.01-0.14-0.01h-3.05h-3.38c-0.18,0.01-0.35-0.1-0.42-0.27c-0.08-0.16-0.05-0.36,0.07-0.49
		c0.12-0.12,0.3-0.18,0.47-0.15h5.91c0.05,0,0.1-0.01,0.14-0.02c-0.33-0.41-0.55-0.9-0.65-1.41c-0.03-0.14-0.07-0.19-0.22-0.19
		c-1.48,0.01-2.97,0.01-4.45,0c-0.32,0-0.65,0-0.97-0.03c-0.18-0.02-0.32-0.17-0.34-0.35c-0.05-0.16,0.01-0.34,0.16-0.43
		c0.13-0.07,0.27-0.11,0.42-0.11c1.73-0.01,3.46-0.01,5.19,0c0.11,0,0.18-0.01,0.2-0.15c0.07-0.46,0.24-0.89,0.5-1.27
		c0.03-0.05,0.06-0.1,0.1-0.17c-0.03-0.01-0.06-0.01-0.09-0.01h-3.88c-0.72,0-1.43,0-2.15-0.01c-0.25,0.01-0.45-0.19-0.46-0.44
		c0,0,0,0,0-0.01c0-0.25,0.19-0.46,0.44-0.46c0.01,0,0.02,0,0.03,0c0.21,0,0.42-0.01,0.62-0.01c2.13,0,4.27,0,6.4,0
		c0.06,0,0.13-0.02,0.18-0.05c0.72-0.42,1.57-0.56,2.39-0.41C98.98-44.35,99.19-44.29,99.41-44.23L99.41-44.23z M95.61-41.04
		c-0.01,1.43,1.15,2.59,2.58,2.6c0.02,0,0.04,0,0.06,0c1.4-0.02,2.52-1.16,2.52-2.56c0.02-1.43-1.11-2.61-2.54-2.63
		c-0.02,0-0.03,0-0.05,0c-1.42,0-2.56,1.15-2.56,2.56C95.61-41.06,95.61-41.05,95.61-41.04z M96.74-35.05
		c0.37-0.31,0.72-0.6,1.06-0.89c0.21-0.2,0.54-0.21,0.76-0.01c0.14,0.11,0.27,0.23,0.4,0.34c0.22,0.18,0.44,0.37,0.68,0.57v-2.75
		c-0.92,0.41-1.98,0.4-2.9-0.03L96.74-35.05z"/>
	<path id="Path_98" class="st0" d="M93.01-48.24h-3.6c-0.43,0.05-0.82-0.26-0.87-0.7c-0.01-0.06-0.01-0.12,0-0.18
		c0-0.64,0-1.27,0-1.9c-0.03-0.43,0.29-0.81,0.73-0.85c0.04,0,0.07,0,0.11,0c1.3,0,2.59,0,3.89,0c1.12,0,2.24,0,3.36-0.01
		c0.24-0.01,0.47,0.07,0.64,0.23c0.16,0.16,0.24,0.39,0.23,0.61c0,0.65,0.01,1.29,0,1.94c0.03,0.43-0.29,0.81-0.72,0.85
		c-0.05,0-0.1,0-0.15,0L93.01-48.24z M93.02-49.2L93.02-49.2c1.12,0,2.24,0,3.37,0c0.13,0,0.17-0.03,0.17-0.16
		c-0.01-0.46-0.01-0.92,0-1.38c0-0.14-0.04-0.17-0.18-0.17c-0.72,0.01-1.44,0-2.17,0c-1.5,0-3.01,0-4.51-0.01
		c-0.16,0-0.2,0.05-0.2,0.2c0.01,0.44,0.01,0.89,0,1.33c0,0.15,0.04,0.2,0.19,0.19C90.79-49.2,91.91-49.2,93.02-49.2L93.02-49.2z"/>
	<path id="Path_99" class="st0" d="M93.08-45.69c-1.28,0-2.56,0-3.84,0c-0.3,0-0.45-0.11-0.51-0.36c-0.07-0.22,0.06-0.46,0.29-0.53
		c0.02-0.01,0.04-0.01,0.07-0.01c0.19-0.02,0.37-0.03,0.56-0.02h7.31c0.25-0.03,0.47,0.15,0.5,0.39c0,0.02,0,0.03,0,0.05
		c0.01,0.25-0.19,0.47-0.44,0.48c-0.02,0-0.04,0-0.06,0L93.08-45.69L93.08-45.69z"/>
</g>
<path id="Path_80" class="st0" d="M120.19-35.47h-6.23c-0.75,0.03-1.39-0.56-1.42-1.31c0-0.03,0-0.06,0-0.1c0-0.9,0-1.79,0-2.69
	c0-0.75,0.61-1.36,1.37-1.36h12.52c0.75-0.02,1.38,0.58,1.4,1.33c0,0.02,0,0.04,0,0.06c0,0.89,0,1.78,0,2.68
	c0.02,0.76-0.58,1.38-1.34,1.4c-0.02,0-0.04,0-0.06,0L120.19-35.47z M120.19-39.84h-6.21c-0.23,0-0.33,0.1-0.33,0.32
	c0,0.88,0,1.76,0,2.64c0,0.22,0.11,0.32,0.33,0.32h12.4c0.28,0,0.37-0.09,0.37-0.37c0-0.86,0-1.71,0-2.57c0-0.24-0.1-0.34-0.34-0.34
	L120.19-39.84z"/>
<path id="Path_81" class="st0" d="M120.19-52.95h6.23c0.76-0.03,1.39,0.57,1.42,1.33c0,0.03,0,0.07,0,0.1c0,0.88,0,1.77,0,2.65
	c0.01,0.76-0.59,1.38-1.35,1.39c-0.02,0-0.03,0-0.05,0h-12.45c-0.75,0.04-1.4-0.54-1.44-1.3c0-0.04,0-0.09,0-0.13
	c0-0.87,0-1.75,0-2.62c-0.02-0.69,0.47-1.28,1.14-1.39c0.09-0.01,0.18-0.02,0.27-0.02L120.19-52.95z M120.18-48.58h6.21
	c0.26,0,0.35-0.1,0.35-0.36v-2.54c0-0.29-0.09-0.38-0.38-0.38h-12.37c-0.22,0-0.34,0.1-0.34,0.3c0,0.9,0,1.79,0,2.69
	c-0.01,0.15,0.11,0.28,0.26,0.29c0.01,0,0.02,0,0.04,0c0.06,0,0.13,0,0.19,0L120.18-48.58z"/>
<path id="Path_82" class="st0" d="M120.19-46.95h6.21c0.75-0.04,1.39,0.54,1.43,1.3c0,0.04,0,0.08,0,0.12c0,0.89,0,1.78,0,2.66
	c0,0.76-0.6,1.37-1.36,1.38c-0.01,0-0.01,0-0.02,0h-12.49c-0.75,0.02-1.39-0.57-1.41-1.32c0-0.03,0-0.05,0-0.08
	c0-0.89,0-1.77,0-2.66c-0.02-0.75,0.58-1.38,1.33-1.4c0.02,0,0.04,0,0.07,0L120.19-46.95z M120.19-45.85h-6.2
	c-0.25,0-0.35,0.1-0.35,0.35c0,0.87,0,1.73,0,2.59c0,0.24,0.1,0.34,0.34,0.34h12.4c0.26,0,0.36-0.09,0.36-0.35c0-0.86,0-1.71,0-2.57
	c0-0.27-0.1-0.36-0.36-0.36L120.19-45.85z"/>
<path id="Path_83" class="st0" d="M117.46-38.75c0.3,0,0.54,0.25,0.54,0.55c0,0.3-0.25,0.54-0.55,0.54c-0.3,0-0.54-0.25-0.54-0.55
	c0,0,0,0,0,0C116.92-38.51,117.16-38.75,117.46-38.75C117.46-38.75,117.46-38.75,117.46-38.75z"/>
<path id="Path_84" class="st0" d="M114.72-38.21c0-0.3,0.24-0.54,0.53-0.54c0,0,0.01,0,0.01,0c0.3,0,0.54,0.25,0.54,0.55
	c-0.01,0.3-0.25,0.54-0.55,0.54C114.96-37.66,114.72-37.9,114.72-38.21C114.72-38.21,114.72-38.21,114.72-38.21z"/>
<path id="Path_85" class="st0" d="M118.01-50.23c0,0.3-0.23,0.55-0.54,0.55c0,0,0,0,0,0c-0.3,0-0.55-0.24-0.56-0.54
	c0-0.3,0.24-0.55,0.54-0.55C117.76-50.77,118-50.53,118.01-50.23C118.01-50.23,118.01-50.23,118.01-50.23z"/>
<path id="Path_86" class="st0" d="M114.72-50.23c0-0.3,0.24-0.54,0.54-0.54c0,0,0,0,0.01,0c0.3,0,0.54,0.25,0.54,0.55
	c0,0.3-0.25,0.54-0.55,0.54C114.96-49.68,114.72-49.92,114.72-50.23C114.72-50.22,114.72-50.22,114.72-50.23z"/>
<path id="Path_87" class="st0" d="M117.47-44.76c0.3,0,0.54,0.25,0.54,0.55c0,0.3-0.25,0.54-0.55,0.54c-0.3,0-0.54-0.25-0.54-0.55
	C116.92-44.52,117.16-44.76,117.47-44.76C117.47-44.76,117.47-44.76,117.47-44.76z"/>
<path id="Path_88" class="st0" d="M115.25-43.67c-0.3-0.01-0.54-0.25-0.53-0.55c0,0,0,0,0,0c0-0.3,0.25-0.54,0.55-0.53c0,0,0,0,0,0
	c0.3,0.01,0.53,0.25,0.54,0.54C115.82-43.91,115.57-43.67,115.25-43.67C115.26-43.67,115.26-43.67,115.25-43.67z"/>
<g id="Group_262" transform="translate(-36.346 -159.702)">
	<g id="Group_261" transform="translate(36.346 159.702)">
		<path id="Path_73" class="st0" d="M59.22-88.05h-6.91c-0.32,0-0.42-0.1-0.42-0.42c-0.02-1.66,0.52-3.28,1.54-4.6
			c0.8-1.03,1.89-1.79,3.13-2.19c1.9-0.66,3.97-0.59,5.82,0.2c1.94,0.8,3.38,2.48,3.88,4.52c0.19,0.68,0.28,1.39,0.28,2.1
			c0,0.3-0.11,0.41-0.4,0.41h-6.93L59.22-88.05z M52.54-88.69c0.07,0,0.13,0.01,0.19,0.01h2.67c0.71,0,1.42,0,2.12-0.01
			c0.06,0,0.12-0.03,0.16-0.08c0.13-0.25,0.25-0.5,0.38-0.78l-0.91-1.17c-0.25-0.32-0.49-0.63-0.74-0.94
			c-0.09-0.1-0.11-0.24-0.05-0.36c0.04-0.12,0.16-0.19,0.28-0.17c0.12,0.03,0.22,0.09,0.3,0.18c0.54,0.67,1.06,1.36,1.59,2.04
			c0.04,0.08,0.14,0.11,0.23,0.08c0.83-0.26,1.71,0.2,1.98,1.03c0,0.01,0.01,0.02,0.01,0.03c0.01,0.09,0.1,0.16,0.19,0.15
			c0,0,0.01,0,0.01,0c1.6,0,3.19,0,4.79,0c0.06,0,0.11-0.01,0.17-0.01c0-0.04,0.01-0.06,0-0.08c-0.03-0.73-0.16-1.45-0.4-2.14
			c-0.49-1.47-1.55-2.69-2.94-3.39c-1.53-0.75-3.26-0.96-4.93-0.6c-1.22,0.21-2.34,0.79-3.22,1.65
			C53.23-92.03,52.55-90.4,52.54-88.69L52.54-88.69z M60.09-88.69c-0.12-0.38-0.47-0.63-0.87-0.63c-0.4,0-0.75,0.25-0.87,0.63H60.09
			z"/>
		<path id="Path_74" class="st0" d="M53.63-89.93c0.19,0.04,0.44,0.09,0.68,0.16c0.15,0.05,0.23,0.21,0.19,0.36
			c-0.03,0.16-0.18,0.26-0.34,0.25c-0.24-0.04-0.47-0.09-0.7-0.16c-0.16-0.05-0.25-0.21-0.21-0.37
			C53.3-89.85,53.46-89.95,53.63-89.93z"/>
		<path id="Path_75" class="st0" d="M64.63-91.02c-0.06,0.09-0.12,0.16-0.2,0.23c-0.19,0.11-0.38,0.22-0.57,0.31
			c-0.15,0.08-0.33,0.03-0.42-0.12c0,0,0-0.01-0.01-0.01c-0.08-0.15-0.03-0.34,0.13-0.42c0,0,0,0,0,0c0.19-0.11,0.38-0.21,0.57-0.31
			c0.17-0.08,0.38,0,0.46,0.17C64.63-91.13,64.64-91.08,64.63-91.02z"/>
		<path id="Path_76" class="st0" d="M60.13-94c-0.02,0.17-0.04,0.37-0.07,0.57c-0.02,0.17-0.17,0.3-0.34,0.28c0,0,0,0,0,0
			c-0.17-0.01-0.3-0.17-0.29-0.34c0,0,0-0.01,0-0.01c0.02-0.2,0.04-0.39,0.06-0.59c0-0.18,0.14-0.32,0.32-0.32c0.01,0,0.03,0,0.04,0
			C60.03-94.39,60.14-94.24,60.13-94z"/>
		<path id="Path_77" class="st0" d="M57.62-93.19c-0.01,0.22-0.09,0.32-0.23,0.36c-0.14,0.05-0.29-0.01-0.36-0.13
			c-0.11-0.23-0.2-0.47-0.28-0.71c-0.04-0.14,0.03-0.28,0.16-0.33c0.12-0.08,0.28-0.06,0.36,0.06
			C57.42-93.69,57.52-93.41,57.62-93.19z"/>
		<path id="Path_78" class="st0" d="M62.37-93.45c0.28,0,0.46,0.25,0.34,0.45c-0.12,0.21-0.26,0.41-0.41,0.6
			c-0.1,0.12-0.29,0.15-0.42,0.05c-0.14-0.1-0.17-0.28-0.08-0.42c0.11-0.19,0.24-0.37,0.37-0.54C62.23-93.37,62.3-93.42,62.37-93.45
			z"/>
		<path id="Path_79" class="st0" d="M55.64-91.65c-0.07,0.08-0.12,0.2-0.2,0.24c-0.1,0.04-0.22,0.04-0.32-0.01
			c-0.19-0.13-0.37-0.28-0.54-0.45c-0.12-0.11-0.12-0.3-0.01-0.42c0.1-0.13,0.28-0.15,0.42-0.06c0.19,0.14,0.37,0.3,0.54,0.46
			C55.58-91.82,55.61-91.74,55.64-91.65z"/>
	</g>
</g>
<g id="Group_266" transform="translate(4429.819 876.774)">
	<path id="Path_100" class="st0" d="M-4375.86-870.61c0.02-3.25,2.67-5.88,5.92-5.87c3.24,0.03,5.86,2.67,5.86,5.91
		c-0.02,3.25-2.65,5.87-5.9,5.87C-4373.23-864.71-4375.85-867.35-4375.86-870.61z M-4364.87-870.59c-0.02-2.81-2.3-5.08-5.11-5.09
		c-2.8,0.01-5.07,2.29-5.08,5.09c0,2.81,2.28,5.1,5.09,5.1C-4367.15-865.5-4364.87-867.78-4364.87-870.59L-4364.87-870.59z"/>
	<path id="Path_101" class="st0" d="M-4368.3-871.77c-0.18,0.58-0.37,1.16-0.55,1.74c-0.2,0.64-0.4,1.28-0.6,1.92
		c-0.03,0.19-0.19,0.33-0.38,0.34c-0.22,0.01-0.33-0.12-0.4-0.3c-0.41-0.92-0.81-1.83-1.22-2.75c-0.04-0.08-0.07-0.16-0.14-0.29
		c-0.14,0.17-0.27,0.36-0.38,0.55c-0.18,0.46-0.67,0.71-1.14,0.59c-0.24-0.02-0.49-0.02-0.73-0.01c-0.26-0.01-0.42-0.15-0.43-0.36
		s0.15-0.39,0.42-0.39c0.29-0.01,0.58,0.02,0.86-0.01c0.13-0.02,0.25-0.08,0.33-0.18c0.27-0.37,0.51-0.75,0.75-1.13
		c0.1-0.16,0.24-0.3,0.42-0.23c0.15,0.06,0.27,0.17,0.34,0.31c0.38,0.8,0.73,1.62,1.09,2.43c0.03,0.08,0.07,0.15,0.14,0.29
		c0.06-0.16,0.1-0.26,0.13-0.36c0.37-1.16,0.73-2.33,1.1-3.49c0.06-0.2,0.15-0.36,0.38-0.36c0.25-0.01,0.34,0.17,0.42,0.37
		c0.26,0.72,0.52,1.44,0.77,2.17c0.02,0.13,0.15,0.22,0.28,0.2c0.23-0.01,0.47-0.01,0.71,0c0.2-0.02,0.37,0.13,0.39,0.33
		c0,0.01,0,0.02,0,0.04c0,0.2-0.17,0.37-0.37,0.37c-0.01,0-0.02,0-0.02,0c-0.38,0.01-0.77,0-1.15,0c-0.19,0.02-0.36-0.11-0.41-0.29
		c-0.15-0.41-0.3-0.82-0.45-1.23c-0.03-0.09-0.07-0.17-0.1-0.26L-4368.3-871.77z"/>
</g>
</svg>
