<?xml version="1.0" encoding="utf-8"?>
<!-- Generator: Adobe Illustrator 24.0.0, SVG Export Plug-In . SVG Version: 6.00 Build 0)  -->
<svg version="1.1" id="Layer_1" xmlns="http://www.w3.org/2000/svg" xmlns:xlink="http://www.w3.org/1999/xlink" x="0px" y="0px"
	 viewBox="0 0 21.7 22.9" style="enable-background:new 0 0 21.7 22.9;" xml:space="preserve">
<style type="text/css">
	.st0{fill:none;stroke:#F8B15E;}
</style>
<g>
	<path class="st0" d="M10.9,21.4c-0.7,0-1.3-0.1-2-0.2c-0.6-0.1-1.3-0.3-1.9-0.6c-0.6-0.3-1.2-0.6-1.7-0.9c-0.5-0.4-1.1-0.8-1.5-1.2
		c-0.5-0.5-0.9-1-1.2-1.5c-0.4-0.5-0.7-1.1-0.9-1.7C1.4,14.7,1.2,14,1,13.4c-0.1-0.6-0.2-1.3-0.2-2c0-0.7,0.1-1.3,0.2-2
		c0.1-0.6,0.3-1.3,0.6-1.9C1.9,7,2.2,6.4,2.5,5.9c0.4-0.5,0.8-1.1,1.2-1.5s1-0.9,1.5-1.2C5.8,2.8,6.4,2.5,7,2.2
		C7.6,2,8.3,1.8,8.9,1.6c0.6-0.1,1.3-0.2,2-0.2c0.7,0,1.3,0.1,2,0.2c0.6,0.1,1.3,0.3,1.9,0.6c0.6,0.3,1.2,0.6,1.7,0.9
		c0.5,0.4,1.1,0.8,1.5,1.2s0.9,1,1.2,1.5c0.4,0.5,0.7,1.1,0.9,1.7c0.3,0.6,0.4,1.2,0.6,1.9c0.1,0.6,0.2,1.3,0.2,2
		c0,0.7-0.1,1.3-0.2,2c-0.1,0.6-0.3,1.3-0.6,1.9c-0.3,0.6-0.6,1.2-0.9,1.7c-0.4,0.5-0.8,1.1-1.2,1.5c-0.5,0.5-1,0.9-1.5,1.2
		c-0.5,0.4-1.1,0.7-1.7,0.9c-0.6,0.3-1.2,0.4-1.9,0.6C12.2,21.4,11.5,21.4,10.9,21.4z"/>
	<line class="st0" x1="15.4" y1="11.4" x2="6.9" y2="11.4"/>
	<polyline class="st0" points="10.4,14.7 6.7,11.2 10.4,8 	"/>
</g>
</svg>
