<?xml version="1.0" encoding="utf-8"?>
<!-- Generator: Adobe Illustrator 24.0.0, SVG Export Plug-In . SVG Version: 6.00 Build 0)  -->
<svg version="1.1" id="Capa_1" xmlns="http://www.w3.org/2000/svg" xmlns:xlink="http://www.w3.org/1999/xlink" x="0px" y="0px"
	 viewBox="0 0 20.8 19.9" style="enable-background:new 0 0 20.8 19.9;" xml:space="preserve">
<style type="text/css">
	.st0{fill:#FDB25B;}
</style>
<g>
	<path class="st0" d="M9.9,0.8c0.4,0,0.7,0,1.1,0c0,0,0.1,0,0.1,0c1.3,0.1,2.5,0.4,3.6,1c3,1.7,4.7,4.3,4.9,7.7
		c0.1,1.7-0.3,3.2-1.1,4.7c-1.7,3-4.3,4.6-7.7,4.9c-1.7,0.1-3.2-0.3-4.7-1.1c-2.6-1.4-4.2-3.6-4.7-6.5c-0.1-0.3-0.1-0.7-0.1-1.1
		c0-0.4,0-0.7,0-1.1c0-0.1,0-0.1,0-0.2c0.1-1.3,0.4-2.5,1-3.6c1.4-2.6,3.6-4.2,6.5-4.7C9.1,0.8,9.5,0.8,9.9,0.8z M6,6.1
		c-2.5,3.2-1.1,7.6,2.3,9c3,1.3,6.6-0.1,7.8-3.2c1.3-3.3-0.6-6.7-3.5-7.7c-0.3,0.6-0.6,1.3-0.9,2c1.2,0.4,2,1.2,2.4,2.3
		c0.4,1.2,0.3,2.3-0.5,3.3c-1.3,1.8-3.7,2.1-5.4,0.8C6.5,11.2,6.6,9,7.6,7.7c0.5,0.5,1,1,1.5,1.5c0-1.6,0-3.2,0-4.7
		c-1.6,0-3.1,0-4.7,0C4.9,5.1,5.4,5.6,6,6.1z"/>
</g>
</svg>
