<?xml version="1.0" encoding="utf-8"?>
<!-- Generator: Adobe Illustrator 24.0.0, SVG Export Plug-In . SVG Version: 6.00 Build 0)  -->
<svg version="1.1" id="bold" xmlns="http://www.w3.org/2000/svg" xmlns:xlink="http://www.w3.org/1999/xlink" x="0px" y="0px"
	 viewBox="0 0 39 41" style="enable-background:new 0 0 39 41;" xml:space="preserve">
<style type="text/css">
	.st0{fill:#FBB25C;}
</style>
<g>
	<path class="st0" d="M25.9,11.8c1-1.5,2-3.1,2.9-4.6c7.7,4.7,10.2,15.7,4.4,23.5c-1.5-1.1-2.9-2.2-4.4-3.2
		C32.5,22.5,31.3,15.3,25.9,11.8z"/>
	<path class="st0" d="M23.7,10.7c-3-1-5.9-0.8-8.7,0.6c-2.8,1.4-4.6,3.7-5.5,6.7c-1.8-0.5-3.5-1-5.3-1.5c2.3-8.8,12.2-14.3,21.2-11
		C24.9,7.2,24.3,8.9,23.7,10.7z"/>
	<path class="st0" d="M5.7,29c-1.5-2.7-2.2-5.6-2.1-8.7c1.8,0.1,3.6,0.2,5.4,0.2c0.1,1,0.2,2.1,0.4,3.1c0.2,1,0.6,1.9,1.1,2.9
		c0.2-0.2,0.3-0.4,0.5-0.6c0.4-0.5,0.9-1,1.4-1.5c0.5-0.5,1.1-0.6,1.6-0.3c0.6,0.3,0.8,0.9,0.6,1.6c-0.3,1.4-0.7,2.9-1,4.3
		c-0.2,1.4-0.3,2.8-0.3,4.2c-0.1,1.1-1.1,1.7-2,1.2c-2.5-1.5-5.2-2.5-7.9-3.2c-0.8-0.2-1.2-0.6-1.2-1.2c0-0.6,0.3-1.2,0.9-1.3
		c0.7-0.2,1.5-0.3,2.3-0.5C5.4,29,5.5,29,5.7,29z"/>
	<path class="st0" d="M27.1,29.3c1.2,1.4,2.4,2.8,3.6,4.2c-3.1,2.6-6.6,3.8-10.6,3.9c0-1.8,0-3.7,0-5.5C22.7,31.9,25.1,31,27.1,29.3
		z"/>
</g>
</svg>
