<?xml version="1.0" encoding="utf-8"?>
<!-- Generator: Adobe Illustrator 24.0.0, SVG Export Plug-In . SVG Version: 6.00 Build 0)  -->
<svg version="1.1" id="Layer_1" xmlns="http://www.w3.org/2000/svg" xmlns:xlink="http://www.w3.org/1999/xlink" x="0px" y="0px"
	 viewBox="0 0 18.9 16" style="enable-background:new 0 0 18.9 16;" xml:space="preserve">
<style type="text/css">
	.st0{fill:#FA9351;}
</style>
<g id="Group_1447" transform="translate(290.593 -557.483)">
	<path id="Path_775" class="st0" d="M-280.8,568.9c0-0.3,0-0.5,0-0.7c0-0.5-0.3-0.8-0.8-0.6c-1.5,0.5-3,1-4.6,1.6
		c-0.3,0.1-0.5,0.3-0.5,0.5c0,0.3,0.1,0.5,0.4,0.6c1.4,0.7,2.8,1.5,4.2,2.2c0.5,0.3,0.9,0,0.9-0.6c0-0.2,0-0.4,0-0.6
		c0.1,0,0.2,0,0.4,0c1.1-0.1,2.3-0.4,3.3-0.9c1.2-0.6,2.2-1.7,2.6-3c0.1-0.3,0.1-0.5,0.1-0.8C-276.3,568.2-278.5,569-280.8,568.9z
		 M-281.5,570.4c0.2,0.2,0.2,0.6,0,0.8c0,0,0,0,0,0c-0.1,0.1-0.2,0.2-0.4,0.2c-0.2,0-0.3-0.1-0.4-0.2l-0.4-0.5l-0.4,0.5
		c-0.1,0.1-0.2,0.2-0.4,0.2c-0.1,0-0.3-0.1-0.4-0.2c-0.2-0.2-0.2-0.6,0-0.8c0,0,0,0,0,0l0.5-0.5l-0.5-0.5c-0.2-0.2-0.2-0.6,0-0.8
		c0,0,0,0,0,0c0.2-0.2,0.6-0.2,0.8,0c0,0,0,0,0,0l0.4,0.5l0.4-0.5c0.2-0.2,0.6-0.2,0.8,0c0,0,0,0,0,0c0.2,0.2,0.2,0.6,0,0.8
		c0,0,0,0,0,0l-0.5,0.5L-281.5,570.4z"/>
	<path id="Path_776" class="st0" d="M-281.6,562.8c-0.1,0.3,0.1,0.6,0.5,0.7c0.1,0,0.2,0,0.3,0c1.6-0.5,3.1-1.1,4.7-1.6
		c0.2-0.1,0.4-0.3,0.4-0.5c0-0.3-0.1-0.5-0.3-0.6c-1.5-0.8-2.9-1.5-4.4-2.3c-0.3-0.2-0.6-0.1-0.8,0.2c-0.1,0.1-0.1,0.2-0.1,0.3
		c0,0.2,0,0.5-0.1,0.7c-1.2,0-2.3,0.3-3.4,0.8c-1.3,0.6-2.4,1.7-2.9,3.1c-0.1,0.3-0.1,0.6-0.2,0.8c1.7-1.5,4-2.3,6.2-2.2
		C-281.5,562.4-281.5,562.6-281.6,562.8z M-280.9,560.4c-0.2-0.2-0.2-0.6,0-0.8c0,0,0,0,0,0c0.2-0.2,0.6-0.2,0.8,0c0,0,0,0,0,0
		l0.4,0.5l0.4-0.5c0.2-0.2,0.6-0.2,0.8,0c0,0,0,0,0,0c0.2,0.2,0.2,0.6,0,0.8c0,0,0,0,0,0l-0.5,0.5l0.5,0.5c0.2,0.2,0.2,0.6,0,0.8
		c0,0,0,0,0,0c-0.1,0.1-0.2,0.2-0.4,0.2c-0.2,0-0.3-0.1-0.4-0.2l-0.4-0.5l-0.4,0.5c-0.1,0.1-0.2,0.2-0.4,0.2c-0.1,0-0.3-0.1-0.4-0.2
		c-0.2-0.2-0.2-0.6,0-0.8c0,0,0,0,0,0l0.5-0.5L-280.9,560.4z"/>
	<path id="Path_777" class="st0" d="M-286.5,567.1c-0.1-1.4,0.2-2.8,0.9-4c-0.7,0.3-1.4,0.8-2,1.3c-0.1,0.1-0.1,0.2-0.1,0.3
		c0.1,0.6,0.3,1.1,0.5,1.7C-287,566.7-286.8,566.9-286.5,567.1L-286.5,567.1z"/>
	<path id="Path_778" class="st0" d="M-276.6,567.8c0.7-0.3,1.4-0.7,1.9-1.3c0.1-0.1,0.1-0.2,0.1-0.3c-0.1-0.5-0.2-0.9-0.4-1.4
		c-0.1-0.4-0.4-0.8-0.8-1C-275.7,565.2-276,566.5-276.6,567.8z"/>
</g>
</svg>
