<?xml version="1.0" encoding="utf-8"?>
<!-- Generator: Adobe Illustrator 24.0.0, SVG Export Plug-In . SVG Version: 6.00 Build 0)  -->
<svg version="1.1" xmlns="http://www.w3.org/2000/svg" xmlns:xlink="http://www.w3.org/1999/xlink" x="0px" y="0px"
	 viewBox="0 0 18.9 16" style="enable-background:new 0 0 18.9 16;" xml:space="preserve">
<style type="text/css">
	.st0{display:none;}
	.st1{display:inline;}
	.st2{fill:#FA9351;}
</style>
<g id="Layer_1" class="st0">
	<g id="Group_1447" transform="translate(290.593 -557.483)" class="st1">
		<path id="Path_775" class="st2" d="M-280.8,568.9c0-0.3,0-0.5,0-0.7c0-0.5-0.3-0.8-0.8-0.6c-1.5,0.5-3,1-4.6,1.6
			c-0.3,0.1-0.5,0.3-0.5,0.5c0,0.3,0.1,0.5,0.4,0.6c1.4,0.7,2.8,1.5,4.2,2.2c0.5,0.3,0.9,0,0.9-0.6c0-0.2,0-0.4,0-0.6
			c0.1,0,0.2,0,0.4,0c1.1-0.1,2.3-0.4,3.3-0.9c1.2-0.6,2.2-1.7,2.6-3c0.1-0.3,0.1-0.5,0.1-0.8C-276.3,568.2-278.5,569-280.8,568.9z
			 M-281.5,570.4c0.2,0.2,0.2,0.6,0,0.8c0,0,0,0,0,0c-0.1,0.1-0.2,0.2-0.4,0.2c-0.2,0-0.3-0.1-0.4-0.2l-0.4-0.5l-0.4,0.5
			c-0.1,0.1-0.2,0.2-0.4,0.2c-0.1,0-0.3-0.1-0.4-0.2c-0.2-0.2-0.2-0.6,0-0.8c0,0,0,0,0,0l0.5-0.5l-0.5-0.5c-0.2-0.2-0.2-0.6,0-0.8
			c0,0,0,0,0,0c0.2-0.2,0.6-0.2,0.8,0c0,0,0,0,0,0l0.4,0.5l0.4-0.5c0.2-0.2,0.6-0.2,0.8,0c0,0,0,0,0,0c0.2,0.2,0.2,0.6,0,0.8
			c0,0,0,0,0,0l-0.5,0.5L-281.5,570.4z"/>
		<path id="Path_776" class="st2" d="M-281.6,562.8c-0.1,0.3,0.1,0.6,0.5,0.7c0.1,0,0.2,0,0.3,0c1.6-0.5,3.1-1.1,4.7-1.6
			c0.2-0.1,0.4-0.3,0.4-0.5c0-0.3-0.1-0.5-0.3-0.6c-1.5-0.8-2.9-1.5-4.4-2.3c-0.3-0.2-0.6-0.1-0.8,0.2c-0.1,0.1-0.1,0.2-0.1,0.3
			c0,0.2,0,0.5-0.1,0.7c-1.2,0-2.3,0.3-3.4,0.8c-1.3,0.6-2.4,1.7-2.9,3.1c-0.1,0.3-0.1,0.6-0.2,0.8c1.7-1.5,4-2.3,6.2-2.2
			C-281.5,562.4-281.5,562.6-281.6,562.8z M-280.9,560.4c-0.2-0.2-0.2-0.6,0-0.8c0,0,0,0,0,0c0.2-0.2,0.6-0.2,0.8,0c0,0,0,0,0,0
			l0.4,0.5l0.4-0.5c0.2-0.2,0.6-0.2,0.8,0c0,0,0,0,0,0c0.2,0.2,0.2,0.6,0,0.8c0,0,0,0,0,0l-0.5,0.5l0.5,0.5c0.2,0.2,0.2,0.6,0,0.8
			c0,0,0,0,0,0c-0.1,0.1-0.2,0.2-0.4,0.2c-0.2,0-0.3-0.1-0.4-0.2l-0.4-0.5l-0.4,0.5c-0.1,0.1-0.2,0.2-0.4,0.2
			c-0.1,0-0.3-0.1-0.4-0.2c-0.2-0.2-0.2-0.6,0-0.8c0,0,0,0,0,0l0.5-0.5L-280.9,560.4z"/>
		<path id="Path_777" class="st2" d="M-286.5,567.1c-0.1-1.4,0.2-2.8,0.9-4c-0.7,0.3-1.4,0.8-2,1.3c-0.1,0.1-0.1,0.2-0.1,0.3
			c0.1,0.6,0.3,1.1,0.5,1.7C-287,566.7-286.8,566.9-286.5,567.1L-286.5,567.1z"/>
		<path id="Path_778" class="st2" d="M-276.6,567.8c0.7-0.3,1.4-0.7,1.9-1.3c0.1-0.1,0.1-0.2,0.1-0.3c-0.1-0.5-0.2-0.9-0.4-1.4
			c-0.1-0.4-0.4-0.8-0.8-1C-275.7,565.2-276,566.5-276.6,567.8z"/>
	</g>
</g>
<g id="Layer_2" class="st0">
	<g id="Group_1446" transform="translate(0 -298.89)" class="st1">
		<path id="Path_772" class="st2" d="M9.1,309.5c-0.3,0-0.6-0.3-0.6-0.6c0-0.3,0.3-0.6,0.6-0.6l0,0h3.7v-2.5H7.9
			c-0.3,0-0.6-0.3-0.6-0.6c0,0,0,0,0,0v-4.8H2.9c-0.3,0-0.6,0.3-0.6,0.6c0,0,0,0,0,0v11.5c0,0.3,0.3,0.6,0.6,0.6h9.2
			c0.3,0,0.6-0.3,0.6-0.6c0,0,0,0,0,0v-3.1H9.1z"/>
		<path id="Path_773" class="st2" d="M16.5,308.9C16.5,308.9,16.5,308.9,16.5,308.9C16.5,308.9,16.5,308.9,16.5,308.9
			C16.5,308.8,16.5,308.8,16.5,308.9c0-0.1,0-0.1,0-0.1s0,0,0,0l0,0l0,0l0,0l0,0l0,0l0,0l0,0c0,0,0,0,0,0l0,0l-1.4-1.4
			c-0.2-0.2-0.6-0.2-0.8,0c-0.2,0.2-0.2,0.6,0,0.8l0.5,0.5h-1.8v1.2h1.8l-0.5,0.5c-0.2,0.2-0.2,0.6,0,0.8c0.2,0.2,0.6,0.2,0.8,0
			l1.4-1.4l0,0c0,0,0,0,0,0l0,0l0,0l0,0l0,0l0,0l0,0c0,0,0,0,0,0s0,0,0,0s0,0,0,0s0,0,0,0s0,0,0,0s0,0,0,0
			C16.5,309,16.5,309,16.5,308.9L16.5,308.9C16.5,308.9,16.5,308.9,16.5,308.9z"/>
		<path id="Path_774" class="st2" d="M12.4,304.8l-3.9-3.9v3.9H12.4z"/>
	</g>
</g>
<g id="Layer_3">
	<g id="Group_1445" transform="translate(290.593 -557.483)">
		<path id="Path_768" class="st2" d="M-280.8,568.6c2.1,0.1,4.2-0.6,5.8-2c0,0.2-0.1,0.5-0.1,0.7c-0.4,1.2-1.3,2.2-2.4,2.7
			c-0.9,0.5-2,0.8-3,0.8c-0.1,0-0.2,0-0.3,0c0,0.2,0,0.4,0,0.6c0,0.5-0.4,0.8-0.9,0.5c-1.3-0.7-2.6-1.4-3.9-2.1
			c-0.2-0.1-0.4-0.3-0.4-0.6c0-0.2,0.2-0.5,0.5-0.5c1.4-0.5,2.8-1,4.2-1.4c0.5-0.2,0.8,0.1,0.8,0.6
			C-280.8,568.2-280.8,568.4-280.8,568.6z"/>
		<path id="Path_769" class="st2" d="M-281.5,562.3c-2.1-0.1-4.2,0.6-5.8,2c0-0.3,0.1-0.5,0.1-0.8c0.5-1.3,1.4-2.3,2.7-2.8
			c1-0.5,2-0.7,3.1-0.7c0-0.2,0-0.4,0.1-0.6c0-0.3,0.2-0.5,0.5-0.5c0.1,0,0.2,0,0.3,0.1c1.3,0.7,2.7,1.4,4,2.1
			c0.2,0.1,0.4,0.3,0.3,0.6c0,0.2-0.2,0.4-0.4,0.5c-1.4,0.5-2.9,1-4.3,1.5c-0.3,0.1-0.6,0-0.7-0.3c0-0.1-0.1-0.2,0-0.3
			C-281.5,562.8-281.5,562.6-281.5,562.3z"/>
		<path id="Path_770" class="st2" d="M-285.3,563.3c-0.6,1.1-0.9,2.4-0.8,3.7l-0.1,0c-0.2-0.2-0.4-0.4-0.5-0.7
			c-0.2-0.5-0.3-1-0.5-1.6c0-0.1,0-0.2,0.1-0.3C-286.6,564-286,563.6-285.3,563.3z"/>
		<path id="Path_771" class="st2" d="M-277,567.6c0.6-1.2,0.8-2.4,0.8-3.7c0.3,0.2,0.6,0.6,0.7,1c0.1,0.4,0.2,0.8,0.3,1.3
			c0,0.1,0,0.2-0.1,0.3C-275.7,566.9-276.3,567.3-277,567.6z"/>
	</g>
</g>
</svg>
