<?xml version="1.0" encoding="utf-8"?>
<!-- Generator: Adobe Illustrator 24.0.0, SVG Export Plug-In . SVG Version: 6.00 Build 0)  -->
<svg version="1.1" id="Capa_1" xmlns="http://www.w3.org/2000/svg" xmlns:xlink="http://www.w3.org/1999/xlink" x="0px" y="0px"
	 viewBox="0 0 16.9 18" style="enable-background:new 0 0 16.9 18;" xml:space="preserve">
<style type="text/css">
	.st0{fill:#FDB25B;}
</style>
<path class="st0" d="M12.7,11.6c0.8-1.1,1.2-2.4,1.2-3.8c0-3.5-2.9-6.4-6.4-6.4S1.2,4.3,1.2,7.8s2.9,6.4,6.4,6.4
	c1.4,0,2.7-0.5,3.8-1.2l4.2,4.2l1.4-1.4C16.9,15.7,12.7,11.6,12.7,11.6L12.7,11.6z M7.5,12.2c-2.4,0-4.4-2-4.4-4.4s2-4.4,4.4-4.4
	s4.4,2,4.4,4.4S10,12.2,7.5,12.2L7.5,12.2z"/>
</svg>
