<svg id="Component_2_1" data-name="Component 2 – 1" xmlns="http://www.w3.org/2000/svg" width="9.802" height="10.5" viewBox="0 0 9.802 10.5">
  <path id="Path_688" data-name="Path 688" d="M626.36,1391.96a.453.453,0,0,0-.63,0l-1.2,1.18v-8.58a.445.445,0,0,0-.89,0v8.58l-1.19-1.18a.453.453,0,0,0-.63,0,.412.412,0,0,0,0,.61l1.95,1.93a.447.447,0,0,0,.31.12h.01a.472.472,0,0,0,.32-.12l1.95-1.93A.428.428,0,0,0,626.36,1391.96Z" transform="translate(-616.685 -1384.12)" fill="#868686" fill-rule="evenodd"/>
  <path id="Path_689" data-name="Path 689" d="M626.36,1391.96a.453.453,0,0,0-.63,0l-1.2,1.18v-8.58a.445.445,0,0,0-.89,0v8.58l-1.19-1.18a.453.453,0,0,0-.63,0,.412.412,0,0,0,0,.61l1.95,1.93a.447.447,0,0,0,.31.12h.01a.472.472,0,0,0,.32-.12l1.95-1.93A.428.428,0,0,0,626.36,1391.96Z" transform="translate(626.488 1394.62) rotate(180)" fill="#868686" fill-rule="evenodd"/>
</svg>
