<?xml version="1.0" encoding="utf-8"?>
<!-- Generator: Adobe Illustrator 24.0.0, SVG Export Plug-In . SVG Version: 6.00 Build 0)  -->
<svg version="1.1" id="Capa_1" xmlns="http://www.w3.org/2000/svg" xmlns:xlink="http://www.w3.org/1999/xlink" x="0px" y="0px"
	 viewBox="0 0 13.8 9.5" style="enable-background:new 0 0 13.8 9.5;" xml:space="preserve">
<style type="text/css">
	.st0{fill:#FDB25B;}
</style>
<g id="Group_1327" transform="translate(0 -389)">
	<g id="Group_1327-2" transform="translate(0 389)">
		<path id="Path_684" class="st0" d="M8.9,1C5.7-0.1,2.1,1.6,1,4.9C0.7,5.6,0.6,6.3,0.6,6.9c0,0.8,0.1,1.5,0.3,2.3
			c0,0.1,0.1,0.2,0.3,0.3h11.5c0.1,0,0.3-0.1,0.3-0.3c0.1-0.7,0.2-1.5,0.3-2.3C13.2,4.2,11.5,1.8,8.9,1z M6.9,1.9
			c0.3,0,0.6,0.3,0.6,0.6c0,0.3-0.3,0.6-0.6,0.6S6.3,2.9,6.3,2.5C6.3,2.2,6.6,1.9,6.9,1.9z M2.5,7.6C2.2,7.6,1.9,7.3,1.9,7
			c0-0.3,0.3-0.6,0.6-0.6c0,0,0,0,0,0c0.3,0,0.6,0.3,0.6,0.6C3.2,7.3,2.9,7.6,2.5,7.6C2.5,7.6,2.5,7.6,2.5,7.6z M4.3,4.3
			c-0.2,0.2-0.6,0.3-0.9,0c0,0,0,0,0,0C3.2,4,3.1,3.7,3.3,3.4c0.2-0.2,0.6-0.3,0.9,0c0,0,0,0,0,0C4.5,3.6,4.5,4,4.3,4.3L4.3,4.3z
			 M6.9,8.2C6.2,8.2,5.6,7.6,5.8,7s1.1-2.5,1.1-2.5S7.9,6.3,8.1,7C8.3,7.6,7.6,8.2,6.9,8.2L6.9,8.2z M10.5,4.3
			c-0.2,0.2-0.6,0.2-0.9,0c-0.2-0.2-0.2-0.6,0-0.9c0.2-0.2,0.6-0.2,0.9,0c0,0,0,0,0,0C10.7,3.7,10.7,4,10.5,4.3L10.5,4.3z M11.3,7.6
			c-0.3,0-0.6-0.3-0.6-0.6c0-0.3,0.3-0.6,0.6-0.6C11.7,6.3,12,6.6,12,7l0,0C12,7.3,11.7,7.6,11.3,7.6C11.4,7.6,11.4,7.6,11.3,7.6
			L11.3,7.6z"/>
	</g>
</g>
</svg>
