<?xml version="1.0" encoding="iso-8859-1"?>
<!-- Generator: Adobe Illustrator 24.0.0, SVG Export Plug-In . SVG Version: 6.00 Build 0)  -->
<svg version="1.1" xmlns="http://www.w3.org/2000/svg" xmlns:xlink="http://www.w3.org/1999/xlink" x="0px" y="0px"
	 viewBox="0 0 19 22" style="enable-background:new 0 0 19 22;" xml:space="preserve">
<g id="Layer_1">
	<g id="Group_1547" transform="translate(-786.919 -331.548)">
		<path id="Path_813" style="fill:#FBB25C;" d="M800.24,344.09c0.231,0.042,0.5,0.075,0.762,0.139
			c2.562,0.621,4.359,2.923,4.339,5.559c0.165,1.438-0.866,2.738-2.305,2.903c-0.056,0.006-0.111,0.011-0.167,0.014
			c-0.672,0.106-1.35,0.16-2.03,0.162c-2.745,0.018-5.491,0.025-8.236,0c-0.803-0.003-1.605-0.087-2.391-0.252
			c-1.226-0.182-2.121-1.253-2.083-2.492c-0.185-2.976,1.955-5.591,4.908-6c0.072-0.009,0.146-0.008,0.191-0.01
			c0.716,1.633,1.639,3.167,2.744,4.566c0.034-0.457,0.067-0.915,0.1-1.373c0-0.066,0-0.134,0.012-0.2
			c0.136-0.379-0.003-0.802-0.337-1.027c-0.207-0.162-0.323-0.414-0.312-0.677c0.847,0.237,1.743,0.237,2.59,0
			c-0.024,0.342-0.203,0.655-0.487,0.848c-0.161,0.1-0.241,0.292-0.2,0.477c0.058,0.648,0.1,1.3,0.171,1.956
			C798.601,347.268,799.518,345.726,800.24,344.09z"/>
		<path id="Path_814" style="fill:#FBB25C;" d="M801.26,336.756c0.003,0.05,0.003,0.099,0,0.149
			c-0.041,0.384-0.014,0.683,0.439,0.869c0.379,0.187,0.606,0.585,0.574,1.006c0.005,0.315,0,0.63,0,0.945
			c0.022,0.649-0.436,1.217-1.075,1.333c-0.111,0.04-0.215,0.098-0.307,0.172c-0.426,0.355-0.756,0.81-0.962,1.325
			c-0.293,0.522-0.684,0.984-1.151,1.358c-1.185,1.032-2.953,1.023-4.128-0.021c-0.793-0.678-1.382-1.563-1.7-2.557
			c-0.031-0.171-0.192-0.287-0.364-0.262c-0.721,0.057-1.351-0.482-1.408-1.202c-0.005-0.07-0.005-0.141,0.001-0.212
			c0-0.282,0-0.564,0-0.846c-0.013-0.515,0.299-0.982,0.78-1.167c0.142-0.044,0.23-0.185,0.207-0.332
			c-0.017-0.522,0.005-1.044,0.065-1.563c0.322-1.794,1.729-3.196,3.524-3.513c1.961-0.421,3.971,0.464,4.984,2.195
			C801.134,335.141,801.315,335.948,801.26,336.756z M793.131,339.311c-0.008,0.086-0.015,0.127-0.014,0.167
			c-0.005,1.467,0.636,2.861,1.752,3.813c1.776,1.52,3.769,0.484,4.634-1.122c-0.285,0.081-0.558,0.172-0.838,0.233
			s-0.588,0.1-0.881,0.15c-0.047,0.014-0.088,0.043-0.117,0.082c-0.137,0.172-0.354,0.26-0.572,0.234
			c-0.24-0.014-0.481,0-0.721-0.015c-0.303,0.01-0.557-0.228-0.567-0.531c0-0.003,0-0.007,0-0.01
			c-0.022-0.315,0.214-0.588,0.528-0.612c0.272-0.031,0.546-0.035,0.819-0.012c0.164,0.042,0.322,0.107,0.468,0.192
			c0.061,0.037,0.129,0.06,0.2,0.066c0.713-0.062,1.403-0.281,2.021-0.641c0.08-0.041,0.146-0.105,0.189-0.184
			c0.248-0.562,0.337-1.181,0.258-1.79l-0.427,0.2c0.011-0.1,0.026-0.183,0.027-0.264c0.01-0.521,0.049-1.044,0.012-1.562
			c-0.042-0.285-0.135-0.559-0.275-0.811c-0.078-0.165-0.225-0.216-0.435-0.124c-1.536,0.71-3.303,0.723-4.849,0.036
			c-0.323-0.137-0.443-0.093-0.6,0.225c-0.071,0.124-0.118,0.259-0.139,0.4c-0.039,0.428-0.067,0.857-0.074,1.286
			c0,0.266,0.039,0.533,0.063,0.817L793.131,339.311z M800.212,335.757c-0.388-1.717-1.992-2.878-3.744-2.712
			c-1.615,0.1-3.255,1.477-3.252,2.752c1.296-1.94,3.92-2.462,5.86-1.166c0.448,0.299,0.835,0.681,1.139,1.126H800.212z"/>
	</g>
</g>
<g id="Layer_2" style="display:none;">
	<g style="display:inline;">
		<path style="fill:#FBB25C;" d="M0.864,17.503c0.061-0.421,0.096-0.85,0.187-1.263c0.361-1.625,1.311-2.671,2.68-3.285
			c0.766-0.344,1.573-0.507,2.389-0.617c0.076-0.01,0.178,0.06,0.244,0.123c0.993,0.963,1.981,1.564,2.971,2.531
			c0.001,0.001,0.001,0.001,0.002,0.002c0.097,0.095,0.242,0.094,0.339,0c0.239-0.231,0.477-0.417,0.715-0.649
			c0.751-0.734,1.504-1.145,2.251-1.885c0.107-0.106,0.206-0.141,0.35-0.118c0.89,0.142,1.77,0.327,2.59,0.756
			c1.523,0.796,2.387,2.139,2.504,3.995c0.082,1.297,0.039,2.605,0.051,3.907H0.864C0.864,19.832,0.864,18.667,0.864,17.503z"/>
		<path style="fill:#FBB25C;" d="M9.531,1.001c1.152,0.013,2.238,0.255,3.169,0.977c1.029,0.798,1.586,1.883,1.783,3.142
			c0.325,2.078-0.142,3.979-1.432,5.648c-0.798,1.032-1.844,1.676-3.168,1.789c-1.399,0.12-2.615-0.344-3.534-1.376
			C4.465,9.07,3.92,6.621,4.887,3.942c0.651-1.803,2.072-2.706,3.954-2.908c0.16-0.017,0.321-0.023,0.482-0.032
			C9.392,0.998,9.462,1.001,9.531,1.001z M13.222,6.894c-0.088-0.024-0.152-0.045-0.217-0.06c-1.424-0.325-2.798-0.788-4.091-1.472
			C8.789,5.296,8.71,5.33,8.602,5.391c-0.624,0.356-1.25,0.71-1.884,1.048C6.423,6.596,6.108,6.714,5.806,6.848
			C5.82,6.961,5.83,7.053,5.844,7.143C6.04,8.369,6.493,9.47,7.401,10.348c1.056,1.021,2.545,1.193,3.727,0.385
			C12.466,9.819,12.991,8.441,13.222,6.894z"/>
		<path style="fill:#FFFFFF;" d="M9.971,17.158c-0.388,0-0.743,0-1.136,0c0.104,0.254-0.175,0.577,0.218,0.739
			c0,0.414,0,0.833,0,1.249c-0.22,0.075-0.268,0.292-0.168,0.725c0.424,0,0.848,0,1.28,0c0-0.229,0-0.442,0-0.652
			c-0.192-0.069-0.193-0.069-0.194-0.27c-0.001-0.345,0-0.69,0-1.035C9.971,17.663,9.971,17.412,9.971,17.158z"/>
		<path style="fill:#FFFFFF;" d="M9.495,16.723c0.285,0.002,0.515-0.22,0.522-0.502c0.007-0.289-0.231-0.525-0.524-0.522
			c-0.285,0.003-0.51,0.229-0.509,0.513C8.984,16.493,9.212,16.721,9.495,16.723z"/>
	</g>
</g>
<g id="Layer_3" style="display:none;">
	<g style="display:inline;">
		<path style="fill:#FBB25C;" d="M9.425,10.187c1.724,0,3.448,0,5.173,0c1.151,0,1.898,0.744,1.898,1.891
			c0.001,2.046,0.001,4.092,0,6.138c0,1.135-0.751,1.889-1.882,1.889c-3.468,0.001-6.936,0.001-10.404,0
			c-1.122,0-1.878-0.755-1.879-1.873c-0.001-2.059-0.001-4.118,0-6.177c0.001-1.11,0.754-1.866,1.862-1.867
			C5.937,10.186,7.681,10.187,9.425,10.187z M5.555,15.822c0.133,0.076,0.229,0.131,0.325,0.186
			c0.102,0.059,0.204,0.118,0.307,0.175c0.169,0.093,0.329,0.08,0.471-0.052c0.191-0.179,0.155-0.466-0.083-0.618
			c-0.196-0.125-0.4-0.236-0.627-0.368c0.134-0.078,0.234-0.137,0.335-0.195c0.482-0.278,0.603-0.463,0.437-0.708
			c-0.128-0.19-0.281-0.333-0.818,0.027c-0.1,0.067-0.21,0.121-0.318,0.181c-0.015-0.035-0.025-0.046-0.025-0.057
			C5.556,14.197,5.557,14,5.555,13.804c-0.003-0.283-0.16-0.467-0.395-0.464c-0.235,0.003-0.384,0.185-0.386,0.473
			c-0.001,0.206,0,0.412,0,0.61c-0.032,0.009-0.04,0.014-0.044,0.012c-0.183-0.102-0.365-0.206-0.548-0.307
			c-0.237-0.131-0.466-0.083-0.58,0.119c-0.116,0.203-0.041,0.416,0.198,0.558c0.183,0.109,0.368,0.216,0.58,0.341
			c-0.231,0.135-0.434,0.249-0.633,0.371c-0.155,0.095-0.225,0.241-0.186,0.42c0.037,0.169,0.154,0.286,0.326,0.296
			c0.103,0.006,0.217-0.037,0.313-0.084c0.188-0.093,0.367-0.205,0.574-0.324c0,0.253-0.002,0.462,0,0.672
			c0.003,0.271,0.157,0.451,0.385,0.455c0.234,0.004,0.394-0.181,0.396-0.464C5.556,16.279,5.555,16.07,5.555,15.822z
			 M10.196,15.145c0.213-0.124,0.393-0.227,0.572-0.333c0.252-0.149,0.328-0.364,0.205-0.571c-0.122-0.205-0.345-0.243-0.599-0.099
			c-0.18,0.102-0.358,0.205-0.569,0.326c0-0.254,0.002-0.468-0.001-0.682C9.8,13.517,9.64,13.338,9.411,13.34
			c-0.23,0.002-0.385,0.18-0.388,0.451c-0.002,0.213,0,0.426,0,0.63c-0.031,0.011-0.039,0.016-0.042,0.014
			c-0.183-0.102-0.365-0.206-0.548-0.307c-0.238-0.131-0.466-0.084-0.581,0.117c-0.116,0.203-0.042,0.416,0.196,0.559
			c0.183,0.109,0.368,0.216,0.581,0.34c-0.236,0.139-0.445,0.256-0.648,0.383c-0.148,0.093-0.209,0.237-0.171,0.407
			c0.037,0.169,0.153,0.286,0.325,0.297c0.103,0.007,0.217-0.036,0.313-0.083c0.189-0.094,0.368-0.206,0.576-0.325
			c0,0.265-0.02,0.491,0.008,0.709c0.016,0.123,0.084,0.272,0.178,0.346c0.245,0.192,0.581-0.001,0.593-0.33
			c0.009-0.231,0.002-0.462,0.002-0.727c0.224,0.129,0.409,0.239,0.597,0.342c0.235,0.13,0.467,0.078,0.579-0.124
			c0.11-0.198,0.039-0.409-0.188-0.547C10.608,15.381,10.42,15.276,10.196,15.145z M12.846,15.125
			c-0.009,0.03-0.009,0.039-0.013,0.041c-0.18,0.107-0.36,0.213-0.539,0.322c-0.236,0.143-0.309,0.359-0.191,0.561
			c0.116,0.198,0.346,0.243,0.583,0.112c0.187-0.104,0.371-0.213,0.587-0.337c0,0.255-0.021,0.478,0.008,0.695
			c0.018,0.129,0.084,0.287,0.182,0.363c0.245,0.191,0.578-0.006,0.59-0.336c0.008-0.23,0.002-0.461,0.002-0.721
			c0.238,0.136,0.434,0.254,0.636,0.36c0.195,0.103,0.39,0.06,0.509-0.098c0.144-0.191,0.094-0.434-0.127-0.574
			c-0.196-0.124-0.4-0.235-0.625-0.367c0.226-0.131,0.428-0.228,0.605-0.359c0.096-0.071,0.202-0.196,0.209-0.304
			c0.008-0.115-0.068-0.263-0.153-0.352c-0.113-0.119-0.275-0.105-0.42-0.024c-0.203,0.113-0.404,0.23-0.634,0.361
			c0-0.242,0.001-0.444,0-0.646c-0.002-0.299-0.157-0.486-0.398-0.481c-0.234,0.004-0.382,0.187-0.384,0.475
			c-0.001,0.206,0,0.412,0,0.611c-0.034,0.007-0.042,0.011-0.046,0.009c-0.177-0.099-0.353-0.199-0.53-0.298
			c-0.249-0.139-0.48-0.095-0.596,0.113c-0.114,0.204-0.04,0.414,0.201,0.558C12.48,14.914,12.662,15.018,12.846,15.125z"/>
		<path style="fill:#FBB25C;" d="M14.023,9.399c-0.239,0-0.481,0-0.751,0c0-0.074,0-0.144,0-0.213c0-0.833,0.002-1.666-0.001-2.499
			c-0.006-1.915-1.283-3.465-3.161-3.84C7.998,2.424,5.848,3.979,5.595,6.114C5.568,6.341,5.558,6.571,5.557,6.8
			C5.552,7.658,5.555,8.517,5.555,9.39c-0.262,0-0.513,0-0.782,0c0-0.117,0-0.227,0-0.337c0-0.794-0.003-1.587,0.001-2.381
			c0.01-2.241,1.511-4.093,3.701-4.57c2.647-0.577,5.328,1.36,5.536,4.056C14.092,7.226,14.023,8.305,14.023,9.399z"/>
	</g>
</g>
<g id="Layer_4" style="display:none;">
	<g style="display:inline;">
		<path style="fill:#FBB25C;" d="M9.711,1.821c0.25,0.107,0.523,0.18,0.744,0.33c0.425,0.289,0.631,0.722,0.652,1.236
			c0.011,0.268,0.002,0.537,0.002,0.806c0.254,0.104,0.509,0.189,0.745,0.31c2.032,1.033,3.104,2.69,3.197,4.969
			c0.026,0.632-0.003,1.268,0.039,1.899c0.106,1.595,0.651,3.037,1.592,4.326c0.211,0.289,0.45,0.558,0.687,0.826
			c0.168,0.19,0.257,0.393,0.15,0.638c-0.109,0.25-0.319,0.33-0.582,0.33c-4.96-0.002-9.92-0.002-14.88,0
			c-0.264,0-0.473-0.081-0.582-0.331c-0.106-0.244-0.022-0.45,0.152-0.636c1.11-1.183,1.843-2.567,2.141-4.162
			c0.108-0.578,0.131-1.173,0.168-1.762c0.039-0.637-0.021-1.288,0.083-1.912c0.365-2.185,1.635-3.645,3.699-4.425
			c0.05-0.019,0.101-0.034,0.165-0.055c0-0.232,0-0.464,0-0.697C7.884,2.647,8.37,2.041,9.215,1.848
			C9.238,1.843,9.259,1.83,9.281,1.821C9.424,1.821,9.568,1.821,9.711,1.821z M8.96,3.983c0.364,0,0.708,0,1.064,0
			c0-0.214,0.022-0.435-0.006-0.65c-0.034-0.267-0.288-0.45-0.55-0.436C9.206,2.911,8.98,3.121,8.963,3.387
			C8.95,3.582,8.96,3.778,8.96,3.983z"/>
		<path style="fill:#FBB25C;" d="M9.209,20.179c-0.404-0.083-0.798-0.189-1.15-0.419c-0.404-0.264-0.721-0.604-0.946-1.03
			c-0.024-0.045-0.04-0.095-0.065-0.156c1.638,0,3.258,0,4.935,0c-0.154,0.232-0.271,0.446-0.423,0.63
			c-0.436,0.526-0.996,0.843-1.676,0.944c-0.034,0.005-0.067,0.02-0.101,0.031C9.591,20.179,9.4,20.179,9.209,20.179z"/>
		<path style="fill:#FBB25C;" d="M1.429,9.264C1.513,7.192,2.285,5.369,3.768,3.85C3.99,3.623,4.325,3.612,4.54,3.815
			C4.76,4.023,4.767,4.363,4.536,4.6C3.964,5.187,3.495,5.844,3.15,6.588C2.728,7.5,2.517,8.46,2.503,9.464
			C2.502,9.54,2.495,9.62,2.472,9.692c-0.077,0.247-0.317,0.402-0.564,0.373c-0.257-0.03-0.46-0.242-0.477-0.503
			C1.425,9.479,1.429,9.395,1.429,9.264z"/>
		<path style="fill:#FBB25C;" d="M17.555,9.324c0,0.101,0.015,0.205-0.003,0.304c-0.049,0.272-0.303,0.462-0.571,0.438
			c-0.279-0.024-0.467-0.249-0.497-0.543c-0.055-0.551-0.084-1.11-0.203-1.648c-0.272-1.227-0.879-2.286-1.749-3.193
			c-0.295-0.307-0.326-0.631-0.084-0.863c0.243-0.233,0.568-0.188,0.859,0.117c1.191,1.246,1.915,2.722,2.171,4.425
			c0.048,0.318,0.064,0.641,0.095,0.962C17.567,9.323,17.561,9.324,17.555,9.324z"/>
	</g>
</g>
<g id="Layer_5" style="display:none;">
	<g style="display:inline;">
		<path style="fill:#FBB25C;" d="M14.312,2.1c0.28,0.067,0.567,0.113,0.839,0.204c1.633,0.547,2.669,2.168,2.494,3.882
			c-0.173,1.695-1.487,3.056-3.176,3.291c-2.008,0.28-3.846-1.079-4.182-3.092C9.96,4.423,11.308,2.522,13.28,2.164
			c0.101-0.018,0.201-0.042,0.302-0.064C13.825,2.1,14.069,2.1,14.312,2.1z"/>
		<path style="fill:#FBB25C;" d="M8.47,19.9c-0.349-0.116-0.721-0.187-1.043-0.355c-0.749-0.391-1.196-1.032-1.392-1.864
			c1.817,0,3.618,0,5.471,0c-0.094,0.245-0.159,0.483-0.272,0.697c-0.442,0.838-1.136,1.338-2.075,1.492
			c-0.033,0.005-0.065,0.02-0.097,0.031C8.864,19.9,8.667,19.9,8.47,19.9z"/>
		<path style="fill:#FBB25C;" d="M9.24,3.614C8.512,5.342,8.574,7.02,9.587,8.598c1.009,1.573,2.499,2.338,4.341,2.412
			c0.069,0.383,0.115,0.768,0.211,1.14c0.244,0.95,0.74,1.756,1.481,2.401c0.368,0.32,0.6,0.694,0.551,1.193
			c-0.068,0.683-0.602,1.149-1.339,1.189c-0.052,0.003-0.104,0.002-0.156,0.002c-3.946,0-7.892,0.002-11.838-0.005
			c-0.227,0-0.468-0.035-0.677-0.118c-0.91-0.359-1.111-1.492-0.382-2.143c0.602-0.537,1.085-1.154,1.399-1.899
			c0.245-0.583,0.38-1.191,0.387-1.823c0.008-0.712,0.001-1.425,0.004-2.138c0.008-2.404,1.541-4.411,3.857-5.053
			c0.564-0.156,1.14-0.195,1.722-0.16C9.173,3.6,9.2,3.608,9.24,3.614z"/>
	</g>
</g>
</svg>
