<?xml version="1.0" encoding="utf-8"?>
<!-- Generator: Adobe Illustrator 24.0.0, SVG Export Plug-In . SVG Version: 6.00 Build 0)  -->
<svg version="1.1" id="Capa_1" xmlns="http://www.w3.org/2000/svg" xmlns:xlink="http://www.w3.org/1999/xlink" x="0px" y="0px"
	 viewBox="0 0 20.8 19.9" style="enable-background:new 0 0 20.8 19.9;" xml:space="preserve">
<style type="text/css">
	.st0{fill:#FDB25B;}
</style>
<g id="Group_343" transform="translate(0.001 -328.467)">
	<g id="Group_342" transform="translate(-0.001 328.467)">
		<g id="Group_341">
			<path id="Path_193" class="st0" d="M9.2,5.5V11l4.7,2.8l0.8-1.3l-3.9-2.3V5.5H9.2z"/>
			<path id="Path_194" class="st0" d="M20.3,0l-3,3.1c-3.9-3.8-10.1-3.8-14,0s-3.9,10-0.1,13.8L3.3,17c3.9,3.8,10.2,3.8,14.1,0
				c1.8-1.9,2.9-4.4,2.9-7h-2.2c0.1,2-0.8,4-2.3,5.4c-3,3-7.9,3-10.9,0c-3-2.9-3-7.8-0.1-10.7l0.1-0.1c3.1-3,7.9-2.9,10.9,0.1
				l-3,3.1h7.5L20.3,0z"/>
		</g>
	</g>
</g>
</svg>
