<?xml version="1.0" encoding="utf-8"?>
<!-- Generator: Adobe Illustrator 25.2.0, SVG Export Plug-In . SVG Version: 6.00 Build 0)  -->
<svg version="1.1" id="Capa_1" xmlns="http://www.w3.org/2000/svg" xmlns:xlink="http://www.w3.org/1999/xlink" x="0px" y="0px"
	 viewBox="0 0 9.8 8.1" style="enable-background:new 0 0 9.8 8.1;" xml:space="preserve">
<style type="text/css">
	.st0{display:none;}
	.st1{display:inline;fill:#FBB25C;}
	.st2{fill:#FBB25C;}
</style>
<g class="st0">
	<path class="st1" d="M0.2,7.3c0.7-1.1,1.4-2.3,2.1-3.4c0.1-0.1,0.1-0.1,0.3-0.1c2.2,0,4.3,0,6.5,0c0.3,0,0.4,0.1,0.6,0.3
		c0.1,0.2,0.1,0.5,0,0.7C9,5.6,8.5,6.3,8,7.1C7.9,7.2,7.8,7.4,7.7,7.5C7.7,7.6,7.6,7.7,7.4,7.7c-2.3,0-4.7,0-7,0
		c-0.2,0-0.2-0.1-0.3-0.2C0.2,7.4,0.2,7.4,0.2,7.3z"/>
	<path class="st1" d="M0.2,1.1c0,0,0-0.1,0-0.1c0.1-0.3,0.4-0.5,0.7-0.5c0.7,0,1.4,0,2.1,0c0.4,0,0.7,0.3,0.7,0.7c0,0.1,0,0.2,0,0.4
		c0,0,0.1,0,0.1,0c1.1,0,2.1,0,3.2,0c0.5,0,0.8,0.3,0.8,0.8c0,0.3,0,0.6,0,0.9c-0.2,0-0.4,0-0.6,0c0-0.1,0-0.2,0-0.2
		c0-0.5-0.4-0.9-0.9-0.9c-1.6,0-3.2,0-4.8,0C1.1,2.1,0.7,2.5,0.7,3c0,0.8,0,1.5,0,2.3c0,0.1,0,0.1,0,0.2C0.5,5.7,0.4,5.9,0.2,6.2
		c0,0,0,0-0.1,0.1C0.2,4.5,0.2,2.8,0.2,1.1z"/>
	<path class="st1" d="M6.6,3.2c-0.3,0-0.5,0-0.8,0c-1.1,0-2.2,0-3.3,0C2.2,3.2,2,3.4,1.8,3.7C1.6,3.9,1.5,4.2,1.3,4.5
		c0,0,0-0.1,0-0.1c0-0.5,0-0.9,0-1.4c0-0.2,0.1-0.3,0.3-0.3c1.6,0,3.2,0,4.7,0c0.2,0,0.3,0.1,0.3,0.3C6.6,3.1,6.6,3.1,6.6,3.2z"/>
</g>
<g>
	<g>
		<path class="st2" d="M8.9,1.3H5L4.2,0.4c0,0-0.1,0-0.1,0H0.9C0.4,0.3,0,0.7,0,1.2v5.8c0,0.5,0.4,0.9,0.9,0.9h8.1
			c0.5,0,0.9-0.4,0.9-0.9V2.2C9.8,1.7,9.4,1.3,8.9,1.3z"/>
	</g>
</g>
</svg>
